<?xml version="1.0" standalone="no"?>
<!DOCTYPE svg PUBLIC "-//W3C//DTD SVG 20010904//EN"
 "http://www.w3.org/TR/2001/REC-SVG-20010904/DTD/svg10.dtd">
<svg version="1.0" xmlns="http://www.w3.org/2000/svg"
 width="512.000000pt" height="512.000000pt" viewBox="0 0 512.000000 512.000000"
 preserveAspectRatio="xMidYMid meet">
<metadata>
Created by potrace 1.16, written by Peter Selinger 2001-2019
</metadata>
<g transform="translate(0.000000,512.000000) scale(0.100000,-0.100000)"
fill="#000000" stroke="none">
<path d="M2000 4941 c-116 -37 -209 -105 -249 -180 -11 -20 -17 -21 -211 -21
-187 0 -201 -1 -220 -20 -13 -13 -20 -33 -20 -60 l0 -40 -257 0 c-291 0 -358
-9 -462 -62 -81 -41 -176 -134 -218 -215 -66 -123 -63 -7 -63 -1958 0 -1932
-3 -1820 56 -1942 54 -113 187 -225 312 -263 63 -20 96 -20 1491 -20 1277 0
1433 2 1482 16 178 52 318 194 364 369 13 51 15 175 15 875 l0 815 365 440
c230 278 376 462 395 500 51 101 53 216 4 291 -28 42 -211 198 -268 227 -23
12 -57 19 -98 19 -122 0 -199 -46 -314 -188 l-79 -97 -5 394 c-6 426 -4 408
-65 530 -37 73 -137 169 -216 208 -106 52 -173 61 -461 61 l-258 0 0 43 c0 75
-6 77 -238 77 l-201 0 -15 28 c-8 15 -37 49 -65 76 -88 81 -192 116 -346 115
-68 0 -118 -6 -155 -18z m-700 -546 l0 -65 -265 0 c-203 0 -273 -3 -299 -14
-46 -19 -104 -72 -129 -120 -22 -41 -22 -47 -25 -593 l-3 -552 -61 -30 c-34
-17 -63 -31 -65 -31 -2 0 -2 267 -1 593 3 567 4 594 23 639 46 107 110 172
212 214 56 23 67 24 336 24 l277 0 0 -65z m2368 26 c75 -41 135 -103 170 -179
l27 -57 3 -475 2 -475 -62 -77 -63 -77 -5 537 c-4 388 -8 544 -17 564 -20 44
-85 110 -128 129 -35 16 -70 19 -307 19 l-268 0 0 66 0 65 293 -3 292 -3 63
-34z m-2365 -278 c10 -90 -61 -83 859 -83 l809 0 24 25 c19 18 25 35 25 65 l0
41 253 -3 c270 -3 284 -6 306 -55 8 -16 11 -221 11 -634 l0 -609 -147 -179
c-82 -98 -217 -262 -301 -365 l-153 -186 -19 -152 c-11 -84 -20 -159 -20 -165
0 -10 -186 -13 -895 -13 -977 0 -957 1 -971 -55 -9 -35 10 -73 42 -85 16 -6
357 -10 912 -10 l888 0 -4 -68 c-3 -58 -1 -70 17 -86 11 -10 31 -18 43 -18 42
0 562 173 586 195 l22 20 0 -250 0 -251 -207 -4 c-194 -3 -211 -5 -256 -26
-26 -13 -61 -40 -77 -60 -51 -62 -60 -112 -60 -339 l0 -203 -1101 0 -1101 0
-29 29 -29 29 0 1735 0 1735 25 31 c14 16 36 32 48 34 12 2 128 5 258 6 l236
1 6 -47z m2874 -906 c82 -56 207 -163 242 -207 l29 -36 -23 -26 -23 -26 -33
35 c-50 52 -196 173 -256 212 -32 19 -50 38 -46 45 10 18 36 46 42 46 3 0 34
-20 68 -43z m-111 -196 c21 -16 17 -22 -265 -363 -157 -191 -333 -405 -391
-477 -58 -71 -108 -130 -112 -130 -13 -2 -127 82 -123 90 3 4 107 131 233 282
125 150 300 362 390 470 l162 197 43 -26 c23 -15 51 -34 63 -43z m192 -164
l52 -53 -323 -391 c-177 -215 -353 -429 -392 -477 -38 -47 -72 -86 -75 -86 -3
0 -29 24 -58 53 l-53 53 208 250 c114 138 291 352 393 477 102 124 187 226
190 226 3 1 29 -23 58 -52z m-389 -1074 l0 -248 -25 70 c-13 39 -43 116 -65
172 l-42 101 63 76 c34 42 64 76 66 76 2 0 4 -111 3 -247z m-673 156 c38 -28
97 -79 132 -112 l62 -62 -157 -52 c-86 -29 -157 -52 -158 -50 -5 6 40 327 46
327 3 0 37 -23 75 -51z m267 -913 c-10 -13 -87 -95 -171 -182 l-152 -159 0
153 0 154 29 29 29 29 142 0 141 0 -18 -24z"/>
<path d="M2054 3695 c-28 -14 -60 -35 -71 -48 -12 -12 -70 -107 -130 -212 -60
-104 -199 -345 -308 -535 -110 -190 -205 -361 -212 -380 -29 -83 -6 -183 59
-248 75 -76 42 -73 784 -70 l661 3 49 30 c91 57 137 180 104 279 -19 58 -611
1088 -649 1130 -68 75 -194 97 -287 51z m174 -147 c11 -13 76 -117 143 -233
444 -765 482 -832 486 -867 5 -33 1 -42 -30 -73 l-35 -35 -631 0 -631 0 -30
28 c-19 17 -33 40 -36 62 -5 32 16 72 209 405 376 652 399 690 424 713 17 16
36 22 67 22 31 0 48 -6 64 -22z"/>
<path d="M2115 3235 l-25 -24 0 -263 c0 -300 2 -308 69 -308 70 0 70 2 71 305
l1 270 -26 22 c-34 30 -60 29 -90 -2z"/>
<path d="M2110 2570 c-45 -45 -11 -120 53 -120 42 0 67 26 67 68 0 41 -31 72
-70 72 -17 0 -39 -9 -50 -20z"/>
<path d="M1105 1405 c-30 -30 -31 -54 -4 -89 l20 -26 1040 0 c1026 0 1039 0
1059 20 26 26 26 74 0 100 -20 20 -33 20 -1055 20 l-1036 0 -24 -25z"/>
<path d="M1130 1031 c-33 -9 -55 -50 -46 -85 14 -57 5 -57 815 -54 711 3 740
4 760 22 28 25 28 77 0 102 -20 18 -49 19 -763 21 -407 0 -752 -2 -766 -6z"/>
</g>
</svg>
