<svg width="16" height="16" viewBox="0 0 16 16" fill="none" xmlns="http://www.w3.org/2000/svg">
<g id="vuesax/outline/add">
<g id="add">
<g id="Vector">
<path d="M12 8.5L4 8.5C3.72667 8.5 3.5 8.27333 3.5 8C3.5 7.72667 3.72667 7.5 4 7.5L12 7.5C12.2733 7.5 12.5 7.72667 12.5 8C12.5 8.27333 12.2733 8.5 12 8.5Z" fill="white"/>
<path d="M12 8.5L4 8.5C3.72667 8.5 3.5 8.27333 3.5 8C3.5 7.72667 3.72667 7.5 4 7.5L12 7.5C12.2733 7.5 12.5 7.72667 12.5 8C12.5 8.27333 12.2733 8.5 12 8.5Z" fill="#FFC200"/>
</g>
<g id="Vector_2">
<path d="M8 12.5C7.72667 12.5 7.5 12.2733 7.5 12L7.5 4C7.5 3.72667 7.72667 3.5 8 3.5C8.27333 3.5 8.5 3.72667 8.5 4L8.5 12C8.5 12.2733 8.27333 12.5 8 12.5Z" fill="white"/>
<path d="M8 12.5C7.72667 12.5 7.5 12.2733 7.5 12L7.5 4C7.5 3.72667 7.72667 3.5 8 3.5C8.27333 3.5 8.5 3.72667 8.5 4L8.5 12C8.5 12.2733 8.27333 12.5 8 12.5Z" fill="#FFC200"/>
</g>
</g>
</g>
</svg>
