<svg width="25" height="24" viewBox="0 0 25 24" fill="none" xmlns="http://www.w3.org/2000/svg">
<path d="M20.51 19.26C20.32 19.26 20.13 19.19 19.98 19.04L15.03 14.09C14.74 13.8 14.74 13.32 15.03 13.03C15.32 12.74 15.8 12.74 16.09 13.03L21.04 17.98C21.33 18.27 21.33 18.75 21.04 19.04C20.89 19.19 20.7 19.26 20.51 19.26Z" fill="white"/>
<path d="M20.51 19.26C20.32 19.26 20.13 19.19 19.98 19.04L15.03 14.09C14.74 13.8 14.74 13.32 15.03 13.03C15.32 12.74 15.8 12.74 16.09 13.03L21.04 17.98C21.33 18.27 21.33 18.75 21.04 19.04C20.89 19.19 20.7 19.26 20.51 19.26Z" fill="#001E49" fill-opacity="0.6"/>
<path d="M10.6099 18.4302C9.87995 18.4302 9.17995 18.1402 8.66995 17.6202L4.42994 13.3802C3.35994 12.3102 3.35994 10.5602 4.42994 9.49015L11.4999 2.42018C12.5699 1.35018 14.3199 1.35018 15.3899 2.42018L19.63 6.66017C20.15 7.18017 20.44 7.87017 20.44 8.60017C20.44 9.33017 20.15 10.0302 19.63 10.5402L12.5599 17.6101C12.0399 18.1501 11.3499 18.4302 10.6099 18.4302ZM13.44 3.12016C13.12 3.12016 12.7999 3.24015 12.5599 3.49015L5.48995 10.5602C4.99995 11.0502 4.99995 11.8401 5.48995 12.3301L9.72994 16.5702C10.1999 17.0402 11.0199 17.0402 11.4999 16.5702L18.57 9.50016C18.81 9.26016 18.94 8.95016 18.94 8.62016C18.94 8.29016 18.81 7.97015 18.57 7.74015L14.33 3.50016C14.08 3.24016 13.76 3.12016 13.44 3.12016Z" fill="white"/>
<path d="M10.6099 18.4302C9.87995 18.4302 9.17995 18.1402 8.66995 17.6202L4.42994 13.3802C3.35994 12.3102 3.35994 10.5602 4.42994 9.49015L11.4999 2.42018C12.5699 1.35018 14.3199 1.35018 15.3899 2.42018L19.63 6.66017C20.15 7.18017 20.44 7.87017 20.44 8.60017C20.44 9.33017 20.15 10.0302 19.63 10.5402L12.5599 17.6101C12.0399 18.1501 11.3499 18.4302 10.6099 18.4302ZM13.44 3.12016C13.12 3.12016 12.7999 3.24015 12.5599 3.49015L5.48995 10.5602C4.99995 11.0502 4.99995 11.8401 5.48995 12.3301L9.72994 16.5702C10.1999 17.0402 11.0199 17.0402 11.4999 16.5702L18.57 9.50016C18.81 9.26016 18.94 8.95016 18.94 8.62016C18.94 8.29016 18.81 7.97015 18.57 7.74015L14.33 3.50016C14.08 3.24016 13.76 3.12016 13.44 3.12016Z" fill="#001E49" fill-opacity="0.6"/>
<path d="M8.5 21.75H2.5C2.09 21.75 1.75 21.41 1.75 21C1.75 20.59 2.09 20.25 2.5 20.25H8.5C8.91 20.25 9.25 20.59 9.25 21C9.25 21.41 8.91 21.75 8.5 21.75Z" fill="white"/>
<path d="M8.5 21.75H2.5C2.09 21.75 1.75 21.41 1.75 21C1.75 20.59 2.09 20.25 2.5 20.25H8.5C8.91 20.25 9.25 20.59 9.25 21C9.25 21.41 8.91 21.75 8.5 21.75Z" fill="#001E49" fill-opacity="0.6"/>
<path d="M14.13 15.7398C13.94 15.7398 13.75 15.6698 13.6 15.5198L6.53 8.44986C6.24 8.15986 6.24 7.67986 6.53 7.38986C6.82 7.09986 7.3 7.09986 7.59 7.38986L14.66 14.4598C14.95 14.7498 14.95 15.2298 14.66 15.5198C14.52 15.6698 14.32 15.7398 14.13 15.7398Z" fill="white"/>
<path d="M14.13 15.7398C13.94 15.7398 13.75 15.6698 13.6 15.5198L6.53 8.44986C6.24 8.15986 6.24 7.67986 6.53 7.38986C6.82 7.09986 7.3 7.09986 7.59 7.38986L14.66 14.4598C14.95 14.7498 14.95 15.2298 14.66 15.5198C14.52 15.6698 14.32 15.7398 14.13 15.7398Z" fill="#001E49" fill-opacity="0.6"/>
</svg>
