<svg width="36" height="36" viewBox="0 0 36 36" fill="none" xmlns="http://www.w3.org/2000/svg">
<g id="vuesax/twotone/close-circle">
<g id="close-circle">
<g id="Vector">
<path d="M18 33C26.25 33 33 26.25 33 18C33 9.75 26.25 3 18 3C9.75 3 3 9.75 3 18C3 26.25 9.75 33 18 33Z" fill="white"/>
<path d="M18 33C26.25 33 33 26.25 33 18C33 9.75 26.25 3 18 3C9.75 3 3 9.75 3 18C3 26.25 9.75 33 18 33Z" fill="#B7B7B7" fill-opacity="0.3"/>
<path d="M18 33C26.25 33 33 26.25 33 18C33 9.75 26.25 3 18 3C9.75 3 3 9.75 3 18C3 26.25 9.75 33 18 33Z" stroke="black"/>
</g>
<g id="Group 686">
<path id="Vector_2" d="M13.7549 22.2449L22.2449 13.7549" stroke="black" stroke-width="1.5" stroke-linecap="round" stroke-linejoin="round"/>
<path id="Vector_3" d="M22.2449 22.2449L13.7549 13.7549" stroke="black" stroke-width="1.5" stroke-linecap="round" stroke-linejoin="round"/>
</g>
</g>
</g>
</svg>
