<svg width="596" height="427" viewBox="0 0 596 427" fill="none" xmlns="http://www.w3.org/2000/svg">
<path opacity="0.3" d="M564.252 300.57C560.69 294.55 563.538 286.58 568.235 281.396C572.932 276.212 579.215 272.722 584.204 267.818C593.125 259.049 597.301 245.717 594.978 233.425C592.655 221.134 583.9 210.245 572.394 205.338C556.484 198.552 535.236 201.886 524.411 188.395C517.155 179.353 518.046 166.274 521.09 155.087C524.134 143.9 528.992 132.863 528.478 121.281C527.347 95.7813 499.207 78.0933 473.737 79.7723C448.267 81.4513 425.964 97.1073 406.802 113.969C401.259 118.847 395.618 124.012 388.595 126.29C381.572 128.569 372.692 127.038 368.819 120.752C366.798 117.472 366.4 113.412 364.5 110.06C358.495 99.4673 342.165 101.9 332.127 108.793C322.089 115.685 313.248 125.861 301.15 127.24C285.965 128.971 273.062 115.813 266.286 102.114C259.51 88.4153 255.952 72.8263 246.082 61.1583C230.495 42.7323 199.817 39.7313 180.955 54.7873C167.034 65.8993 160.682 83.6433 152.538 99.4853C144.394 115.327 131.598 131.374 113.852 132.91C91.9683 134.803 74.1223 113.942 52.2643 111.769C33.5263 109.906 15.3313 123.217 8.15331 140.625C0.975315 158.033 3.50232 178.332 11.3963 195.427C19.1833 212.291 32.3093 228.867 29.0313 247.15C25.7413 265.502 6.92731 277.459 1.53131 295.305C-2.91369 310.01 2.79532 326.279 12.5063 338.182C22.2173 350.085 35.4743 358.466 48.4863 366.632L549.567 384.55C565.195 371.512 575.818 353.598 586.133 336.053C589.324 330.625 592.611 324.145 590.189 318.332C586.05 308.404 569.731 309.829 564.252 300.57Z" fill="#C6E3FF"/>
<mask id="mask0_2479_3499" style="mask-type:luminance" maskUnits="userSpaceOnUse" x="0" y="44" width="596" height="340">
<path d="M564.447 299.399C560.885 293.379 563.733 285.409 568.43 280.225C573.127 275.041 579.41 271.551 584.399 266.647C593.32 257.878 597.496 244.546 595.173 232.254C592.85 219.962 584.095 209.074 572.589 204.166C556.679 197.38 535.431 200.714 524.606 187.223C517.35 178.181 518.241 165.102 521.285 153.915C524.329 142.728 529.186 131.691 528.673 120.109C527.542 94.6093 499.402 76.9213 473.932 78.6003C448.462 80.2793 426.159 95.9353 406.997 112.797C401.454 117.675 395.813 122.84 388.79 125.118C381.767 127.396 372.887 125.866 369.014 119.58C366.993 116.3 366.595 112.24 364.695 108.888C358.69 98.2953 342.36 100.728 332.322 107.621C322.284 114.513 313.443 124.689 301.345 126.068C286.16 127.799 273.257 114.641 266.481 100.942C259.705 87.2433 256.147 71.6543 246.277 59.9863C230.69 41.5603 200.012 38.5593 181.15 53.6153C167.228 64.7273 160.877 82.4713 152.733 98.3133C144.589 114.155 131.793 130.202 114.047 131.738C92.163 133.631 74.317 112.77 52.459 110.597C33.721 108.734 15.526 122.045 8.34803 139.453C1.17003 156.861 3.69704 177.16 11.591 194.256C19.378 211.119 32.504 227.696 29.226 245.979C25.936 264.33 7.12204 276.288 1.72704 294.134C-2.71896 308.839 2.99104 325.107 12.702 337.011C22.413 348.914 35.67 357.295 48.682 365.461L549.763 383.379C565.391 370.341 576.014 352.427 586.329 334.882C589.52 329.454 592.807 322.973 590.385 317.161C586.244 307.233 569.925 308.658 564.447 299.399Z" fill="white"/>
</mask>
<g mask="url(#mask0_2479_3499)">
<path d="M162.476 206.723H69.0195V337.957H162.476V206.723Z" fill="white"/>
<path d="M162.476 68.8513H69.0195V200.085H162.476V68.8513Z" fill="white"/>
<path d="M263.94 206.723H170.484V337.957H263.94V206.723Z" fill="white"/>
<path d="M263.94 68.8513H170.484V200.085H263.94V68.8513Z" fill="white"/>
</g>
<mask id="mask1_2479_3499" style="mask-type:luminance" maskUnits="userSpaceOnUse" x="0" y="44" width="596" height="340">
<path d="M564.447 299.399C560.885 293.379 563.733 285.409 568.43 280.225C573.127 275.041 579.41 271.551 584.399 266.647C593.32 257.878 597.496 244.546 595.173 232.254C592.85 219.962 584.095 209.074 572.589 204.166C556.679 197.38 535.431 200.714 524.606 187.223C517.35 178.181 518.241 165.102 521.285 153.915C524.329 142.728 529.186 131.691 528.673 120.109C527.542 94.6093 499.402 76.9213 473.932 78.6003C448.462 80.2793 426.159 95.9353 406.997 112.797C401.454 117.675 395.813 122.84 388.79 125.118C381.767 127.396 372.887 125.866 369.014 119.58C366.993 116.3 366.595 112.24 364.695 108.888C358.69 98.2953 342.36 100.728 332.322 107.621C322.284 114.513 313.443 124.689 301.345 126.068C286.16 127.799 273.257 114.641 266.481 100.942C259.705 87.2433 256.147 71.6543 246.277 59.9863C230.69 41.5603 200.012 38.5593 181.15 53.6153C167.228 64.7273 160.877 82.4713 152.733 98.3133C144.589 114.155 131.793 130.202 114.047 131.738C92.163 133.631 74.317 112.77 52.459 110.597C33.721 108.734 15.526 122.045 8.34803 139.453C1.17003 156.861 3.69704 177.16 11.591 194.256C19.378 211.119 32.504 227.696 29.226 245.979C25.936 264.33 7.12204 276.288 1.72704 294.134C-2.71896 308.839 2.99104 325.107 12.702 337.011C22.413 348.914 35.67 357.295 48.682 365.461L549.763 383.379C565.391 370.341 576.014 352.427 586.329 334.882C589.52 329.454 592.807 322.973 590.385 317.161C586.244 307.233 569.925 308.658 564.447 299.399Z" fill="white"/>
</mask>
<g mask="url(#mask1_2479_3499)">
<path d="M153.13 41.9963C153.13 41.9963 152.107 148.468 84.0634 216.356C84.0634 216.356 107.085 367.272 110.155 399.019H36.4844C36.4844 399.019 47.7394 258.847 51.8324 218.31C51.8324 218.31 43.1354 82.5343 41.0884 40.5313L153.13 41.9963Z" fill="#C6E3FF"/>
<path d="M177.477 41.9963C177.477 41.9963 178.5 148.468 246.544 216.356C246.544 216.356 223.522 367.272 220.452 399.019H294.123C294.123 399.019 282.868 258.847 278.775 218.31C278.775 218.31 287.472 82.5343 289.519 40.5313L177.477 41.9963Z" fill="#C6E3FF"/>
</g>
<path d="M474.61 159.517H462.336V211.432H474.61V159.517Z" fill="#ADDCFF"/>
<path d="M486.544 166.299H474.27V211.433H486.544V166.299Z" fill="#C6E3FF"/>
<path d="M462.576 172.171H454.25V211.433H462.576V172.171Z" fill="#C6E3FF"/>
<path d="M492.656 171.786H486.109V211.433H492.656V171.786Z" fill="#ADDCFF"/>
<path d="M547.312 179.346C546.758 178.429 545.594 178.155 544.689 178.571C544.2 178.796 543.791 179.191 543.471 179.671C544.555 176.957 545.004 173.912 544.729 170.944C544.655 170.147 544.506 169.299 544.004 168.74C543.124 167.761 541.551 168.197 540.751 169.261C540.466 169.64 540.255 170.071 540.089 170.529C540.314 169.108 540.412 167.66 540.345 166.218C540.302 165.294 539.994 164.131 539.186 164.061C538.63 164.013 538.177 164.547 537.847 165.062C536.605 167 535.835 169.328 535.644 171.721C536.127 167.373 536.601 162.875 535.51 158.673C535.295 157.845 535.008 157.014 534.484 156.391C533.961 155.768 533.153 155.395 532.432 155.65C531.496 155.981 531.041 157.171 530.768 158.247C529.996 161.293 529.778 164.508 530.072 167.661C529.936 167.366 529.788 167.078 529.624 166.8C529.173 166.037 528.514 165.303 527.708 165.309C527.082 165.313 526.512 165.785 526.174 166.387C525.836 166.989 525.695 167.707 525.604 168.415C525.236 171.272 525.605 174.242 526.629 176.881C526.209 176.324 525.609 175.94 524.966 175.882C523.906 175.787 522.832 176.579 522.471 177.723C522.173 178.669 522.34 179.722 522.612 180.679C524.514 187.377 530.929 191.812 536.981 190.995C539.664 190.633 542.224 189.275 544.245 187.234C545.816 185.65 548.87 181.926 547.312 179.346Z" fill="#C6E3FF"/>
<path d="M543.454 210.46H525.94L521.898 189.881H547.496L543.454 210.46Z" fill="#C6E3FF"/>
<path d="M544.305 208.558H525.004V211.087H544.305V208.558Z" fill="#ADDCFF"/>
<path d="M548.132 186.382H521.176V192.064H548.132V186.382Z" fill="#ADDCFF"/>
<path d="M568.625 210.982H426.582V214.476H568.625V210.982Z" fill="#C6E3FF"/>
<path d="M566.703 214.477H428.504V224.611H566.703V214.477Z" fill="#C6E3FF"/>
<path d="M414.046 114.662H381.246V130.968H414.046V114.662Z" fill="#C6E3FF"/>
<path d="M414.712 130.968H380.578V133.358H414.712V130.968Z" fill="#ADDCFF"/>
<path d="M406.218 127.841H389.072C387.783 127.841 386.738 126.796 386.738 125.507V120.696C386.738 119.407 387.783 118.362 389.072 118.362H406.218C407.507 118.362 408.552 119.407 408.552 120.696V125.507C408.552 126.796 407.507 127.841 406.218 127.841Z" fill="white"/>
<path d="M409.091 90.7173C407.746 90.6713 405.906 90.0833 404.627 87.5953C404.374 87.1043 404.567 86.5013 405.059 86.2483C405.55 85.9963 406.153 86.1893 406.405 86.6803C407.081 87.9933 408.007 88.6793 409.16 88.7183C409.175 88.7183 409.188 88.7183 409.202 88.7193C411.327 88.7623 414.07 86.6733 415.725 83.7523C417.435 80.7343 417.292 77.4943 416.268 75.8533C415.791 75.0883 415.175 74.7243 414.422 74.7703C412.939 74.8603 412.102 76.0323 411.291 77.1643C410.524 78.2363 409.677 79.4423 408.202 79.2803C407.654 79.2153 407.263 78.7173 407.328 78.1693C407.393 77.6213 407.882 77.2293 408.439 77.2943C408.692 77.3323 409.242 76.5943 409.664 76.0013C410.593 74.7033 411.865 72.9243 414.299 72.7753C415.782 72.6863 417.093 73.4013 417.963 74.7953C419.548 77.3333 419.343 81.4233 417.463 84.7393C415.403 88.3753 412.066 90.7783 409.16 90.7193C409.138 90.7183 409.115 90.7173 409.091 90.7173Z" fill="#ADDCFF"/>
<path d="M386.199 90.7173C387.544 90.6713 389.384 90.0833 390.663 87.5953C390.916 87.1043 390.723 86.5013 390.232 86.2483C389.741 85.9963 389.137 86.1893 388.886 86.6803C388.21 87.9933 387.284 88.6793 386.131 88.7183C386.116 88.7183 386.103 88.7183 386.089 88.7193C383.964 88.7623 381.221 86.6733 379.566 83.7523C377.856 80.7343 377.999 77.4943 379.023 75.8533C379.5 75.0883 380.116 74.7243 380.869 74.7703C382.352 74.8603 383.189 76.0323 384 77.1643C384.767 78.2363 385.614 79.4423 387.089 79.2803C387.637 79.2153 388.028 78.7173 387.963 78.1693C387.898 77.6213 387.409 77.2293 386.852 77.2943C386.599 77.3323 386.049 76.5943 385.627 76.0013C384.698 74.7033 383.426 72.9243 380.992 72.7753C379.509 72.6863 378.198 73.4013 377.328 74.7953C375.743 77.3333 375.948 81.4233 377.828 84.7393C379.888 88.3753 383.225 90.7783 386.131 90.7193C386.152 90.7183 386.176 90.7173 386.199 90.7173Z" fill="#ADDCFF"/>
<path d="M408.802 112.16H386.487C386.065 112.16 385.723 112.502 385.723 112.924V113.897C385.723 114.319 386.065 114.661 386.487 114.661H408.802C409.224 114.661 409.567 114.319 409.567 113.897V112.924C409.567 112.503 409.225 112.16 408.802 112.16Z" fill="#ADDCFF"/>
<path d="M406.708 111.074L404.466 109.286C402.253 107.521 400.947 104.872 400.867 102.052C401.968 101.128 402.683 99.7583 402.683 98.2083C402.683 97.1493 402.353 96.1683 401.794 95.3573C409.537 91.7993 410.975 78.1863 411.062 69.8883H384.227C384.314 78.1863 385.752 91.7983 393.495 95.3573C392.936 96.1683 392.606 97.1493 392.606 98.2083C392.606 99.7583 393.321 101.128 394.422 102.052C394.342 104.872 393.036 107.522 390.823 109.286L388.581 111.074C388.059 111.415 388.326 112.161 388.97 112.161H406.318C406.962 112.16 407.229 111.415 406.708 111.074Z" fill="#C6E3FF"/>
<path d="M410.755 68.2723H384.532C383.841 68.2723 383.281 68.8323 383.281 69.5233C383.281 70.2143 383.841 70.7743 384.532 70.7743H410.755C411.446 70.7743 412.006 70.2143 412.006 69.5233C412.006 68.8323 411.446 68.2723 410.755 68.2723Z" fill="#ADDCFF"/>
<path d="M497.512 132.808H355.469V136.302H497.512V132.808Z" fill="#C6E3FF"/>
<path d="M495.59 136.302H357.391V146.435H495.59V136.302Z" fill="#C6E3FF"/>
<path d="M461.437 99.5803H468.337C468.73 99.5803 469.043 99.8103 469.138 100.168L477.361 131.277C477.535 131.937 476.915 132.682 476.192 132.682H469.292C468.899 132.682 468.586 132.452 468.491 132.093L460.268 100.984C460.094 100.325 460.714 99.5803 461.437 99.5803Z" fill="#ADDCFF"/>
<path d="M473.806 87.8013H440.654L433.629 132.751H466.781L473.806 87.8013Z" fill="#ADDCFF"/>
<path d="M471.935 87.8013H438.784L431.758 132.751H464.91L471.935 87.8013Z" fill="#C6E3FF"/>
<path d="M467.067 91.9513H442.352L436.625 128.6H461.339L467.067 91.9513Z" fill="white"/>
<path d="M459.55 98.9863H447.67L444.141 121.565H456.021L459.55 98.9863Z" fill="#C6E3FF"/>
<path d="M236.516 273.338C235.097 262.452 238.858 252.951 250.258 252.951C261.658 252.951 268.239 266.609 269.659 277.495C271.078 288.381 278.814 336.758 282.389 339.845C288.751 345.338 327.755 339.609 335.537 345.585C343.319 351.561 352.557 393.287 345.912 400.611C339.267 407.935 271.144 408.528 260.112 400.611C249.079 392.693 237.935 284.225 236.516 273.338Z" fill="#FFB145"/>
<path opacity="0.32" d="M236.516 273.338C235.097 262.452 238.858 252.951 250.258 252.951C261.658 252.951 268.239 266.609 269.659 277.495C271.078 288.381 278.814 336.758 282.389 339.845C288.751 345.338 327.755 339.609 335.537 345.585C343.319 351.561 352.557 393.287 345.912 400.611C339.267 407.935 271.144 408.528 260.112 400.611C249.079 392.693 237.935 284.225 236.516 273.338Z" fill="#FFB145"/>
<path d="M117.302 264.979C120.99 256.68 137.246 248.86 185.604 248.86C233.962 248.86 249.535 253.505 253.086 259.242C256.638 264.979 289.696 395.573 281.226 402.13C272.757 408.687 156.097 412.239 144.076 402.676C132.055 393.114 115.116 269.897 117.302 264.979Z" fill="#FFB145"/>
<path opacity="0.1" d="M253.086 259.242C252.188 257.791 250.517 256.411 247.747 255.158C256.484 293.092 233.84 330.625 204.724 353.618C190.275 365.029 172.007 374.36 153.065 372.566C145.204 371.821 138.146 368.976 131.523 364.838C135.671 384.212 140.138 399.544 144.076 402.677C156.097 412.239 272.757 408.688 281.226 402.131C289.696 395.573 256.638 264.979 253.086 259.242Z" fill="#FFB145"/>
<path opacity="0.36" d="M120.213 269.464C125.313 266.727 130.703 264.345 136.023 262.078C149.103 256.505 162.687 253.697 176.803 252.375C192.445 250.91 208.169 251.219 223.847 251.811C228.056 251.97 232.269 252.108 236.417 251.953C226.043 250.045 209.999 248.862 185.602 248.862C137.244 248.862 120.989 256.682 117.3 264.981C117.045 265.555 117.053 267.755 117.281 271.181C118.223 270.561 119.217 269.998 120.213 269.464Z" fill="#FFB145"/>
<path d="M241.325 344.141C242.813 339.104 243.857 333.936 244.456 328.719C245.666 318.191 245.074 307.454 242.682 297.129C241.316 291.232 239.362 285.469 236.826 279.971C236.344 278.926 235.784 277.827 234.78 277.266C233.775 276.705 232.215 277.021 231.912 278.131C211.364 269.497 187.414 269.302 166.728 277.6C162.696 279.217 158.556 281.182 154.23 280.791C152.695 280.652 151.175 280.215 149.638 280.329C148.101 280.443 146.458 281.315 146.111 282.816C145.764 284.318 147.551 286.016 148.842 285.174C144.256 303.252 144.919 322.63 150.73 340.353C152.164 344.726 153.924 349.359 152.714 353.799C152.317 355.254 151.605 356.767 152.071 358.201C152.537 359.635 155.038 360.167 155.384 358.698C174.069 371.016 198.478 374.212 219.704 367.122C225.183 365.292 230.426 362.829 235.654 360.373C237.254 359.621 238.988 358.735 239.668 357.102C240.453 355.216 238.482 353.63 238.704 351.718C238.985 349.302 240.623 346.516 241.325 344.141Z" fill="#FFF8DB"/>
<path d="M241.325 344.141C242.643 339.681 243.591 335.117 244.212 330.508C239.715 331.485 235.149 332.164 230.612 332.656C214.966 334.356 198.792 333.279 183.649 328.893C171.088 325.254 159.262 318.462 150.91 308.253C149.233 306.203 147.612 303.919 146.161 301.48C145.111 314.571 146.638 327.873 150.731 340.355C152.165 344.728 153.925 349.361 152.715 353.801C152.318 355.256 151.606 356.769 152.072 358.203C152.538 359.637 155.039 360.169 155.385 358.7C174.07 371.018 198.479 374.214 219.705 367.124C225.184 365.294 230.427 362.831 235.655 360.375C237.255 359.623 238.989 358.737 239.669 357.104C240.454 355.218 238.483 353.632 238.705 351.72C238.985 349.302 240.623 346.516 241.325 344.141Z" fill="#FFF8DB"/>
<path d="M297.2 286.837C297.2 286.837 324.422 326.421 327.919 328.943C331.415 331.465 387.537 356.194 387.537 356.194L369.501 377.504C369.501 377.504 307.745 353.505 303.139 348.239C298.534 342.972 272 304.924 272 304.924L297.2 286.837Z" fill="#FFC9B0"/>
<path opacity="0.6" d="M297.2 286.837C297.2 286.837 324.422 326.421 327.919 328.943C331.415 331.465 387.537 356.194 387.537 356.194L369.501 377.504C369.501 377.504 307.745 353.505 303.139 348.239C298.534 342.972 272 304.924 272 304.924L297.2 286.837Z" fill="#FFC9B0"/>
<path d="M295.496 320.009C298.734 317.404 301.306 314.054 303.364 310.466C305.084 307.468 306.317 304.337 307.07 301.024C301.59 293.221 297.199 286.836 297.199 286.836L272 304.923C272 304.923 278.621 314.417 285.822 324.577C289.222 323.385 292.521 322.403 295.496 320.009Z" fill="#FFC9B0"/>
<path d="M237.818 259.673C243.941 259.089 249.54 256.236 252.357 250.64C253.674 248.024 253.849 245.355 253.684 242.658C249.26 241.774 244.43 240.682 240.173 239.43C228.472 235.989 227.158 237.004 221.504 239.745C219.206 240.859 214.712 242.698 210.082 244.565C216.207 254.098 226.133 260.787 237.818 259.673Z" fill="#FFC9B0"/>
<g opacity="0.3">
<path d="M253.683 242.658C252.517 242.425 251.321 242.176 250.116 241.915C247.417 246.418 242.823 250.484 239.62 252.319C235.92 254.438 227.969 256.909 221.828 256.09C226.544 258.829 231.96 260.233 237.818 259.674C243.941 259.09 249.54 256.237 252.357 250.641C253.674 248.024 253.849 245.355 253.683 242.658Z" fill="#FFC9B0"/>
</g>
<path d="M246.214 221.033L220.043 216.536L218.445 244.728L243.417 248.879L246.214 221.033Z" fill="#FFC9B0"/>
<mask id="mask2_2479_3499" style="mask-type:luminance" maskUnits="userSpaceOnUse" x="218" y="216" width="29" height="33">
<path d="M246.214 221.033L220.043 216.536L218.445 244.728L243.417 248.879L246.214 221.033Z" fill="white"/>
</mask>
<g mask="url(#mask2_2479_3499)">
<path d="M251.813 238.611C230.469 239.585 219.963 214.917 220.517 213.876C221.205 212.582 223.258 212.657 224.936 212.995C236.758 215.373 253.404 221.749 255.54 226.98C257.677 232.211 254.825 238.474 251.813 238.611Z" fill="#FFC9B0"/>
</g>
<path d="M270.495 171.722C271.143 172.79 271.442 174.03 271.657 175.26C272.203 178.382 272.263 181.589 271.836 184.729C271.649 186.101 271.358 187.491 270.642 188.677C269.645 190.328 267.932 191.407 266.204 192.264C265.134 192.794 263.884 193.268 262.778 192.819C262.04 192.519 261.51 191.851 261.143 191.143C259.863 188.674 260.237 185.71 260.66 182.962C261.065 180.326 261.493 177.66 262.547 175.21C263.332 173.386 264.501 171.658 266.091 170.441C267.834 169.106 269.384 169.89 270.495 171.722Z" fill="#2A2929"/>
<path opacity="0.64" d="M270.495 171.722C271.143 172.79 271.442 174.03 271.657 175.26C272.203 178.382 272.263 181.589 271.836 184.729C271.649 186.101 271.358 187.491 270.642 188.677C269.645 190.328 267.932 191.407 266.204 192.264C265.134 192.794 263.884 193.268 262.778 192.819C262.04 192.519 261.51 191.851 261.143 191.143C259.863 188.674 260.237 185.71 260.66 182.962C261.065 180.326 261.493 177.66 262.547 175.21C263.332 173.386 264.501 171.658 266.091 170.441C267.834 169.106 269.384 169.89 270.495 171.722Z" fill="#2A2929"/>
<path d="M269.028 206.111C269.018 206.141 269.018 206.181 269.008 206.211C268.948 206.531 268.888 206.841 268.838 207.151C268.148 210.731 265.808 219.701 263.078 225.221C262.738 225.901 262.398 226.521 262.058 227.081C258.258 233.251 253.728 235.301 242.218 232.421C221.928 227.351 206.128 204.561 216.288 179.651C216.518 179.101 216.758 178.551 216.998 178.021C220.248 171.051 225.748 165.261 232.168 162.171C249.168 153.991 269.178 164.691 270.038 189.521C270.228 195.361 269.918 200.971 269.028 206.111Z" fill="#FFC9B0"/>
<path opacity="0.3" d="M270.039 189.521C269.766 181.653 267.567 175.208 264.153 170.329C267.51 194.748 261.205 213.847 256.827 221.419C254.485 225.47 251.121 229.732 247.125 233.402C255.114 234.543 258.855 232.284 262.059 227.082C262.399 226.522 262.739 225.902 263.079 225.222C265.809 219.702 268.149 210.732 268.839 207.152C268.889 206.842 268.949 206.532 269.009 206.212C269.019 206.182 269.019 206.142 269.029 206.112C269.919 200.971 270.229 195.361 270.039 189.521Z" fill="#FFC9B0"/>
<path d="M276.309 164.561C276.329 167.841 273.979 170.861 270.959 172.311C266.289 174.571 263.119 174.391 255.699 173.491C255.139 173.421 254.559 173.321 253.969 173.191C246.859 171.671 238.339 166.511 232.909 169.691C229.209 171.851 227.289 175.411 226.539 179.081C226.089 181.251 226.059 183.451 226.309 185.431C226.999 190.741 226.769 192.071 226.899 194.571C226.179 196.981 225.179 199.441 222.689 199.361C220.639 199.291 219.129 194.621 217.109 194.341C215.709 194.141 214.899 195.231 214.029 196.091C213.609 196.501 213.079 196.871 212.479 196.901C212.209 196.921 211.939 196.861 211.669 196.771C209.219 189.271 207.179 181.101 209.029 173.271C209.089 172.991 209.159 172.711 209.239 172.431C209.249 172.381 209.269 172.331 209.279 172.281C209.429 171.751 209.599 171.231 209.779 170.731C211.689 165.411 215.489 161.001 220.229 157.861C220.799 157.471 221.389 157.111 221.989 156.771C225.269 154.881 228.929 153.561 232.679 152.911C236.089 152.311 239.579 152.261 242.939 152.841C244.349 153.081 245.769 153.571 247.049 154.201C247.589 154.461 250.249 155.731 250.259 156.371C250.239 154.421 252.439 152.781 254.369 153.291C256.299 153.811 257.319 156.321 256.269 157.981C258.059 155.701 259.859 153.421 261.649 151.151C262.539 150.011 263.919 148.731 265.269 149.301C266.209 149.701 266.559 150.811 266.669 151.791C266.939 154.071 266.489 156.431 265.409 158.471C266.149 157.301 267.179 156.101 268.389 156.861C270.089 157.921 268.269 160.521 267.559 162.151C268.979 160.871 270.649 159.491 272.569 159.691C274.839 159.921 276.289 162.341 276.309 164.561Z" fill="#2A2929"/>
<path opacity="0.64" d="M273.431 159.896C272.172 164.003 269.092 167.352 264.46 168.701C260.585 169.83 256.364 169.695 252.39 169.296C248.462 168.902 244.342 167.742 240.307 167.504C238.724 167.739 237.134 167.991 235.615 168.599C235.376 168.695 235.148 168.807 234.914 168.911C240.797 167.549 249.079 172.681 255.704 173.489C263.12 174.393 266.286 174.567 270.964 172.312C273.985 170.856 276.327 167.838 276.308 164.559C276.296 162.635 275.201 160.562 273.431 159.896Z" fill="#2A2929"/>
<path opacity="0.64" d="M229.971 172.07C228.485 173.412 227.237 175.009 226.324 176.885C222.901 183.908 226.803 192.683 223.25 199.328C225.332 199.049 226.237 196.794 226.895 194.575C226.768 192.073 226.995 190.737 226.311 185.427C225.759 181.153 226.569 175.792 229.971 172.07Z" fill="#2A2929"/>
<path opacity="0.5" d="M243.147 164.131C242.657 164.821 241.957 165.291 241.217 165.661C238.937 166.841 236.307 167.251 233.897 168.171C230.747 169.391 227.997 171.501 225.957 174.281C225.517 174.891 225.097 175.541 224.467 175.941C223.847 176.331 222.957 176.411 222.287 175.891C221.727 175.441 221.437 174.671 220.917 174.161C220.017 173.241 218.617 173.351 217.767 174.041C216.917 174.731 216.477 175.851 216.077 176.941C215.757 177.791 215.287 178.751 214.407 178.781C213.327 178.811 212.487 177.481 212.157 176.321C211.837 175.161 211.677 173.851 210.827 172.981C210.377 172.531 209.827 172.311 209.277 172.281C209.427 171.751 209.597 171.231 209.777 170.731C211.687 165.411 215.487 161.001 220.227 157.861C220.567 158.151 220.917 158.401 221.307 158.561C222.397 159.001 223.517 158.671 224.407 158.141C225.317 157.611 226.107 156.871 227.057 156.431C227.767 156.111 228.797 156.071 229.287 156.841C229.497 157.161 229.557 157.551 229.727 157.901C230.067 158.621 230.867 159.011 231.567 159.061C232.267 159.121 232.937 158.901 233.597 158.731C235.297 158.291 237.117 158.161 238.937 158.361C239.897 158.451 240.867 158.661 241.747 159.171C242.637 159.681 243.417 160.561 243.667 161.591C243.887 162.511 243.627 163.451 243.147 164.131Z" fill="#2A2929"/>
<path d="M261.081 201.639C260.834 203.222 261.408 204.626 262.363 204.775C263.318 204.924 264.293 203.762 264.54 202.179C264.787 200.596 264.213 199.192 263.257 199.043C262.302 198.893 261.328 200.056 261.081 201.639Z" fill="black"/>
<path d="M238.132 198.642C237.885 200.225 238.459 201.629 239.415 201.778C240.37 201.927 241.345 200.765 241.592 199.182C241.839 197.599 241.265 196.195 240.31 196.046C239.355 195.897 238.379 197.059 238.132 198.642Z" fill="black"/>
<path d="M254.981 214.358C252.52 214.164 250.046 213.577 247.821 212.495C245.591 211.41 243.702 209.897 241.892 208.221C241.739 208.08 241.465 208.265 241.591 208.453C244.407 212.654 250.018 215.059 254.981 214.866C255.31 214.853 255.304 214.383 254.981 214.358Z" fill="#B92513"/>
<path d="M256.092 205.454C255.533 204.948 254.897 204.563 254.208 204.273C254.67 202.713 255.123 201.151 255.563 199.584C256.014 197.98 256.477 196.379 256.695 194.723C256.723 194.509 256.417 194.511 256.35 194.676C255.711 196.244 255.302 197.887 254.846 199.514C254.391 201.14 253.923 202.761 253.444 204.38C253.387 204.571 253.513 204.75 253.69 204.812C254.334 205.039 254.941 205.356 255.473 205.787C255.944 206.169 256.677 206.793 256.68 207.457C256.682 208.114 255.924 208.713 255.453 209.082C254.904 209.513 254.276 209.848 253.621 210.087C253.346 210.187 253.454 210.613 253.744 210.531C254.57 210.298 255.317 209.926 255.986 209.385C256.561 208.92 257.293 208.261 257.294 207.457C257.295 206.66 256.646 205.956 256.092 205.454Z" fill="#B92513"/>
<path d="M260.856 189.931C260.31 191.603 262.305 191.398 265.288 192.436C268.271 193.473 268.46 196.676 269.36 196.547C270.26 196.417 270.136 190.793 266.282 188.858C263.334 187.377 261.216 188.827 260.856 189.931Z" fill="#2A2929"/>
<path d="M252.006 188.19C252.112 189.822 248.099 188.872 243.612 188.195C239.126 187.518 235.396 191.129 235.053 189.691C234.71 188.253 238.5 183.945 244.019 184.177C249.539 184.408 251.936 187.112 252.006 188.19Z" fill="#2A2929"/>
<path opacity="0.64" d="M260.856 189.931C260.31 191.603 262.305 191.398 265.288 192.436C268.271 193.473 268.46 196.676 269.36 196.547C270.26 196.417 270.136 190.793 266.282 188.858C263.334 187.377 261.216 188.827 260.856 189.931Z" fill="#2A2929"/>
<path opacity="0.64" d="M252.006 188.19C252.112 189.822 248.099 188.872 243.612 188.195C239.126 187.518 235.396 191.129 235.053 189.691C234.71 188.253 238.5 183.945 244.019 184.177C249.539 184.408 251.936 187.112 252.006 188.19Z" fill="#2A2929"/>
<path d="M219.876 196.478C218.346 192.382 215.153 189.096 210.581 190.576C209.094 191.057 207.982 192.381 207.467 193.857C206.953 195.333 206.972 196.946 207.2 198.492C207.774 202.395 209.772 206.195 213.06 208.375C214.304 209.2 215.876 209.789 217.279 209.278C219.203 208.578 220.192 206.439 220.634 204.575C221.175 202.294 220.895 199.206 219.876 196.478Z" fill="#FFC9B0"/>
<path opacity="0.3" d="M214.764 192.697C215.881 193.865 216.489 195.48 217.56 196.621C218.313 197.423 218.795 198.605 220.081 197.248C220.093 197.235 220.103 197.214 220.115 197.2C220.038 196.958 219.962 196.716 219.873 196.478C218.44 192.641 215.547 189.517 211.43 190.351C212.659 190.844 213.793 191.682 214.764 192.697Z" fill="#FFC9B0"/>
<path d="M210.349 194.446C210.777 194.139 211.303 194.01 211.821 194.043C213.022 194.119 214.041 194.965 214.68 195.945C215.344 196.963 215.801 198.169 216.169 199.325C216.552 200.533 216.732 201.813 216.656 203.083C216.641 203.336 216.216 203.33 216.213 203.075C216.183 200.988 215.386 198.863 214.394 197.058C214.242 196.781 214.063 196.512 213.87 196.253C213.264 197.118 212.914 198.146 212.851 199.205C212.775 200.484 213.071 201.643 213.467 202.842C213.507 202.963 213.346 203.064 213.268 202.953C211.794 200.845 211.888 197.816 213.537 195.84C213.182 195.461 212.764 195.154 212.26 194.998C211.472 194.754 210.36 195.015 209.893 195.749C209.806 195.886 209.555 195.776 209.599 195.617C209.734 195.142 209.944 194.736 210.349 194.446Z" fill="#B92513"/>
<path d="M213.993 196.399C212.896 195.895 211.511 196.096 210.602 196.891C209.693 197.687 209.311 199.033 209.667 200.187C209.965 201.155 210.703 201.914 211.416 202.634C214.057 205.298 218.933 210.685 219.553 210.812C220.174 210.939 221.709 209.515 221.514 208.746C221.319 207.977 217.751 204.856 216.696 202.672C215.67 200.547 216.746 197.605 213.993 196.399Z" fill="white"/>
<path d="M276.66 321.222C289.596 320.414 300.068 309.916 307.12 299.401C308.408 297.48 309.498 295.55 310.452 293.608C304.416 282.652 298.382 271.697 292.339 260.738C290.184 256.829 287.171 253.346 283.652 250.605C281.898 249.239 278.88 246.8 276.769 246.097C273.202 244.908 270.953 252.95 270.634 255.727C270.299 258.642 270.003 261.564 269.729 264.486C269.174 270.402 268.769 276.336 268.728 282.279C268.715 282.68 268.715 283.069 268.715 283.471C268.715 296.079 270.145 309.139 274.888 317.959C275.484 319.068 276.074 320.153 276.66 321.222Z" fill="#C3262C"/>
<path opacity="0.2" d="M276.66 321.222C289.596 320.414 300.068 309.916 307.12 299.401C308.408 297.48 309.498 295.55 310.452 293.608C304.416 282.652 298.382 271.697 292.339 260.738C290.184 256.829 287.171 253.346 283.652 250.605C281.898 249.239 278.88 246.8 276.769 246.097C273.202 244.908 270.953 252.95 270.634 255.727C270.299 258.642 270.003 261.564 269.729 264.486C269.174 270.402 268.769 276.336 268.728 282.279C268.715 282.68 268.715 283.069 268.715 283.471C268.715 296.079 270.145 309.139 274.888 317.959C275.484 319.068 276.074 320.153 276.66 321.222Z" fill="#C3262C"/>
<path d="M282.665 282.806C281.937 267.607 280.251 249.554 276.878 246.181C275.292 244.595 253.413 242.038 249.378 241.595C249.056 241.56 248.826 241.874 248.933 242.18C250.562 246.829 248.813 252.069 239.108 253.087C228.069 254.245 221.385 250.154 213.25 243.221C211.975 242.134 183.74 253.245 180.725 258.51C175.117 268.306 187.771 309.106 189.342 325.689C190.913 342.272 188.551 365.446 186.592 378.134C201.725 380.817 257.189 387.248 276.477 375.793C282.665 372.118 283.393 298.005 282.665 282.806Z" fill="#C3262C"/>
<path d="M241.704 257.551C254.904 255.618 252.837 244.084 251.762 241.867C250.726 241.746 249.901 241.652 249.379 241.595C249.057 241.56 248.827 241.874 248.934 242.179C250.563 246.828 248.814 252.068 239.109 253.086C228.07 254.244 221.386 250.153 213.251 243.22C212.897 242.918 210.461 243.559 207.066 244.752C216.104 255.084 228.504 259.484 241.704 257.551Z" fill="black"/>
<path opacity="0.2" d="M282.667 282.806C281.939 267.607 280.253 249.554 276.88 246.181C275.896 245.197 267.089 243.838 259.586 242.843C261.718 248.772 262.226 256.091 262.611 261.989C263.086 269.274 262.805 276.606 261.574 283.808C258.976 299.007 252.204 313.639 243.926 326.558C235.99 338.944 225.793 349.555 212.573 356.266C204.806 360.209 196.695 362.428 188.396 363.877C187.842 369.294 187.199 374.216 186.594 378.135C201.727 380.818 257.191 387.249 276.479 375.794C282.667 372.118 283.395 298.005 282.667 282.806Z" fill="#C3262C"/>
<path d="M284.39 276.63C284.765 275.645 285.018 274.61 284.914 273.506C284.259 274.394 283.853 275.322 283.463 276.258C283.179 276.985 282.933 277.712 282.712 278.483L282.288 273.813C282.055 271.652 281.856 269.489 281.594 267.334C281.631 269.511 281.732 271.679 281.8 273.85L282.11 280.351C282.381 284.677 282.368 289.01 282.382 293.351L282.465 306.37C282.5 310.711 282.523 315.053 282.625 319.399C282.935 315.063 283.106 310.721 283.231 306.378C283.359 302.035 283.367 297.69 283.381 293.344L283.251 286.824C283.188 284.651 283.112 282.469 282.879 280.308L282.759 278.982C283.525 278.357 284.026 277.498 284.39 276.63Z" fill="black"/>
<path d="M327.903 341.1C327.078 335.972 324.255 331.309 320.597 327.621C319.477 326.491 318.254 325.427 316.811 324.757C313.896 323.404 310.154 323.536 307.051 323.991C303.095 324.571 299.286 325.942 295.47 327.075C291.91 328.132 288.351 329.194 284.801 330.286C283.994 330.534 282.934 331.093 282.093 331.128C275.203 331.418 232.278 333.196 224.728 332.724C218.824 322.97 211.915 297.815 211.915 297.815C211.915 297.815 190.571 298.541 181.707 311.168C181.707 310.804 199.117 353.328 202.454 355.895C205.791 358.462 223.487 357.039 245.306 353.189C261.819 350.275 276.248 346.971 282.292 345.536C283.072 345.864 283.959 346.127 284.968 346.308C295.729 348.24 295.426 341.215 296.033 340.864L295.832 340.437C297.78 341.47 299.751 342.46 301.761 343.366C302.574 343.732 303.696 344.016 304.218 343.294C304.626 342.731 304.346 341.947 304.041 341.322C303.022 339.239 301.831 337.241 300.483 335.355C303.5 338.303 306.518 341.251 309.535 344.198C310.135 344.784 310.995 345.414 311.729 345.008C312.458 344.605 312.389 343.546 312.178 342.739C311.157 338.832 309.161 335.184 306.42 332.219C308.406 334.438 310.393 336.656 312.379 338.875C313.742 340.397 315.107 341.922 316.607 343.31C317.956 344.559 319.714 345.766 321.493 345.305C321.725 345.245 321.97 345.139 322.076 344.925C322.175 344.724 322.125 344.485 322.07 344.268C320.892 339.687 317.974 335.782 315.122 332.009C317.744 334.993 320.366 337.977 322.987 340.962C323.999 342.113 325.293 343.375 326.807 343.135C327.135 343.083 327.463 342.95 327.677 342.697C328.037 342.273 327.991 341.648 327.903 341.1Z" fill="#FFC9B0"/>
<path d="M212.2 330.49C215.319 327.552 217.558 324.366 219.391 320.959C215.322 310.199 211.919 297.815 211.919 297.815C211.919 297.815 190.575 298.541 181.711 311.168C181.711 310.932 189.021 328.703 195.076 341.943C201.38 340.307 207.945 334.496 212.2 330.49Z" fill="#FFC9B0"/>
<path opacity="0.3" d="M296.646 338.629C294.02 338.713 291.561 339.664 288.971 340.07C286.479 340.461 283.955 340.451 281.449 340.683C274.707 341.307 268.06 343.194 261.501 344.804C249.143 347.837 236.649 350.233 224.03 351.887C216.378 352.89 208.188 354.424 200.551 353.119C201.371 354.579 202.03 355.567 202.456 355.895C205.793 358.462 223.489 357.039 245.308 353.189C261.821 350.275 276.25 346.971 282.294 345.536C283.074 345.864 283.961 346.127 284.97 346.308C295.731 348.24 295.428 341.215 296.035 340.864L295.834 340.437C297.782 341.47 299.753 342.46 301.763 343.366C302.281 343.6 302.924 343.796 303.459 343.723C301.307 341.796 298.989 340.284 296.646 338.629Z" fill="#FFC9B0"/>
<path d="M222.629 318.745C221.292 315.535 211.167 286.774 207.841 276.123C206.093 270.506 204.016 264.794 200.151 260.259C197.412 257.028 189.376 249.503 180.977 257.295C180.533 257.706 180.103 258.145 179.688 258.585C179.227 259.094 178.795 259.618 178.39 260.157C172.258 268.156 171.247 280.05 171.925 290.269C172.053 292.279 172.312 294.25 172.671 296.21C174.935 308.791 179.779 324.713 185.327 336.585C195.767 337.033 215.355 328.931 222.629 318.745Z" fill="#C3262C"/>
<path opacity="0.2" d="M203.842 266.471C201.763 265.179 199.175 264.275 198.25 267.219C197.762 268.773 198.56 271.079 198.83 272.658C199.716 277.835 200.769 282.988 201.51 288.189C203.047 298.971 202.002 309.757 199.48 320.32C198.301 325.257 197.948 332.032 193.746 335.435C204.083 332.945 216.742 326.406 222.276 318.657C220.939 315.447 210.815 286.686 207.488 276.035C206.479 272.794 205.349 269.53 203.842 266.471Z" fill="#C3262C"/>
<path d="M219.174 308.003C217.932 304.455 216.753 300.885 215.492 297.345C214.216 293.809 213.022 290.245 211.712 286.72C210.44 283.182 209.148 279.653 207.84 276.123C208.792 279.766 209.893 283.365 211.028 286.952C212.133 290.549 213.386 294.095 214.576 297.663C215.779 301.226 217.091 304.752 218.361 308.292C218.99 310.064 219.688 311.812 220.358 313.569C221.026 315.295 221.682 317.02 222.434 318.722C221.688 319.839 220.836 320.888 219.934 321.897C220.963 320.969 221.915 319.95 222.767 318.844L222.819 318.777L222.786 318.679L219.174 308.003Z" fill="black"/>
<path d="M104.829 273.338C103.409 262.452 107.171 252.951 118.571 252.951C129.971 252.951 136.552 266.609 137.971 277.495C139.391 288.381 147.127 336.758 150.701 339.845C157.063 345.338 196.067 339.609 203.849 345.585C211.631 351.561 220.869 393.287 214.224 400.611C207.579 407.935 139.456 408.528 128.424 400.611C117.393 392.693 106.249 284.225 104.829 273.338Z" fill="#FFD245"/>
<path opacity="0.3" d="M203.851 345.585C196.069 339.609 157.065 345.338 150.703 339.845C147.128 336.758 139.392 288.382 137.973 277.495C136.744 268.066 131.639 256.565 122.888 253.653C124.884 256.773 126.342 260.647 126.954 262.43C129.856 270.884 131.751 279.966 132.781 288.847C134.545 304.065 132.252 318.994 130.267 334.038C129.012 343.545 126.96 357.638 116.758 361.255C120.342 381.361 124.392 397.716 128.427 400.612C139.46 408.529 207.582 407.936 214.227 400.612C220.871 393.287 211.633 351.561 203.851 345.585Z" fill="#FFD245"/>
<path d="M561.554 398.309H48.8086V423.576H561.554V398.309Z" fill="#001E49"/>
<path opacity="0.49" d="M583 398H49V413H583V398Z" fill="#001E49"/>
<path d="M583.072 361.174H26.6289V407.499H583.072V361.174Z" fill="#001E49"/>
<path opacity="0.3" d="M583.408 394.906H26.9648V407.402H583.408V394.906Z" fill="#001E49"/>
<g opacity="0.3">
<path d="M347.154 369.354C398.226 369.354 439.628 367.791 439.628 365.863C439.628 363.935 398.226 362.372 347.154 362.372C296.082 362.372 254.68 363.935 254.68 365.863C254.68 367.791 296.082 369.354 347.154 369.354Z" fill="#001E49"/>
<path d="M330.316 426.884C329.763 426.884 329.316 426.437 329.316 425.884V402.816C329.316 393.302 324.884 388.871 315.371 388.871C308.707 388.871 304.095 387.596 301.66 385.08C300.436 383.815 299.819 382.261 299.875 380.583C299.944 378.437 301.201 373.442 311.324 373.442C327.233 373.442 334.267 372.816 334.267 370.701C334.267 368.585 330.231 368.252 327.826 368.252H323.169C322.616 368.252 322.169 367.805 322.169 367.252C322.169 366.699 322.616 366.252 323.169 366.252H327.826C333.112 366.252 336.267 367.762 336.267 370.276C336.267 375.5 327.408 375.442 311.324 375.442C305.34 375.442 301.983 377.291 301.873 380.648C301.836 381.788 302.248 382.811 303.098 383.689C304.502 385.14 307.772 386.871 315.371 386.871C325.951 386.871 331.316 392.236 331.316 402.816V425.884C331.316 426.437 330.868 426.884 330.316 426.884Z" fill="#001E49"/>
</g>
<path d="M453.515 277.854H346.428C344.326 277.854 342.445 279.158 341.708 281.126L312.934 357.936H428.306L456.625 282.34C457.439 280.169 455.833 277.854 453.515 277.854Z" fill="#7CF7E8"/>
<path d="M432.216 357.937H261.82V365.927H432.216V357.937Z" fill="#7CF7E8"/>
<path opacity="0.32" d="M282.111 364.845C277.778 363.986 269.405 361.87 264.646 357.937H261.82V365.927H288.334C286.23 365.612 284.15 365.249 282.111 364.845Z" fill="#57D9CD"/>
<path d="M432.216 357.937H316.844V365.927H432.216V357.937Z" fill="#57D9CD"/>
<path d="M457.424 277.854H350.338C348.236 277.854 346.355 279.158 345.618 281.126L316.844 357.936H432.216L460.535 282.34C461.348 280.169 459.743 277.854 457.424 277.854Z" fill="#57D9CD"/>
<path opacity="0.22" d="M457.423 277.854H367.203C411.075 278.968 434.525 280.297 443.544 281.626C452.563 282.955 458.639 284.949 457.065 291.602L460.534 282.341C461.347 280.169 459.742 277.854 457.423 277.854Z" fill="#57D9CD"/>
<path opacity="0.32" d="M432.788 351.565C409.175 357.973 378.924 356.382 360.054 339.085C350.043 329.908 345.171 315.894 345.366 302.501C345.476 294.954 346.87 285.62 350.382 277.854H350.338C348.236 277.854 346.355 279.158 345.618 281.126L316.844 357.936H432.216L434.82 350.985C434.142 351.185 433.463 351.382 432.788 351.565Z" fill="#57D9CD"/>
<path d="M325.992 361.931C325.992 363.148 325.006 364.134 323.789 364.134C322.573 364.134 321.586 363.148 321.586 361.931C321.586 360.715 322.572 359.729 323.789 359.729C325.006 359.729 325.992 360.715 325.992 361.931Z" fill="#393B6B"/>
<path d="M325.262 361.931C325.262 362.745 324.602 363.404 323.789 363.404C322.976 363.404 322.316 362.744 322.316 361.931C322.316 361.117 322.976 360.458 323.789 360.458C324.602 360.458 325.262 361.118 325.262 361.931Z" fill="#001E49"/>
<path d="M331.191 425.574C330.638 425.574 330.191 425.127 330.191 424.574V401.506C330.191 391.992 325.759 387.561 316.246 387.561C309.582 387.561 304.97 386.286 302.535 383.77C301.311 382.505 300.694 380.951 300.75 379.273C300.819 377.127 302.076 372.132 312.199 372.132C328.108 372.132 335.142 371.927 335.142 367.06C335.142 363.507 331.106 362.977 328.701 362.977H324.044C323.491 362.977 323.044 362.53 323.044 361.977C323.044 361.424 323.491 360.977 324.044 360.977H328.701C333.987 360.977 337.142 363.251 337.142 367.06C337.142 374.132 328.283 374.132 312.199 374.132C306.215 374.132 302.858 375.981 302.748 379.338C302.711 380.478 303.123 381.501 303.973 382.379C305.377 383.83 308.647 385.561 316.246 385.561C326.826 385.561 332.191 390.926 332.191 401.506V424.574C332.191 425.127 331.744 425.574 331.191 425.574Z" fill="#FFD245"/>
<path d="M329.922 397.832C330.096 398.962 330.191 400.179 330.191 401.505V424.573C330.191 425.126 330.638 425.573 331.191 425.573C331.744 425.573 332.191 425.126 332.191 424.573V401.505C332.191 399.639 332.015 397.944 331.682 396.404C331.185 396.953 330.586 397.445 329.922 397.832Z" fill="#FFD245"/>
<path d="M373.27 315.161C370.875 323.547 362.998 330.029 355.676 329.638C348.354 329.247 344.359 322.132 346.753 313.746C349.147 305.36 357.025 298.878 364.347 299.269C371.669 299.659 375.664 306.775 373.27 315.161Z" fill="white"/>
<path opacity="0.43" d="M370.849 315.032C368.892 321.887 362.453 327.186 356.467 326.866C350.481 326.547 347.216 320.731 349.173 313.875C351.13 307.02 357.569 301.721 363.555 302.041C369.541 302.36 372.807 308.177 370.849 315.032Z" fill="#FB4F4F"/>
<path d="M389.519 321.537L364.742 334.087C363.644 334.643 362.557 334.074 362.313 332.816L360.725 324.625C360.481 323.367 361.173 321.897 362.271 321.341L387.048 308.791C388.146 308.235 389.233 308.804 389.477 310.062L391.065 318.253C391.308 319.511 390.616 320.981 389.519 321.537Z" fill="#393B6B"/>
<path d="M388.712 320.801L365.434 332.599C364.515 333.064 363.605 332.588 363.401 331.535L362.072 324.68C361.868 323.627 362.447 322.397 363.366 321.932L386.644 310.134C387.563 309.669 388.472 310.145 388.677 311.198L390.006 318.053C390.21 319.105 389.63 320.335 388.712 320.801Z" fill="#393B6B"/>
<path d="M387.571 314.598C387.304 314.094 386.485 314.209 386.351 314.757C386.136 315.637 386.279 316.542 386.087 317.433C386.021 317.741 385.941 318.478 385.694 318.669C385.317 318.961 384.673 318.629 384.259 318.534C382.609 318.156 381.555 318.71 380.458 319.927C380.03 320.402 379.781 320.545 379.16 320.3C378.832 320.171 378.547 320 378.199 319.906C377.416 319.694 376.568 319.713 375.789 319.935C374.512 320.299 373.365 321.207 372.643 322.333C372.435 322.18 372.228 322.035 372.033 321.905C370.688 321.013 368.963 320.403 367.434 321.227C364.609 322.749 363.815 327.915 366.716 329.741C367.45 330.203 368.092 329.069 367.39 328.588C365.94 327.596 366.236 325.142 367.034 323.839C368.12 322.067 369.82 322.474 371.291 323.529C371.534 323.703 371.742 323.896 371.941 324.095C371.764 325.044 371.876 326.065 372.593 326.723C373.651 327.694 375.127 326.655 374.936 325.334C374.833 324.624 374.42 323.981 373.894 323.419C373.931 323.354 373.959 323.284 373.999 323.221C374.855 321.886 376.575 320.923 378.133 321.608C379.316 322.128 380.121 322.538 381.201 321.518C381.719 321.029 382.102 320.297 382.814 320.074C383.529 319.85 384.318 320.277 385.04 320.375C386.332 320.55 387.014 319.914 387.436 318.749C387.892 317.499 388.223 315.825 387.571 314.598Z" fill="#001E49"/>
<path d="M366.449 313.31C364.601 313.682 362.655 312.714 361.511 311.216C360.367 309.719 359.93 307.782 359.895 305.898C359.976 310.285 356.733 314.252 353.219 316.399C354.83 315.813 356.154 316.187 357.373 316.745C358.592 317.303 359.488 318.413 360.054 319.628C360.62 320.843 360.891 322.17 361.158 323.484C361.06 321.463 361.388 319.403 362.268 317.581C363.148 315.759 364.621 314.178 366.449 313.31Z" fill="#FFD245"/>
<path opacity="0.3" d="M410.836 380.868C438.429 380.868 460.797 379.305 460.797 377.377C460.797 375.449 438.429 373.886 410.836 373.886C383.243 373.886 360.875 375.449 360.875 377.377C360.875 379.305 383.243 380.868 410.836 380.868Z" fill="#001E49"/>
<path d="M427.93 378.066V364.984H368.563C367.281 364.984 366.242 366.023 366.242 367.305V375.746C366.242 377.028 367.281 378.067 368.563 378.067L427.93 378.066Z" fill="#FFD245"/>
<path d="M415.587 364.984H375.082C374.422 367.813 374.054 375.083 375.342 378.066H415.548C414.885 373.72 415.003 369.561 415.587 364.984Z" fill="#FFD245"/>
<path d="M457.125 366.298V364.984H427.93V378.066H457.125V376.752H444.895V366.298H457.125Z" fill="#FFD245"/>
<path d="M457.125 366.298V364.984H427.93V378.066H457.125V376.752H444.895V366.298H457.125Z" fill="#FFD245"/>
<path d="M429.113 375.291V367.76C429.113 366.953 429.767 366.298 430.575 366.298H456.103V376.752H430.575C429.768 376.752 429.113 376.098 429.113 375.291Z" fill="#DFFAFF"/>
<path d="M425.286 365.289V352.207H365.919C364.637 352.207 363.598 353.246 363.598 354.528V362.969C363.598 364.251 364.637 365.29 365.919 365.29H425.286V365.289Z" fill="#FB4F4F"/>
<path d="M454.48 353.521V352.207H425.285V365.289H454.48V363.975H442.25V353.521H454.48Z" fill="#B92513"/>
<path d="M426.469 362.514V354.983C426.469 354.176 427.123 353.521 427.931 353.521H453.459V363.975H427.931C427.124 363.975 426.469 363.321 426.469 362.514Z" fill="#DFFAFF"/>
<path d="M369.729 365.42C369.017 365.42 368.441 364.843 368.441 364.132V353.181C368.441 352.469 369.018 351.893 369.729 351.893C370.44 351.893 371.017 352.47 371.017 353.181V364.132C371.017 364.844 370.44 365.42 369.729 365.42Z" fill="#B92513"/>
<path d="M419.788 365.42C419.077 365.42 418.5 364.843 418.5 364.132V353.181C418.5 352.469 419.077 351.893 419.788 351.893C420.5 351.893 421.076 352.47 421.076 353.181V364.132C421.076 364.844 420.5 365.42 419.788 365.42Z" fill="#B92513"/>
<path opacity="0.3" d="M513.586 380.087C531.609 380.087 546.219 378.524 546.219 376.596C546.219 374.668 531.609 373.105 513.586 373.105C495.563 373.105 480.953 374.668 480.953 376.596C480.953 378.524 495.563 380.087 513.586 380.087Z" fill="#001E49"/>
<path d="M505.078 276.518L508.664 280.104L522.011 266.758L518.424 263.171L505.078 276.518Z" fill="#393B6B"/>
<path opacity="0.33" d="M506.863 278.314L508.656 280.108L522.003 266.761L520.21 264.968L506.863 278.314Z" fill="#393B6B"/>
<path d="M509.168 261.569L505.582 265.156L556.442 316.016L560.029 312.429L509.168 261.569Z" fill="#393B6B"/>
<path opacity="0.33" d="M509.169 261.569L507.621 263.117L558.481 313.977L560.029 312.43L509.169 261.569Z" fill="#393B6B"/>
<path d="M560.727 317.479L557.141 313.893L506.28 364.753L509.867 368.339L560.727 317.479Z" fill="#393B6B"/>
<path opacity="0.33" d="M560.701 317.486L559.262 316.046L508.401 366.906L509.841 368.346L560.701 317.486Z" fill="#393B6B"/>
<path d="M563.242 314.38C563.242 317.181 560.971 319.452 558.17 319.452C555.369 319.452 553.098 317.181 553.098 314.38C553.098 311.579 555.369 309.308 558.17 309.308C560.971 309.308 563.242 311.579 563.242 314.38Z" fill="#393B6B"/>
<path opacity="0.33" d="M562.141 311.258C562.151 314.422 559.927 316.817 557.095 318.05C556.553 318.286 555.965 318.476 555.367 318.602C556.171 319.137 557.133 319.451 558.171 319.451C560.972 319.451 563.243 317.18 563.243 314.379C563.243 313.196 562.821 312.121 562.141 311.258Z" fill="#393B6B"/>
<path d="M561.041 314.38C561.041 315.965 559.756 317.25 558.171 317.25C556.586 317.25 555.301 315.965 555.301 314.38C555.301 312.795 556.586 311.51 558.171 311.51C559.756 311.51 561.041 312.795 561.041 314.38Z" fill="#001E49"/>
<path d="M519.39 270.729C519.39 273.53 517.119 275.801 514.318 275.801C511.517 275.801 509.246 273.53 509.246 270.729C509.246 267.928 511.517 265.657 514.318 265.657C517.12 265.657 519.39 267.928 519.39 270.729Z" fill="#393B6B"/>
<path opacity="0.33" d="M518.29 267.607C518.3 270.771 516.076 273.166 513.244 274.399C512.702 274.635 512.114 274.825 511.516 274.951C512.32 275.486 513.282 275.8 514.32 275.8C517.121 275.8 519.392 273.529 519.392 270.728C519.392 269.545 518.97 268.47 518.29 267.607Z" fill="#393B6B"/>
<path d="M517.189 270.729C517.189 272.314 515.904 273.599 514.319 273.599C512.734 273.599 511.449 272.314 511.449 270.729C511.449 269.144 512.734 267.859 514.319 267.859C515.904 267.859 517.189 269.144 517.189 270.729Z" fill="#001E49"/>
<path d="M538.075 376.742H483.656V371.152C483.656 366.467 487.454 362.668 492.14 362.668H529.592C534.277 362.668 538.075 366.466 538.075 371.152V376.742Z" fill="#393B6B"/>
<path opacity="0.33" d="M534.311 364.103C531.378 366.496 527.523 368.335 524.846 369.39C518.24 371.993 511.243 373.355 504.201 374.117C500.123 374.559 495.935 374.969 491.828 374.944C489.029 374.927 486.354 374.477 483.656 374.046V376.743H538.075V371.153C538.075 368.214 536.581 365.625 534.311 364.103Z" fill="#393B6B"/>
<path opacity="0.5" d="M503.222 378.607L507.142 310.777L473.358 286.776L353.84 377.126C352.856 377.87 352.901 379.485 354.03 379.982C378.214 390.635 486.74 390.978 503.222 378.607Z" fill="white"/>
<path d="M469.867 286.989L508.048 313.636C508.048 313.636 523.067 283.389 505.867 273.789C488.667 264.189 469.867 286.989 469.867 286.989Z" fill="#393B6B"/>
<path opacity="0.33" d="M505.868 273.789C505.094 273.357 504.317 273.012 503.539 272.707C507.364 280.053 505.722 290.571 503.173 297.818C502.128 300.791 500.527 304.011 498.461 306.944L508.049 313.636C508.049 313.636 523.068 283.389 505.868 273.789Z" fill="#393B6B"/>
<path opacity="0.3" d="M112.914 378.872C137.4 378.872 157.25 377.309 157.25 375.381C157.25 373.453 137.4 371.89 112.914 371.89C88.428 371.89 68.5781 373.453 68.5781 375.381C68.5781 377.309 88.428 378.872 112.914 378.872Z" fill="#001E49"/>
<path d="M151.309 374.634H94.4648L84.4648 331.043H141.309L151.309 374.634Z" fill="#D0E7FF"/>
<path opacity="0.15" d="M141.124 369.066C138.334 359.421 139.313 347.611 142.887 337.917L141.31 331.043H84.4648L94.4648 374.634H143.15C142.329 372.768 141.649 370.882 141.124 369.066Z" fill="#001E49"/>
<path d="M141.297 331.043H84.4531L74.4531 375.779H131.297L141.297 331.043Z" fill="white"/>
<path opacity="0.15" d="M132.169 363.15C123.154 365.921 113.467 367.347 104.464 363.702C96.4401 360.453 90.1831 353.297 87.4361 345.144C86.1771 341.408 85.1151 335.737 85.9641 331.043H84.4531L74.4531 375.779H131.298L134.268 362.492C133.561 362.717 132.86 362.938 132.169 363.15Z" fill="#001E49"/>
<path d="M92 331.04H90.59C90.53 330.9 90.5 330.75 90.45 330.59C90.4 330.42 90.33 330.29 90.2 330.09C90.01 329.79 89.72 329.53 89.37 329.35C89.05 329.19 88.65 329.12 88.24 329.16C87.9 329.18 87.49 329.32 87.17 329.54C86.81 329.8 86.54 330.19 86.35 330.59C86.28 330.74 86.23 330.89 86.2 331.04C86.15 331.26 86.14 331.47 86.18 331.68C86.25 332.07 86.42 332.41 86.67 332.73C86.78 332.88 86.93 332.99 87.06 333.12C87.2 333.26 87.41 333.41 87.44 333.61C87.46 333.72 87.45 333.87 87.35 333.95C86.91 334.3 86.28 333.91 85.91 333.61C85.51 333.28 85.23 332.84 85.04 332.36C84.87 331.93 84.82 331.48 84.87 331.04C85.02 329.51 86.32 328.07 87.83 327.78C88.88 327.58 89.93 327.83 90.77 328.5C91.13 328.79 91.45 329.16 91.67 329.57C91.92 330.01 92.15 330.55 92 331.04Z" fill="#393B6B"/>
<path d="M100.828 331.04H99.4181C99.3581 330.9 99.3281 330.75 99.2781 330.59C99.2281 330.42 99.1581 330.29 99.0281 330.09C98.8381 329.79 98.5481 329.53 98.1981 329.35C97.8781 329.19 97.4781 329.12 97.0681 329.16C96.7281 329.18 96.3181 329.32 95.9981 329.54C95.6381 329.8 95.3681 330.19 95.1781 330.59C95.1081 330.74 95.0581 330.89 95.0281 331.04C94.9781 331.26 94.9681 331.47 95.0081 331.68C95.0781 332.07 95.2481 332.41 95.4981 332.73C95.6081 332.88 95.7581 332.99 95.8881 333.12C96.0281 333.26 96.2381 333.41 96.2681 333.61C96.2881 333.72 96.2781 333.87 96.1781 333.95C95.7381 334.3 95.1081 333.91 94.7381 333.61C94.3381 333.28 94.0581 332.84 93.8681 332.36C93.6981 331.93 93.6481 331.48 93.6981 331.04C93.8481 329.51 95.1481 328.07 96.6581 327.78C97.7081 327.58 98.7581 327.83 99.5981 328.5C99.9581 328.79 100.278 329.16 100.498 329.57C100.748 330.01 100.978 330.55 100.828 331.04Z" fill="#393B6B"/>
<path d="M109.656 331.04H108.246C108.186 330.9 108.156 330.75 108.106 330.59C108.056 330.42 107.986 330.29 107.856 330.09C107.666 329.79 107.376 329.53 107.026 329.35C106.706 329.19 106.306 329.12 105.896 329.16C105.556 329.18 105.146 329.32 104.826 329.54C104.466 329.8 104.196 330.19 104.006 330.59C103.936 330.74 103.886 330.89 103.856 331.04C103.806 331.26 103.796 331.47 103.836 331.68C103.906 332.07 104.076 332.41 104.326 332.73C104.436 332.88 104.586 332.99 104.716 333.12C104.856 333.26 105.066 333.41 105.096 333.61C105.116 333.72 105.106 333.87 105.006 333.95C104.566 334.3 103.936 333.91 103.566 333.61C103.166 333.28 102.886 332.84 102.696 332.36C102.526 331.93 102.476 331.48 102.526 331.04C102.676 329.51 103.976 328.07 105.486 327.78C106.536 327.58 107.586 327.83 108.426 328.5C108.786 328.79 109.106 329.16 109.326 329.57C109.576 330.01 109.806 330.55 109.656 331.04Z" fill="#393B6B"/>
<path d="M118.48 331.04H117.07C117.01 330.9 116.98 330.75 116.93 330.59C116.88 330.42 116.81 330.29 116.68 330.09C116.49 329.79 116.2 329.53 115.85 329.35C115.53 329.19 115.13 329.12 114.72 329.16C114.38 329.18 113.97 329.32 113.65 329.54C113.29 329.8 113.02 330.19 112.83 330.59C112.76 330.74 112.71 330.89 112.68 331.04C112.63 331.26 112.62 331.47 112.66 331.68C112.73 332.07 112.9 332.41 113.15 332.73C113.26 332.88 113.41 332.99 113.54 333.12C113.68 333.26 113.89 333.41 113.92 333.61C113.94 333.72 113.93 333.87 113.83 333.95C113.39 334.3 112.76 333.91 112.39 333.61C111.99 333.28 111.71 332.84 111.52 332.36C111.35 331.93 111.3 331.48 111.35 331.04C111.5 329.51 112.8 328.07 114.31 327.78C115.36 327.58 116.41 327.83 117.25 328.5C117.61 328.79 117.93 329.16 118.15 329.57C118.4 330.01 118.63 330.55 118.48 331.04Z" fill="#393B6B"/>
<path d="M127.309 331.04H125.899C125.839 330.9 125.809 330.75 125.759 330.59C125.709 330.42 125.639 330.29 125.509 330.09C125.319 329.79 125.029 329.53 124.679 329.35C124.359 329.19 123.959 329.12 123.549 329.16C123.209 329.18 122.799 329.32 122.479 329.54C122.119 329.8 121.849 330.19 121.659 330.59C121.589 330.74 121.539 330.89 121.509 331.04C121.459 331.26 121.449 331.47 121.489 331.68C121.559 332.07 121.729 332.41 121.979 332.73C122.089 332.88 122.239 332.99 122.369 333.12C122.509 333.26 122.719 333.41 122.749 333.61C122.769 333.72 122.759 333.87 122.659 333.95C122.219 334.3 121.589 333.91 121.219 333.61C120.819 333.28 120.539 332.84 120.349 332.36C120.179 331.93 120.129 331.48 120.179 331.04C120.329 329.51 121.629 328.07 123.139 327.78C124.189 327.58 125.239 327.83 126.079 328.5C126.439 328.79 126.759 329.16 126.979 329.57C127.229 330.01 127.459 330.55 127.309 331.04Z" fill="#393B6B"/>
<path d="M136.137 331.04H134.727C134.667 330.9 134.637 330.75 134.587 330.59C134.537 330.42 134.467 330.29 134.337 330.09C134.147 329.79 133.857 329.53 133.507 329.35C133.187 329.19 132.787 329.12 132.377 329.16C132.037 329.18 131.627 329.32 131.307 329.54C130.947 329.8 130.677 330.19 130.487 330.59C130.417 330.74 130.367 330.89 130.337 331.04C130.287 331.26 130.277 331.47 130.317 331.68C130.387 332.07 130.557 332.41 130.807 332.73C130.917 332.88 131.067 332.99 131.197 333.12C131.337 333.26 131.547 333.41 131.577 333.61C131.597 333.72 131.587 333.87 131.487 333.95C131.047 334.3 130.417 333.91 130.047 333.61C129.647 333.28 129.367 332.84 129.177 332.36C129.007 331.93 128.957 331.48 129.007 331.04C129.157 329.51 130.457 328.07 131.967 327.78C133.017 327.58 134.067 327.83 134.907 328.5C135.267 328.79 135.587 329.16 135.807 329.57C136.057 330.01 136.287 330.55 136.137 331.04Z" fill="#393B6B"/>
<path opacity="0.3" d="M163.977 384.12C176.112 384.12 185.95 382.557 185.95 380.629C185.95 378.701 176.112 377.138 163.977 377.138C151.842 377.138 142.004 378.701 142.004 380.629C142.004 382.557 151.842 384.12 163.977 384.12Z" fill="#001E49"/>
<path d="M169.478 322.663H158.475C153.654 322.663 149.746 326.571 149.746 331.392V378.11C149.746 379.716 151.048 381.018 152.654 381.018H175.3C176.906 381.018 178.208 379.716 178.208 378.11V331.392C178.208 326.571 174.3 322.663 169.478 322.663Z" fill="#57D9CD"/>
<path opacity="0.32" d="M177.588 328.174C177.525 330.353 177.394 332.43 177.255 334.298C176.512 344.233 174.639 355.147 168.086 363.04C163.567 368.483 155.445 372.592 150.181 365.84C150.028 365.643 149.889 365.433 149.746 365.227V378.111C149.746 379.717 151.048 381.019 152.654 381.019H175.3C176.906 381.019 178.208 379.717 178.208 378.111V331.393C178.208 330.254 177.984 329.171 177.588 328.174Z" fill="#57D9CD"/>
<path d="M171.789 314.586H170.777V311.545C170.777 310.782 170.158 310.163 169.395 310.163H158.553C157.79 310.163 157.171 310.781 157.171 311.545V314.586H156.159C155.396 314.586 154.777 315.204 154.777 315.968V321.796C154.777 322.559 155.396 323.178 156.159 323.178H171.788C172.551 323.178 173.17 322.559 173.17 321.796V315.968C173.171 315.205 172.552 314.586 171.789 314.586Z" fill="#393B6B"/>
<path opacity="0.33" d="M171.792 314.586H170.78V311.546C170.78 310.783 170.161 310.164 169.398 310.164H167.001C167.042 313.448 166.126 316.831 164.615 318.895C163.552 320.347 162.082 321.983 160.383 323.177H171.792C172.555 323.177 173.174 322.558 173.174 321.795V315.967C173.174 315.205 172.555 314.586 171.792 314.586Z" fill="#393B6B"/>
<path d="M153.661 328.283C152.832 329.61 152.958 332.03 153.594 332.103C153.982 332.147 154.041 330.938 154.371 329.825C154.582 329.113 154.697 328.556 154.959 327.897C155.22 327.239 154.314 327.236 153.661 328.283Z" fill="#57D9CD"/>
<path d="M152.596 337.8C152.685 337.036 152.794 336.28 152.92 335.538C152.991 335.121 153.078 334.697 153.298 334.336C153.37 334.218 153.471 334.099 153.609 334.083C154.148 334.021 154.009 336.457 154.013 336.784C154.037 338.782 154.032 340.781 154.04 342.78C154.048 344.781 154.041 346.746 153.615 348.712C153.551 349.006 153.095 348.999 153.027 348.712C152.202 345.228 152.174 341.418 152.596 337.8Z" fill="#57D9CD"/>
<path d="M177.989 372.655C178.47 372.655 178.86 373.045 178.86 373.526C178.86 374.007 178.47 374.397 177.989 374.397H150.203C149.722 374.397 149.332 374.007 149.332 373.526C149.332 373.045 149.722 372.655 150.203 372.655" fill="#393B6B"/>
<path d="M127.973 193.11C139.064 174.362 132.857 150.173 114.11 139.082C95.3624 127.991 71.1735 134.198 60.0824 152.945C48.9912 171.692 55.1978 195.881 73.9451 206.973C92.6925 218.064 116.881 211.857 127.973 193.11Z" fill="#83ACA4"/>
<path d="M120.796 188.76C120.796 190.707 119.217 192.287 117.269 192.287H70.695C68.747 192.287 67.168 190.707 67.168 188.76V157.278C67.168 155.329 68.747 153.749 70.695 153.749H117.269C119.217 153.749 120.796 155.329 120.796 157.278V188.76Z" fill="#FFD245"/>
<path d="M92.6026 176.059C91.5686 176.059 90.6306 175.909 89.7846 175.645L70.3086 192.288H73.6506L92.6266 176.058C92.6176 176.057 92.6106 176.059 92.6026 176.059Z" fill="#7DAFA5"/>
<path d="M96.7362 175.092C96.0302 175.461 95.2422 175.736 94.3672 175.897L113.537 192.288H116.88L96.7362 175.092Z" fill="#7DAFA5"/>
<path d="M93.982 180.184L120.796 157.994V157.172C120.796 155.795 119.999 154.615 118.849 154.033L93.982 174.609L69.115 154.033C67.965 154.615 67.168 155.795 67.168 157.172V157.994L93.982 180.184Z" fill="#6C998F"/>
<path opacity="0.1" d="M93.9807 133.579C93.7837 133.579 93.5876 133.591 93.3906 133.595V212.443C93.5876 212.447 93.7837 212.459 93.9807 212.459C115.762 212.459 133.42 194.801 133.42 173.019C133.421 151.237 115.763 133.579 93.9807 133.579Z" fill="black"/>
<path d="M250.407 41.07C250.407 63.753 232.018 82.14 209.336 82.14C186.653 82.14 168.266 63.752 168.266 41.07C168.266 18.388 186.654 4.07855e-08 209.336 4.07855e-08C232.019 -0.000999959 250.407 18.387 250.407 41.07Z" fill="#83ACA4"/>
<path opacity="0.1" d="M210.293 0.0240479V82.1161C232.531 81.6051 250.406 63.4311 250.406 41.0701C250.406 18.7091 232.531 0.535048 210.293 0.0240479Z" fill="black"/>
<path d="M160 61.33L193.134 28.195L219.637 54.698L249.648 24.687" stroke="#FFD245" stroke-width="7.8823" stroke-miterlimit="10"/>
<path d="M254.957 34.386L260.448 13.889L239.949 19.379L254.957 34.386Z" fill="#E6BD3E"/>
<path d="M351.054 114.527C351.054 129.728 338.729 142.052 323.527 142.052C308.324 142.052 296 129.728 296 114.527C296 99.324 308.325 87 323.527 87C338.73 87 351.054 99.324 351.054 114.527Z" fill="#91BFB6"/>
<path d="M337.886 107.992C337.886 115.922 323.529 136.552 323.529 136.552C323.529 136.552 309.172 115.921 309.172 107.992C309.172 100.063 315.6 93.6349 323.529 93.6349C331.458 93.6349 337.886 100.062 337.886 107.992Z" fill="#FFD245"/>
<path d="M330.315 109.621C330.315 113.369 327.276 116.406 323.529 116.406C319.781 116.406 316.742 113.369 316.742 109.621C316.742 105.873 319.78 102.834 323.529 102.834C327.276 102.834 330.315 105.873 330.315 109.621Z" fill="#F2F2F2"/>
<path opacity="0.1" d="M324.109 87.014V142.039C339.042 141.728 351.054 129.533 351.054 114.527C351.053 99.517 339.041 87.326 324.109 87.014Z" fill="black"/>
<path d="M407.075 211.817C412.698 226.218 405.584 242.451 391.183 248.075C376.782 253.699 360.549 246.584 354.926 232.184C349.301 217.783 356.416 201.55 370.817 195.926C385.218 190.301 401.451 197.416 407.075 211.817Z" fill="#91BFB6"/>
<path d="M403.341 233.333C403.799 234.505 403.219 235.826 402.047 236.284L375.201 246.768C374.029 247.226 372.708 246.647 372.25 245.474L358.657 210.667C358.199 209.495 358.778 208.174 359.95 207.716L386.797 197.232C387.969 196.774 389.291 197.354 389.748 198.526L403.341 233.333Z" fill="#999999"/>
<path d="M399.198 231.233C399.571 232.188 399.099 233.264 398.144 233.637L376.274 242.178C375.319 242.551 374.242 242.079 373.869 241.124L362.796 212.768C362.423 211.813 362.895 210.737 363.849 210.364L385.72 201.823C386.674 201.45 387.751 201.922 388.124 202.876L399.198 231.233Z" fill="white"/>
<path d="M383.973 202.506C384.491 203.832 380.799 206.514 375.726 208.495C370.654 210.476 366.121 211.006 365.603 209.68C365.085 208.352 368.777 205.671 373.85 203.69C378.922 201.709 383.454 201.179 383.973 202.506Z" fill="#473435"/>
<path d="M371.946 198.825C369.931 199.612 368.936 201.884 369.723 203.899C370.51 205.914 372.781 206.91 374.796 206.122C376.812 205.335 377.808 203.064 377.021 201.048C376.233 199.034 373.962 198.038 371.946 198.825ZM374.283 204.809C372.994 205.312 371.54 204.675 371.037 203.386C370.534 202.097 371.171 200.643 372.46 200.14C373.75 199.636 375.203 200.273 375.707 201.562C376.21 202.852 375.573 204.305 374.283 204.809Z" fill="#473435"/>
<path d="M371.377 215.342C371.737 216.265 371.281 217.304 370.359 217.664C369.437 218.025 368.398 217.569 368.037 216.647C367.677 215.725 368.133 214.685 369.055 214.325C369.977 213.964 371.017 214.42 371.377 215.342Z" fill="#6694DD"/>
<path d="M374.905 224.38C375.265 225.302 374.809 226.342 373.887 226.702C372.964 227.062 371.925 226.606 371.565 225.684C371.204 224.762 371.66 223.722 372.582 223.362C373.505 223.002 374.544 223.457 374.905 224.38Z" fill="#6694DD"/>
<path d="M378.643 233.948C379.003 234.87 378.547 235.91 377.625 236.27C376.703 236.63 375.663 236.174 375.303 235.252C374.943 234.329 375.399 233.29 376.32 232.93C377.243 232.57 378.282 233.025 378.643 233.948Z" fill="#6694DD"/>
<path d="M387.209 208.253L372.945 213.824L373.496 215.235L387.76 209.664L387.209 208.253Z" fill="#CCCCCC"/>
<path d="M390.771 217.368L376.508 222.939L377.059 224.35L391.322 218.78L390.771 217.368Z" fill="#CCCCCC"/>
<path d="M394.505 226.936L380.242 232.507L380.793 233.918L395.057 228.348L394.505 226.936Z" fill="#CCCCCC"/>
<path opacity="0.1" d="M370.816 195.926C370.786 195.937 370.757 195.951 370.727 195.963L391.091 248.108C391.122 248.096 391.152 248.087 391.183 248.075C405.584 242.45 412.698 226.218 407.074 211.817C401.451 197.416 385.218 190.301 370.816 195.926Z" fill="black"/>
</svg>
