<svg width="33" height="32" viewBox="0 0 33 32" fill="none" xmlns="http://www.w3.org/2000/svg">
<g clip-path="url(#clip0_49_4184)">
<path d="M32.0739 16.2994C32.0739 14.9884 31.9675 14.0317 31.7373 13.0396H16.7667V18.9569H25.5541C25.377 20.4274 24.4203 22.642 22.2942 24.1301L22.2644 24.3282L26.9979 27.9952L27.3258 28.0279C30.3376 25.2463 32.0739 21.1537 32.0739 16.2994Z" fill="#4285F4"/>
<path d="M16.7666 31.8901C21.0717 31.8901 24.6859 30.4727 27.3258 28.0279L22.2942 24.1301C20.9478 25.0691 19.1406 25.7246 16.7666 25.7246C12.5501 25.7246 8.97135 22.9432 7.69562 19.0986L7.50863 19.1145L2.58674 22.9236L2.52237 23.1025C5.14441 28.3112 10.5303 31.8901 16.7666 31.8901Z" fill="#34A853"/>
<path d="M7.69564 19.0987C7.35903 18.1066 7.16422 17.0435 7.16422 15.9451C7.16422 14.8466 7.35903 13.7837 7.67793 12.7915L7.66901 12.5803L2.68544 8.70996L2.52239 8.78752C1.44172 10.949 0.821625 13.3762 0.821625 15.9451C0.821625 18.5141 1.44172 20.9412 2.52239 23.1026L7.69564 19.0987Z" fill="#FBBC05"/>
<path d="M16.7666 6.16537C19.7607 6.16537 21.7804 7.45869 22.932 8.53948L27.432 4.14571C24.6683 1.57679 21.0717 0 16.7666 0C10.5303 0 5.14442 3.57875 2.52237 8.78742L7.67791 12.7915C8.97135 8.94693 12.5501 6.16537 16.7666 6.16537Z" fill="#EB4335"/>
</g>
<defs>
<clipPath id="clip0_49_4184">
<rect width="32" height="32" fill="white" transform="translate(0.5)"/>
</clipPath>
</defs>
</svg>
