<svg width="17" height="16" viewBox="0 0 17 16" fill="none" xmlns="http://www.w3.org/2000/svg">
<path d="M11.6034 14.7332H9.07003C8.6967 14.7332 7.88336 14.6198 7.45003 14.1865L5.43003 12.6265L6.04336 11.8332L8.11003 13.4332C8.2767 13.5932 8.6967 13.7265 9.07003 13.7265H11.6034C12.2034 13.7265 12.85 13.2465 12.9834 12.7065L14.5967 7.8065C14.7034 7.51316 14.6834 7.2465 14.5434 7.05316C14.3967 6.8465 14.13 6.7265 13.8034 6.7265H11.1367C10.79 6.7265 10.47 6.57983 10.25 6.3265C10.0234 6.0665 9.92336 5.71983 9.9767 5.35983L10.31 3.21983C10.39 2.8465 10.1367 2.4265 9.7767 2.3065C9.45003 2.1865 9.03003 2.35983 8.88336 2.57316L6.15003 6.63983L5.32336 6.0865L8.0567 2.01983C8.4767 1.39316 9.3967 1.09316 10.1167 1.3665C10.95 1.63983 11.4834 2.55983 11.2967 3.41316L10.97 5.51316C10.9634 5.55983 10.9634 5.6265 11.01 5.67983C11.0434 5.71316 11.09 5.73316 11.1434 5.73316H13.81C14.4634 5.73316 15.03 6.0065 15.3634 6.47983C15.69 6.93983 15.7567 7.5465 15.5434 8.13316L13.95 12.9865C13.7034 13.9532 12.6767 14.7332 11.6034 14.7332Z" fill="#001E49"/>
<path d="M4.33667 13.9998H3.67C2.43667 13.9998 1.83667 13.4198 1.83667 12.2331V5.69977C1.83667 4.51311 2.43667 3.93311 3.67 3.93311H4.33667C5.57 3.93311 6.17 4.51311 6.17 5.69977V12.2331C6.17 13.4198 5.57 13.9998 4.33667 13.9998ZM3.67 4.93311C2.94334 4.93311 2.83667 5.10644 2.83667 5.69977V12.2331C2.83667 12.8264 2.94334 12.9998 3.67 12.9998H4.33667C5.06334 12.9998 5.17 12.8264 5.17 12.2331V5.69977C5.17 5.10644 5.06334 4.93311 4.33667 4.93311H3.67Z" fill="#001E49"/>
</svg>
