<svg width="201" height="150" viewBox="0 0 201 150" fill="none" xmlns="http://www.w3.org/2000/svg">
<g clip-path="url(#clip0_244_52698)">
<path d="M51.8253 93.126H16.804V120.137H51.8253V93.126Z" fill="white"/>
<path d="M51.8253 93.126H16.804V120.137H51.8253V93.126Z" fill="#2C363F" fill-opacity="0.2"/>
<path d="M43.052 119.945C43.012 119.945 42.98 113.926 42.98 106.499C42.98 99.0726 43.012 93.0513 43.052 93.0513C43.092 93.0513 43.1213 99.0726 43.1213 106.499C43.1213 113.926 43.0893 119.945 43.052 119.945Z" fill="white"/>
<path d="M43.052 119.945C43.012 119.945 42.98 113.926 42.98 106.499C42.98 99.0726 43.012 93.0513 43.052 93.0513C43.092 93.0513 43.1213 99.0726 43.1213 106.499C43.1213 113.926 43.0893 119.945 43.052 119.945Z" fill="#2C363F" fill-opacity="0.2"/>
<path d="M48.8573 113.987H46.172V117.022H48.8573V113.987Z" fill="white"/>
<path d="M48.8573 113.987H46.172V117.022H48.8573V113.987Z" fill="#2C363F" fill-opacity="0.2"/>
<path d="M31.468 93.1953H27.4894V98.958H31.468V93.1953Z" fill="white"/>
<path d="M31.468 93.1953H27.4894V98.958H31.468V93.1953Z" fill="#2C363F" fill-opacity="0.2"/>
<path d="M31.468 114.291H27.4894V120.054H31.468V114.291Z" fill="white"/>
<path d="M31.468 114.291H27.4894V120.054H31.468V114.291Z" fill="#2C363F" fill-opacity="0.2"/>
<path d="M57.3027 66.1763H22.2814V93.1869H57.3027V66.1763Z" fill="white"/>
<path d="M57.3027 66.1763H22.2814V93.1869H57.3027V66.1763Z" fill="#2C363F" fill-opacity="0.2"/>
<path d="M48.5266 92.9952C48.4893 92.9952 48.4573 86.9765 48.4573 79.5498C48.4573 72.1232 48.4893 66.1045 48.5266 66.1045C48.5639 66.1045 48.5959 72.1232 48.5959 79.5498C48.5959 86.9765 48.5666 92.9952 48.5266 92.9952Z" fill="white"/>
<path d="M48.5266 92.9952C48.4893 92.9952 48.4573 86.9765 48.4573 79.5498C48.4573 72.1232 48.4893 66.1045 48.5266 66.1045C48.5639 66.1045 48.5959 72.1232 48.5959 79.5498C48.5959 86.9765 48.5666 92.9952 48.5266 92.9952Z" fill="#2C363F" fill-opacity="0.2"/>
<path d="M54.3321 87.0376H51.6467V90.0723H54.3321V87.0376Z" fill="white"/>
<path d="M54.3321 87.0376H51.6467V90.0723H54.3321V87.0376Z" fill="#2C363F" fill-opacity="0.2"/>
<path d="M36.9427 66.2456H32.964V72.0083H36.9427V66.2456Z" fill="white"/>
<path d="M36.9427 66.2456H32.964V72.0083H36.9427V66.2456Z" fill="#2C363F" fill-opacity="0.2"/>
<path d="M36.9427 87.3442H32.964V93.1069H36.9427V87.3442Z" fill="white"/>
<path d="M36.9427 87.3442H32.964V93.1069H36.9427V87.3442Z" fill="#2C363F" fill-opacity="0.2"/>
<path d="M54.8946 44.5283H26.7346V66.2457H54.8946V44.5283Z" fill="#F5F5F5"/>
<path d="M47.8387 66.0937C47.8094 66.0937 47.7827 61.2511 47.7827 55.2804C47.7827 49.3097 47.8094 44.4697 47.8387 44.4697C47.868 44.4697 47.8947 49.3097 47.8947 55.2804C47.8947 61.2511 47.8707 66.0937 47.8387 66.0937Z" fill="white"/>
<path d="M47.8387 66.0937C47.8094 66.0937 47.7827 61.2511 47.7827 55.2804C47.7827 49.3097 47.8094 44.4697 47.8387 44.4697C47.868 44.4697 47.8947 49.3097 47.8947 55.2804C47.8947 61.2511 47.8707 66.0937 47.8387 66.0937Z" fill="#2C363F" fill-opacity="0.2"/>
<path d="M52.508 61.3018H50.348V63.7418H52.508V61.3018Z" fill="white"/>
<path d="M52.508 61.3018H50.348V63.7418H52.508V61.3018Z" fill="#2C363F" fill-opacity="0.2"/>
<path d="M38.524 44.5845H35.3267V49.2191H38.524V44.5845Z" fill="white"/>
<path d="M38.524 44.5845H35.3267V49.2191H38.524V44.5845Z" fill="#2C363F" fill-opacity="0.2"/>
<path d="M38.524 61.5469H35.3267V66.1815H38.524V61.5469Z" fill="white"/>
<path d="M38.524 61.5469H35.3267V66.1815H38.524V61.5469Z" fill="#2C363F" fill-opacity="0.2"/>
<path d="M180.596 59.606H154.145V80.006H180.596V59.606Z" fill="#F5F5F5"/>
<path d="M173.969 79.8642C173.94 79.8642 173.916 75.3149 173.916 69.7069C173.916 64.0989 173.94 59.5522 173.969 59.5522C173.999 59.5522 174.02 64.0989 174.02 69.7069C174.02 75.3149 173.999 79.8642 173.969 79.8642Z" fill="white"/>
<path d="M173.969 79.8642C173.94 79.8642 173.916 75.3149 173.916 69.7069C173.916 64.0989 173.94 59.5522 173.969 59.5522C173.999 59.5522 174.02 64.0989 174.02 69.7069C174.02 75.3149 173.999 79.8642 173.969 79.8642Z" fill="#2C363F" fill-opacity="0.2"/>
<path d="M178.351 75.3633H176.324V77.6566H178.351V75.3633Z" fill="white"/>
<path d="M178.351 75.3633H176.324V77.6566H178.351V75.3633Z" fill="#2C363F" fill-opacity="0.2"/>
<path d="M165.22 59.6592H162.215V64.0112H165.22V59.6592Z" fill="white"/>
<path d="M165.22 59.6592H162.215V64.0112H165.22V59.6592Z" fill="#2C363F" fill-opacity="0.2"/>
<path d="M165.22 75.5952H162.215V79.9472H165.22V75.5952Z" fill="white"/>
<path d="M165.22 75.5952H162.215V79.9472H165.22V75.5952Z" fill="#2C363F" fill-opacity="0.2"/>
<path d="M189.46 103.462H158.975V126.977H189.46V103.462Z" fill="white"/>
<path d="M189.46 103.462H158.975V126.977H189.46V103.462Z" fill="#2C363F" fill-opacity="0.2"/>
<path d="M181.833 126.809C181.801 126.809 181.775 121.569 181.775 115.105C181.775 108.641 181.801 103.398 181.833 103.398C181.865 103.398 181.895 108.638 181.895 115.105C181.895 121.571 181.857 126.809 181.833 126.809Z" fill="white"/>
<path d="M181.833 126.809C181.801 126.809 181.775 121.569 181.775 115.105C181.775 108.641 181.801 103.398 181.833 103.398C181.865 103.398 181.895 108.638 181.895 115.105C181.895 121.571 181.857 126.809 181.833 126.809Z" fill="#2C363F" fill-opacity="0.2"/>
<path d="M186.876 121.622H184.54V124.264H186.876V121.622Z" fill="white"/>
<path d="M186.876 121.622H184.54V124.264H186.876V121.622Z" fill="#2C363F" fill-opacity="0.2"/>
<path d="M171.74 103.521H168.276V108.537H171.74V103.521Z" fill="white"/>
<path d="M171.74 103.521H168.276V108.537H171.74V103.521Z" fill="#2C363F" fill-opacity="0.2"/>
<path d="M171.74 121.888H168.276V126.904H171.74V121.888Z" fill="white"/>
<path d="M171.74 121.888H168.276V126.904H171.74V121.888Z" fill="#2C363F" fill-opacity="0.2"/>
<path d="M185.249 80.0083H154.764V103.523H185.249V80.0083Z" fill="white"/>
<path d="M185.249 80.0083H154.764V103.523H185.249V80.0083Z" fill="#2C363F" fill-opacity="0.2"/>
<path d="M177.612 103.355C177.577 103.355 177.551 98.115 177.551 91.651C177.551 85.187 177.577 79.9443 177.612 79.9443C177.647 79.9443 177.673 85.1843 177.673 91.651C177.673 98.1177 177.647 103.355 177.612 103.355Z" fill="white"/>
<path d="M177.612 103.355C177.577 103.355 177.551 98.115 177.551 91.651C177.551 85.187 177.577 79.9443 177.612 79.9443C177.647 79.9443 177.673 85.1843 177.673 91.651C177.673 98.1177 177.647 103.355 177.612 103.355Z" fill="#2C363F" fill-opacity="0.2"/>
<path d="M182.665 98.1685H180.329V100.811H182.665V98.1685Z" fill="white"/>
<path d="M182.665 98.1685H180.329V100.811H182.665V98.1685Z" fill="#2C363F" fill-opacity="0.2"/>
<path d="M167.529 80.0669H164.065V85.0829H167.529V80.0669Z" fill="white"/>
<path d="M167.529 80.0669H164.065V85.0829H167.529V80.0669Z" fill="#2C363F" fill-opacity="0.2"/>
<path d="M167.529 98.4351H164.065V103.451H167.529V98.4351Z" fill="white"/>
<path d="M167.529 98.4351H164.065V103.451H167.529V98.4351Z" fill="#2C363F" fill-opacity="0.2"/>
<path d="M129.025 59.9336H102.575V80.3336H129.025V59.9336Z" fill="#F5F5F5"/>
<path d="M122.399 80.1924C122.369 80.1924 122.348 75.643 122.348 70.035C122.348 64.427 122.369 59.8804 122.399 59.8804C122.428 59.8804 122.452 64.4137 122.452 70.035C122.452 75.6564 122.428 80.1924 122.399 80.1924Z" fill="white"/>
<path d="M122.399 80.1924C122.369 80.1924 122.348 75.643 122.348 70.035C122.348 64.427 122.369 59.8804 122.399 59.8804C122.428 59.8804 122.452 64.4137 122.452 70.035C122.452 75.6564 122.428 80.1924 122.399 80.1924Z" fill="#2C363F" fill-opacity="0.2"/>
<path d="M126.783 75.6909H124.756V77.9843H126.783V75.6909Z" fill="white"/>
<path d="M126.783 75.6909H124.756V77.9843H126.783V75.6909Z" fill="#2C363F" fill-opacity="0.2"/>
<path d="M113.649 59.9873H110.644V64.3393H113.649V59.9873Z" fill="white"/>
<path d="M113.649 59.9873H110.644V64.3393H113.649V59.9873Z" fill="#2C363F" fill-opacity="0.2"/>
<path d="M113.649 75.9229H110.644V80.2748H113.649V75.9229Z" fill="white"/>
<path d="M113.649 75.9229H110.644V80.2748H113.649V75.9229Z" fill="#2C363F" fill-opacity="0.2"/>
<path d="M131.372 39.5869H104.921V59.9869H131.372V39.5869Z" fill="white"/>
<path d="M131.372 39.5869H104.921V59.9869H131.372V39.5869Z" fill="#2C363F" fill-opacity="0.2"/>
<path d="M124.745 59.8433C124.716 59.8433 124.692 55.3099 124.692 49.6886C124.692 44.0673 124.716 39.5312 124.745 39.5312C124.775 39.5312 124.799 44.0646 124.799 49.6886C124.799 55.3126 124.767 59.8433 124.745 59.8433Z" fill="white"/>
<path d="M124.745 59.8433C124.716 59.8433 124.692 55.3099 124.692 49.6886C124.692 44.0673 124.716 39.5312 124.745 39.5312C124.775 39.5312 124.799 44.0646 124.799 49.6886C124.799 55.3126 124.767 59.8433 124.745 59.8433Z" fill="#2C363F" fill-opacity="0.2"/>
<path d="M129.129 55.3442H127.103V57.6376H129.129V55.3442Z" fill="white"/>
<path d="M129.129 55.3442H127.103V57.6376H129.129V55.3442Z" fill="#2C363F" fill-opacity="0.2"/>
<path d="M115.996 39.6377H112.991V43.9897H115.996V39.6377Z" fill="white"/>
<path d="M115.996 39.6377H112.991V43.9897H115.996V39.6377Z" fill="#2C363F" fill-opacity="0.2"/>
<path d="M115.996 55.5737H112.991V59.9257H115.996V55.5737Z" fill="white"/>
<path d="M115.996 55.5737H112.991V59.9257H115.996V55.5737Z" fill="#2C363F" fill-opacity="0.2"/>
<path d="M130.38 25.4272H111.455V40.0246H130.38V25.4272Z" fill="white"/>
<path d="M130.38 25.4272H111.455V40.0246H130.38V25.4272Z" fill="#2C363F" fill-opacity="0.2"/>
<path d="M125.641 39.9231C125.62 39.9231 125.604 36.6697 125.604 32.6564C125.604 28.6431 125.62 25.4004 125.641 25.4004C125.663 25.4004 125.679 28.6537 125.679 32.6671C125.679 36.6804 125.66 39.9231 125.641 39.9231Z" fill="white"/>
<path d="M125.641 39.9231C125.62 39.9231 125.604 36.6697 125.604 32.6564C125.604 28.6431 125.62 25.4004 125.641 25.4004C125.663 25.4004 125.679 28.6537 125.679 32.6671C125.679 36.6804 125.66 39.9231 125.641 39.9231Z" fill="#2C363F" fill-opacity="0.2"/>
<path d="M128.777 36.7046H127.327V38.3446H128.777V36.7046Z" fill="white"/>
<path d="M128.777 36.7046H127.327V38.3446H128.777V36.7046Z" fill="#2C363F" fill-opacity="0.2"/>
<path d="M119.38 25.4673H117.231V28.582H119.38V25.4673Z" fill="white"/>
<path d="M119.38 25.4673H117.231V28.582H119.38V25.4673Z" fill="#2C363F" fill-opacity="0.2"/>
<path d="M119.38 36.8672H117.231V39.9819H119.38V36.8672Z" fill="white"/>
<path d="M119.38 36.8672H117.231V39.9819H119.38V36.8672Z" fill="#2C363F" fill-opacity="0.2"/>
<path d="M137.892 103.79H107.407V127.304H137.892V103.79Z" fill="white"/>
<path d="M137.892 103.79H107.407V127.304H137.892V103.79Z" fill="#2C363F" fill-opacity="0.2"/>
<path d="M130.255 127.136C130.22 127.136 130.193 121.896 130.193 115.432C130.193 108.968 130.22 103.726 130.255 103.726C130.289 103.726 130.313 108.966 130.313 115.432C130.313 121.899 130.287 127.136 130.255 127.136Z" fill="white"/>
<path d="M130.255 127.136C130.22 127.136 130.193 121.896 130.193 115.432C130.193 108.968 130.22 103.726 130.255 103.726C130.289 103.726 130.313 108.966 130.313 115.432C130.313 121.899 130.287 127.136 130.255 127.136Z" fill="#2C363F" fill-opacity="0.2"/>
<path d="M135.305 121.95H132.969V124.592H135.305V121.95Z" fill="white"/>
<path d="M135.305 121.95H132.969V124.592H135.305V121.95Z" fill="#2C363F" fill-opacity="0.2"/>
<path d="M120.169 103.849H116.705V108.865H120.169V103.849Z" fill="white"/>
<path d="M120.169 103.849H116.705V108.865H120.169V103.849Z" fill="#2C363F" fill-opacity="0.2"/>
<path d="M120.169 122.216H116.705V127.232H120.169V122.216Z" fill="white"/>
<path d="M120.169 122.216H116.705V127.232H120.169V122.216Z" fill="#2C363F" fill-opacity="0.2"/>
<path d="M133.679 80.3364H103.193V103.851H133.679V80.3364Z" fill="white"/>
<path d="M133.679 80.3364H103.193V103.851H133.679V80.3364Z" fill="#2C363F" fill-opacity="0.2"/>
<path d="M126.044 103.683C126.009 103.683 125.983 98.4431 125.983 91.9791C125.983 85.5151 126.009 80.2725 126.044 80.2725C126.079 80.2725 126.103 85.5125 126.103 91.9791C126.103 98.4458 126.076 103.683 126.044 103.683Z" fill="white"/>
<path d="M126.044 103.683C126.009 103.683 125.983 98.4431 125.983 91.9791C125.983 85.5151 126.009 80.2725 126.044 80.2725C126.079 80.2725 126.103 85.5125 126.103 91.9791C126.103 98.4458 126.076 103.683 126.044 103.683Z" fill="#2C363F" fill-opacity="0.2"/>
<path d="M131.095 98.4966H128.759V101.139H131.095V98.4966Z" fill="white"/>
<path d="M131.095 98.4966H128.759V101.139H131.095V98.4966Z" fill="#2C363F" fill-opacity="0.2"/>
<path d="M115.959 80.395H112.495V85.411H115.959V80.395Z" fill="white"/>
<path d="M115.959 80.395H112.495V85.411H115.959V80.395Z" fill="#2C363F" fill-opacity="0.2"/>
<path d="M115.959 98.7632H112.495V103.779H115.959V98.7632Z" fill="white"/>
<path d="M115.959 98.7632H112.495V103.779H115.959V98.7632Z" fill="#2C363F" fill-opacity="0.2"/>
<path d="M67.38 122.646V120.136H16.0467C15.8649 120.136 15.6906 120.208 15.5621 120.337C15.4335 120.465 15.3613 120.64 15.3613 120.822V121.96C15.3613 122.142 15.4335 122.316 15.5621 122.445C15.6906 122.573 15.8649 122.646 16.0467 122.646H17.476V123.8C17.476 123.889 17.4585 123.977 17.4246 124.058C17.3907 124.14 17.341 124.215 17.2784 124.277C17.2157 124.34 17.1414 124.39 17.0595 124.424C16.9777 124.457 16.8899 124.475 16.8013 124.475H16.036C15.8598 124.475 15.6906 124.544 15.5645 124.667C15.4384 124.79 15.3655 124.957 15.3613 125.134V126.294C15.3613 126.472 15.4324 126.644 15.5589 126.771C15.6855 126.897 15.8571 126.968 16.036 126.968H67.38V124.459H55.4147V122.64L67.38 122.646ZM29.78 122.646H32.8573V124.464H29.78V122.646ZM27.7293 124.464H24.6547V122.646H27.7293V124.464ZM34.9 122.646H37.9747V124.464H34.9V122.646ZM40.0253 122.646H43.1027V124.464H40.0333L40.0253 122.646ZM45.1533 122.646H48.2333V124.464H45.1613L45.1533 122.646ZM19.5187 122.646H22.604V124.464H19.5267L19.5187 122.646ZM53.356 124.464H50.2867V122.646H53.364L53.356 124.464Z" fill="white"/>
<path d="M67.38 122.646V120.136H16.0467C15.8649 120.136 15.6906 120.208 15.5621 120.337C15.4335 120.465 15.3613 120.64 15.3613 120.822V121.96C15.3613 122.142 15.4335 122.316 15.5621 122.445C15.6906 122.573 15.8649 122.646 16.0467 122.646H17.476V123.8C17.476 123.889 17.4585 123.977 17.4246 124.058C17.3907 124.14 17.341 124.215 17.2784 124.277C17.2157 124.34 17.1414 124.39 17.0595 124.424C16.9777 124.457 16.8899 124.475 16.8013 124.475H16.036C15.8598 124.475 15.6906 124.544 15.5645 124.667C15.4384 124.79 15.3655 124.957 15.3613 125.134V126.294C15.3613 126.472 15.4324 126.644 15.5589 126.771C15.6855 126.897 15.8571 126.968 16.036 126.968H67.38V124.459H55.4147V122.64L67.38 122.646ZM29.78 122.646H32.8573V124.464H29.78V122.646ZM27.7293 124.464H24.6547V122.646H27.7293V124.464ZM34.9 122.646H37.9747V124.464H34.9V122.646ZM40.0253 122.646H43.1027V124.464H40.0333L40.0253 122.646ZM45.1533 122.646H48.2333V124.464H45.1613L45.1533 122.646ZM19.5187 122.646H22.604V124.464H19.5267L19.5187 122.646ZM53.356 124.464H50.2867V122.646H53.364L53.356 124.464Z" fill="#2C363F" fill-opacity="0.2"/>
<path d="M65.4094 70.3334H65.3374H65.1294H64.3294L61.3774 70.3467H51.6414H41.9027L38.9534 70.3307L41.9027 70.3174H51.6414H61.3774L64.3294 70.3307H65.1294H65.3374L65.4094 70.3334Z" fill="#001E49"/>
<path d="M88.4653 70.3067H88.2547H87.4547L84.5053 70.32H74.7693H65.0307L62.0787 70.3067L65.0307 70.2907L74.7693 70.2773L84.5053 70.2907L87.4547 70.3067H88.2547H88.4653Z" fill="#001E49"/>
<path d="M90.1 48.8666C90.077 48.8706 90.0536 48.8706 90.0306 48.8666H89.82H89.02H86.0706L76.3346 48.8799L66.596 48.8666H63.644H62.844H62.6333C62.6104 48.8706 62.5869 48.8706 62.564 48.8666H62.6333H62.844H63.644L66.596 48.8506H76.3346H86.0706L89.02 48.8666H89.82H90.0306H90.1Z" fill="#001E49"/>
<path d="M87.3667 115.621V113.112H36.036C35.854 113.112 35.6794 113.184 35.5505 113.312C35.4215 113.441 35.3487 113.615 35.348 113.797V114.936C35.3487 115.118 35.4215 115.292 35.5505 115.421C35.6794 115.549 35.854 115.621 36.036 115.621H37.4654V116.762C37.4654 116.942 37.394 117.114 37.267 117.241C37.1399 117.368 36.9677 117.44 36.788 117.44H36.0254C35.8462 117.44 35.6743 117.511 35.5474 117.637C35.4204 117.764 35.3487 117.935 35.348 118.114V119.266C35.3487 119.446 35.4204 119.617 35.5474 119.744C35.6743 119.87 35.8462 119.941 36.0254 119.941H87.3667V117.432H75.4014V115.613L87.3667 115.621ZM49.7667 115.621H52.8414V117.44H49.7694L49.7667 115.621ZM47.716 117.44H44.6414V115.621H47.7187L47.716 117.44ZM54.9 115.621H57.9774V117.44H54.9V115.621ZM60.028 115.621H63.1027V117.44H60.0227L60.028 115.621ZM65.1534 115.621H68.2334V117.44H65.148L65.1534 115.621ZM39.5214 115.621H42.596V117.44H39.516L39.5214 115.621ZM73.356 117.44H70.2734V115.621H73.3507L73.356 117.44Z" fill="white"/>
<path d="M87.3667 115.621V113.112H36.036C35.854 113.112 35.6794 113.184 35.5505 113.312C35.4215 113.441 35.3487 113.615 35.348 113.797V114.936C35.3487 115.118 35.4215 115.292 35.5505 115.421C35.6794 115.549 35.854 115.621 36.036 115.621H37.4654V116.762C37.4654 116.942 37.394 117.114 37.267 117.241C37.1399 117.368 36.9677 117.44 36.788 117.44H36.0254C35.8462 117.44 35.6743 117.511 35.5474 117.637C35.4204 117.764 35.3487 117.935 35.348 118.114V119.266C35.3487 119.446 35.4204 119.617 35.5474 119.744C35.6743 119.87 35.8462 119.941 36.0254 119.941H87.3667V117.432H75.4014V115.613L87.3667 115.621ZM49.7667 115.621H52.8414V117.44H49.7694L49.7667 115.621ZM47.716 117.44H44.6414V115.621H47.7187L47.716 117.44ZM54.9 115.621H57.9774V117.44H54.9V115.621ZM60.028 115.621H63.1027V117.44H60.0227L60.028 115.621ZM65.1534 115.621H68.2334V117.44H65.148L65.1534 115.621ZM39.5214 115.621H42.596V117.44H39.516L39.5214 115.621ZM73.356 117.44H70.2734V115.621H73.3507L73.356 117.44Z" fill="#001E49" fill-opacity="0.6"/>
<path d="M128.743 72.3895C128.827 72.3036 128.893 72.2018 128.937 72.09C128.981 71.9782 129.003 71.8588 129 71.7386C128.998 71.6184 128.972 71.4999 128.923 71.3901C128.874 71.2802 128.804 71.1812 128.716 71.0988L120.057 62.9148C119.884 62.7525 119.656 62.6621 119.419 62.6621C119.181 62.6621 118.953 62.7525 118.78 62.9148C118.689 62.9994 118.616 63.1013 118.565 63.2145C118.514 63.3278 118.486 63.45 118.482 63.5742C118.479 63.6984 118.501 63.822 118.546 63.9377C118.591 64.0534 118.659 64.159 118.745 64.2482L122.199 67.8802L120.401 69.6108L119.465 68.8668L112.935 76.3468L109.444 72.9895L105.236 85.3655L106.071 102.166H115.751L115.073 82.2002L121.567 72.9522L121.617 70.7522L123.484 68.8402L127.508 72.4348C127.683 72.5902 127.91 72.6723 128.144 72.6638C128.377 72.6554 128.599 72.5571 128.761 72.3895H128.743Z" fill="#001E49"/>
<path d="M102.633 105.277C102.596 105.277 102.564 89.9494 102.564 71.0454C102.564 52.1414 102.596 36.8081 102.633 36.8081C102.671 36.8081 102.703 52.1334 102.703 71.0454C102.703 89.9574 102.663 105.277 102.633 105.277Z" fill="#001E49"/>
<path d="M124.3 100.96L130.188 84.6L127.975 83.7041V80.5441L144.073 80.296C144.453 80.2887 144.817 80.1438 145.097 79.8882C145.378 79.6327 145.556 79.2839 145.599 78.9067L147.967 57.888C148.02 57.418 148.244 56.984 148.597 56.6687C148.949 56.3534 149.406 56.179 149.879 56.1787C150.138 56.1785 150.395 56.2307 150.633 56.3323C150.872 56.4339 151.088 56.5827 151.267 56.7698C151.447 56.9569 151.587 57.1784 151.679 57.421C151.77 57.6636 151.812 57.9222 151.801 58.1814L150.9 79.84L159.305 79.8854L159.591 83.8347L134.732 84.808L128.249 100.725L124.3 100.96Z" fill="white"/>
<path d="M124.3 100.96L130.188 84.6L127.975 83.7041V80.5441L144.073 80.296C144.453 80.2887 144.817 80.1438 145.097 79.8882C145.378 79.6327 145.556 79.2839 145.599 78.9067L147.967 57.888C148.02 57.418 148.244 56.984 148.597 56.6687C148.949 56.3534 149.406 56.179 149.879 56.1787C150.138 56.1785 150.395 56.2307 150.633 56.3323C150.872 56.4339 151.088 56.5827 151.267 56.7698C151.447 56.9569 151.587 57.1784 151.679 57.421C151.77 57.6636 151.812 57.9222 151.801 58.1814L150.9 79.84L159.305 79.8854L159.591 83.8347L134.732 84.808L128.249 100.725L124.3 100.96Z" fill="#001E49" fill-opacity="0.6"/>
<path d="M128.004 100.56L107.076 100.725V102.12L115.745 102.008L129.553 101.901L163.031 97.1758L159.236 82.7332H136.569C136.178 82.7274 135.79 82.8171 135.441 82.9946C135.091 83.1721 134.79 83.432 134.564 83.7518L128.004 100.56Z" fill="#001E49"/>
<path d="M117.975 40.1628L102.775 88.6775L102.881 102.173H107.7V88.7628L120.164 40.2935L153.935 40.1042L160.393 90.5922H164.204L156.345 40.4588C156.222 39.8031 155.873 39.211 155.359 38.785C154.846 38.359 154.199 38.1257 153.532 38.1255H120.716C120.101 38.1252 119.502 38.3233 119.008 38.6903C118.514 39.0573 118.152 39.5736 117.975 40.1628Z" fill="white"/>
<path d="M117.975 40.1628L102.775 88.6775L102.881 102.173H107.7V88.7628L120.164 40.2935L153.935 40.1042L160.393 90.5922H164.204L156.345 40.4588C156.222 39.8031 155.873 39.211 155.359 38.785C154.846 38.359 154.199 38.1257 153.532 38.1255H120.716C120.101 38.1252 119.502 38.3233 119.008 38.6903C118.514 39.0573 118.152 39.5736 117.975 40.1628Z" fill="#001E49" fill-opacity="0.6"/>
<path d="M100.031 117.76V104.8L102.868 102.173L129.535 101.829L134.335 97.9252C135.229 97.1992 136.329 96.7737 137.479 96.7092L142.615 96.4185C142.615 96.4185 144.919 94.8318 147.148 93.2585C149.972 91.2578 153.346 90.1825 156.807 90.1812H171.588C172.125 90.1812 172.64 90.3944 173.019 90.774C173.399 91.1535 173.612 91.6684 173.612 92.2052V117.76H100.031Z" fill="#C3262C"/>
<path d="M173.607 113.584H99.7694V117.845H173.607V113.584Z" fill="#001E49"/>
<path d="M103.591 117.712C103.564 119.518 104.073 121.291 105.055 122.807C106.036 124.323 107.444 125.515 109.103 126.23C110.761 126.946 112.594 127.154 114.37 126.827C116.147 126.501 117.786 125.655 119.082 124.397C120.377 123.139 121.271 121.524 121.649 119.758C122.027 117.992 121.873 116.154 121.206 114.476C120.539 112.797 119.389 111.354 117.902 110.329C116.415 109.304 114.658 108.743 112.852 108.717C110.431 108.682 108.096 109.61 106.359 111.297C104.622 112.984 103.627 115.291 103.591 117.712Z" fill="#001E49"/>
<path d="M103.593 117.691C103.593 117.691 103.593 117.704 103.593 117.712C103.58 120.12 104.517 122.435 106.202 124.155C107.887 125.875 110.183 126.859 112.591 126.894C114.998 126.929 117.322 126.012 119.056 124.343C120.791 122.673 121.796 120.386 121.852 117.979C121.852 117.979 121.852 117.963 121.852 117.955L103.593 117.691Z" fill="#001E49"/>
<path d="M106.311 117.752C106.295 119.017 106.654 120.258 107.342 121.319C108.031 122.38 109.019 123.213 110.181 123.713C111.343 124.213 112.627 124.357 113.871 124.128C115.115 123.898 116.263 123.306 117.17 122.424C118.077 121.543 118.703 120.412 118.968 119.175C119.233 117.938 119.126 116.651 118.659 115.475C118.193 114.299 117.389 113.288 116.348 112.569C115.307 111.85 114.077 111.455 112.812 111.435C111.97 111.421 111.134 111.574 110.351 111.885C109.568 112.195 108.854 112.657 108.25 113.244C107.646 113.831 107.164 114.531 106.831 115.305C106.498 116.078 106.321 116.91 106.311 117.752Z" fill="white"/>
<path d="M106.311 117.752C106.295 119.017 106.654 120.258 107.342 121.319C108.031 122.38 109.019 123.213 110.181 123.713C111.343 124.213 112.627 124.357 113.871 124.128C115.115 123.898 116.263 123.306 117.17 122.424C118.077 121.543 118.703 120.412 118.968 119.175C119.233 117.938 119.126 116.651 118.659 115.475C118.193 114.299 117.389 113.288 116.348 112.569C115.307 111.85 114.077 111.455 112.812 111.435C111.97 111.421 111.134 111.574 110.351 111.885C109.568 112.195 108.854 112.657 108.25 113.244C107.646 113.831 107.164 114.531 106.831 115.305C106.498 116.078 106.321 116.91 106.311 117.752Z" fill="#2C363F" fill-opacity="0.2"/>
<path d="M112.812 111.435C111.97 111.421 111.134 111.574 110.351 111.885C109.568 112.195 108.854 112.657 108.25 113.244C107.646 113.831 107.164 114.531 106.831 115.305C106.498 116.078 106.321 116.91 106.311 117.752L119.129 117.936C119.143 117.094 118.99 116.258 118.679 115.475C118.369 114.692 117.907 113.978 117.32 113.374C116.733 112.77 116.033 112.288 115.259 111.955C114.486 111.623 113.654 111.446 112.812 111.435Z" fill="white"/>
<path d="M112.812 111.435C111.97 111.421 111.134 111.574 110.351 111.885C109.568 112.195 108.854 112.657 108.25 113.244C107.646 113.831 107.164 114.531 106.831 115.305C106.498 116.078 106.321 116.91 106.311 117.752L119.129 117.936C119.143 117.094 118.99 116.258 118.679 115.475C118.369 114.692 117.907 113.978 117.32 113.374C116.733 112.77 116.033 112.288 115.259 111.955C114.486 111.623 113.654 111.446 112.812 111.435Z" fill="#2C363F" fill-opacity="0.2"/>
<path d="M108.815 117.789C108.805 118.561 109.025 119.319 109.446 119.966C109.867 120.613 110.471 121.121 111.18 121.425C111.89 121.73 112.674 121.816 113.433 121.675C114.192 121.534 114.892 121.171 115.445 120.631C115.997 120.092 116.378 119.401 116.538 118.646C116.698 117.89 116.63 117.105 116.343 116.388C116.057 115.671 115.564 115.055 114.927 114.618C114.291 114.181 113.539 113.943 112.767 113.933C111.732 113.921 110.734 114.321 109.993 115.044C109.252 115.767 108.828 116.754 108.815 117.789Z" fill="#001E49"/>
<path d="M148.268 117.712C148.241 119.518 148.751 121.291 149.732 122.807C150.713 124.323 152.122 125.515 153.78 126.23C155.438 126.946 157.271 127.154 159.048 126.827C160.824 126.501 162.464 125.655 163.759 124.397C165.055 123.139 165.948 121.524 166.326 119.758C166.704 117.992 166.55 116.154 165.883 114.476C165.216 112.797 164.067 111.354 162.58 110.329C161.093 109.304 159.335 108.743 157.529 108.717C155.109 108.682 152.773 109.61 151.036 111.297C149.3 112.984 148.304 115.291 148.268 117.712Z" fill="#001E49"/>
<path d="M148.271 117.691C148.271 117.691 148.271 117.704 148.271 117.712C148.257 120.12 149.195 122.435 150.88 124.155C152.565 125.875 154.861 126.859 157.268 126.894C159.675 126.929 161.999 126.012 163.733 124.343C165.468 122.673 166.473 120.386 166.529 117.979C166.529 117.979 166.529 117.963 166.529 117.955L148.271 117.691Z" fill="#001E49"/>
<path d="M150.988 117.752C150.972 119.017 151.331 120.258 152.02 121.319C152.709 122.38 153.696 123.213 154.858 123.713C156.02 124.213 157.304 124.357 158.548 124.128C159.792 123.898 160.94 123.306 161.848 122.424C162.755 121.543 163.38 120.412 163.645 119.175C163.911 117.938 163.803 116.651 163.337 115.475C162.87 114.299 162.066 113.288 161.025 112.569C159.985 111.85 158.754 111.455 157.489 111.435C156.647 111.421 155.811 111.574 155.028 111.885C154.245 112.195 153.531 112.657 152.927 113.244C152.324 113.831 151.841 114.531 151.508 115.305C151.176 116.078 150.999 116.91 150.988 117.752Z" fill="white"/>
<path d="M150.988 117.752C150.972 119.017 151.331 120.258 152.02 121.319C152.709 122.38 153.696 123.213 154.858 123.713C156.02 124.213 157.304 124.357 158.548 124.128C159.792 123.898 160.94 123.306 161.848 122.424C162.755 121.543 163.38 120.412 163.645 119.175C163.911 117.938 163.803 116.651 163.337 115.475C162.87 114.299 162.066 113.288 161.025 112.569C159.985 111.85 158.754 111.455 157.489 111.435C156.647 111.421 155.811 111.574 155.028 111.885C154.245 112.195 153.531 112.657 152.927 113.244C152.324 113.831 151.841 114.531 151.508 115.305C151.176 116.078 150.999 116.91 150.988 117.752Z" fill="#2C363F" fill-opacity="0.2"/>
<path d="M157.489 111.435C156.647 111.421 155.811 111.574 155.028 111.885C154.245 112.195 153.531 112.657 152.927 113.244C152.323 113.831 151.841 114.531 151.508 115.305C151.176 116.078 150.999 116.91 150.988 117.752L163.807 117.936C163.82 117.094 163.667 116.258 163.357 115.475C163.046 114.692 162.584 113.978 161.997 113.374C161.411 112.77 160.71 112.288 159.937 111.955C159.163 111.623 158.331 111.446 157.489 111.435Z" fill="white"/>
<path d="M157.489 111.435C156.647 111.421 155.811 111.574 155.028 111.885C154.245 112.195 153.531 112.657 152.927 113.244C152.323 113.831 151.841 114.531 151.508 115.305C151.176 116.078 150.999 116.91 150.988 117.752L163.807 117.936C163.82 117.094 163.667 116.258 163.357 115.475C163.046 114.692 162.584 113.978 161.997 113.374C161.411 112.77 160.71 112.288 159.937 111.955C159.163 111.623 158.331 111.446 157.489 111.435Z" fill="#2C363F" fill-opacity="0.2"/>
<path d="M153.495 117.79C153.485 118.561 153.705 119.318 154.126 119.965C154.546 120.612 155.149 121.12 155.859 121.425C156.568 121.729 157.351 121.816 158.11 121.676C158.869 121.535 159.569 121.173 160.122 120.634C160.675 120.096 161.056 119.405 161.217 118.651C161.378 117.896 161.311 117.11 161.026 116.393C160.74 115.676 160.249 115.06 159.613 114.622C158.977 114.184 158.226 113.945 157.455 113.934C156.941 113.926 156.432 114.02 155.955 114.21C155.478 114.4 155.043 114.682 154.675 115.04C154.307 115.398 154.013 115.825 153.811 116.297C153.608 116.769 153.501 117.276 153.495 117.79Z" fill="#001E49"/>
<path d="M169.279 111.347C169.262 111.327 169.247 111.305 169.233 111.283L169.116 111.091L168.929 110.776C168.848 110.632 168.759 110.492 168.663 110.357C168.077 109.476 167.386 108.67 166.604 107.957C166.369 107.72 166.084 107.515 165.804 107.277C165.524 107.04 165.204 106.837 164.884 106.611C164.564 106.384 164.212 106.176 163.833 105.992C163.649 105.896 163.463 105.792 163.271 105.699L162.671 105.432C161.819 105.073 160.933 104.805 160.025 104.632C159.051 104.445 158.059 104.37 157.068 104.408C155.147 104.515 153.274 105.049 151.585 105.971L151.015 106.291C150.831 106.403 150.657 106.525 150.481 106.637C150.121 106.856 149.812 107.123 149.495 107.355C149.177 107.587 148.903 107.851 148.641 108.104C148.38 108.357 148.124 108.6 147.911 108.859C147.2 109.643 146.588 110.512 146.089 111.445C146.006 111.588 145.931 111.736 145.865 111.888C145.804 112.016 145.751 112.125 145.708 112.219L145.609 112.421C145.599 112.445 145.586 112.467 145.572 112.488C145.577 112.463 145.585 112.439 145.596 112.416L145.681 112.208L145.825 111.872C145.888 111.718 145.96 111.567 146.041 111.421C146.525 110.472 147.129 109.59 147.839 108.795C148.049 108.528 148.313 108.293 148.567 108.027C148.82 107.76 149.124 107.525 149.423 107.264C149.721 107.003 150.052 106.76 150.412 106.536C150.588 106.421 150.764 106.299 150.945 106.184L151.519 105.856C152.339 105.411 153.203 105.054 154.097 104.789C155.06 104.506 156.053 104.335 157.055 104.277C158.997 104.202 160.931 104.562 162.716 105.331L163.319 105.597C163.513 105.691 163.7 105.797 163.887 105.896C164.268 106.083 164.601 106.323 164.953 106.525C165.305 106.728 165.591 106.973 165.876 107.205C166.161 107.437 166.441 107.656 166.676 107.896C167.457 108.621 168.141 109.443 168.713 110.341C168.81 110.479 168.899 110.621 168.98 110.768L169.153 111.091C169.199 111.173 169.233 111.237 169.26 111.291C169.287 111.344 169.281 111.344 169.279 111.347Z" fill="#001E49"/>
<path d="M124.641 113.027C124.626 113.004 124.613 112.98 124.604 112.955C124.583 112.899 124.553 112.827 124.516 112.736L124.372 112.381C124.308 112.243 124.236 112.083 124.156 111.904C123.691 110.896 123.112 109.945 122.431 109.069C121.436 107.757 120.168 106.676 118.713 105.904C117.842 105.479 116.919 105.171 115.967 104.989C114.947 104.779 113.906 104.684 112.865 104.707C111.824 104.721 110.788 104.855 109.777 105.104C108.837 105.34 107.93 105.694 107.079 106.157C105.624 106.931 104.324 107.964 103.241 109.205C102.522 110.047 101.896 110.964 101.375 111.941C101.188 112.288 101.047 112.56 100.959 112.741C100.916 112.829 100.879 112.899 100.852 112.952C100.842 112.977 100.828 113 100.812 113.021C100.817 112.995 100.826 112.97 100.839 112.947L100.935 112.731C101.015 112.539 101.148 112.264 101.327 111.912C101.832 110.918 102.449 109.986 103.167 109.133C104.248 107.872 105.553 106.822 107.017 106.037C107.877 105.568 108.793 105.21 109.743 104.971C110.764 104.718 111.811 104.583 112.863 104.568C113.915 104.55 114.966 104.65 115.996 104.867C116.959 105.053 117.892 105.367 118.772 105.8C120.238 106.586 121.513 107.686 122.505 109.021C123.184 109.908 123.754 110.872 124.204 111.893L124.407 112.376C124.457 112.517 124.503 112.643 124.537 112.736C124.572 112.829 124.596 112.901 124.615 112.96C124.626 112.981 124.635 113.004 124.641 113.027Z" fill="#001E49"/>
<path d="M100.012 113.112H59.5374V117.845H100.012V113.112Z" fill="#001E49"/>
<path d="M98.916 115.12C98.916 115.353 98.8469 115.581 98.7174 115.775C98.5879 115.969 98.4038 116.12 98.1884 116.209C97.9731 116.298 97.7361 116.322 97.5074 116.276C97.2788 116.231 97.0688 116.118 96.9039 115.954C96.7391 115.789 96.6268 115.579 96.5814 115.35C96.5359 115.121 96.5592 114.884 96.6484 114.669C96.7376 114.454 96.8887 114.27 97.0826 114.14C97.2764 114.011 97.5043 113.941 97.7374 113.941C98.05 113.941 98.3498 114.066 98.5708 114.287C98.7919 114.508 98.916 114.807 98.916 115.12Z" fill="white"/>
<path d="M98.916 115.12C98.916 115.353 98.8469 115.581 98.7174 115.775C98.5879 115.969 98.4038 116.12 98.1884 116.209C97.9731 116.298 97.7361 116.322 97.5074 116.276C97.2788 116.231 97.0688 116.118 96.9039 115.954C96.7391 115.789 96.6268 115.579 96.5814 115.35C96.5359 115.121 96.5592 114.884 96.6484 114.669C96.7376 114.454 96.8887 114.27 97.0826 114.14C97.2764 114.011 97.5043 113.941 97.7374 113.941C98.05 113.941 98.3498 114.066 98.5708 114.287C98.7919 114.508 98.916 114.807 98.916 115.12Z" fill="#001E49" fill-opacity="0.6"/>
<path d="M99.4813 37.752H96.1027V104.867H99.4813V37.752Z" fill="white"/>
<path d="M99.4813 37.752H96.1027V104.867H99.4813V37.752Z" fill="#001E49" fill-opacity="0.6"/>
<path d="M147.529 108.691C147.529 108.728 141.833 108.76 134.809 108.76C127.785 108.76 122.089 108.728 122.089 108.691C122.089 108.654 127.783 108.622 134.809 108.622C141.836 108.622 147.529 108.654 147.529 108.691Z" fill="#001E49"/>
<path d="M142.345 107.686C142.305 107.686 142.276 105.208 142.276 102.152C142.276 99.0963 142.305 96.6216 142.345 96.6216C142.385 96.6216 142.415 99.0963 142.415 102.152C142.415 105.208 142.383 107.686 142.345 107.686Z" fill="#001E49"/>
<path d="M102.636 36.2134H95.74V39.2907H102.636V36.2134Z" fill="#001E49"/>
<path d="M100.012 104.312H95.572V113.171H100.012V104.312Z" fill="#001E49"/>
<path d="M89.46 91.7441H89.3907H89.18H88.38L85.428 91.7575L75.7 91.8001H65.9613L63.012 91.7868H62.212H62.0013H61.932C61.9551 91.7845 61.9783 91.7845 62.0013 91.7868H62.212H63.012L65.9613 91.7735L75.7 91.7601L85.436 91.7735L88.388 91.7868H89.188H89.3987C89.4176 91.7705 89.4381 91.7562 89.46 91.7441Z" fill="#001E49"/>
<path d="M65.6494 70.3335H37.868V91.7628H65.6494V70.3335Z" fill="white"/>
<path d="M65.6494 70.3335H37.868V91.7628H65.6494V70.3335Z" fill="#FFC200"/>
<path opacity="0.3" d="M65.6494 70.3335H37.868V91.7628H65.6494V70.3335Z" fill="black"/>
<path d="M58.6894 91.6107C58.6654 91.6107 58.644 86.8347 58.644 80.944C58.644 75.0533 58.6654 70.2773 58.6894 70.2773C58.7134 70.2773 58.7347 75.0533 58.7347 80.944C58.7347 86.8347 58.7134 91.6107 58.6894 91.6107Z" fill="#001E49"/>
<path d="M63.2947 86.8853H61.1641V89.2933H63.2947V86.8853Z" fill="#F5F5F5"/>
<path d="M49.4974 70.3892H46.3428V74.9625H49.4974V70.3892Z" fill="#001E49"/>
<path d="M49.4974 87.1255H46.3428V91.6988H49.4974V87.1255Z" fill="#001E49"/>
<path d="M88.7774 70.3066H60.9961V91.736H88.7774V70.3066Z" fill="white"/>
<path d="M88.7774 70.3066H60.9961V91.736H88.7774V70.3066Z" fill="#FFC200"/>
<path d="M81.8174 91.5838C81.7934 91.5838 81.7721 86.8078 81.7721 80.9172C81.7721 75.0265 81.7934 70.2505 81.8174 70.2505C81.8414 70.2505 81.8628 75.0238 81.8628 80.9172C81.8628 86.8105 81.8334 91.5838 81.8174 91.5838Z" fill="#001E49"/>
<path d="M86.4228 86.8584H84.2921V89.2664H86.4228V86.8584Z" fill="#F5F5F5"/>
<g opacity="0.5">
<path d="M72.6255 70.3623H69.4708V74.9356H72.6255V70.3623Z" fill="white"/>
<path d="M72.6255 70.3623H69.4708V74.9356H72.6255V70.3623Z" fill="#F4F6F6"/>
</g>
<g opacity="0.5">
<path d="M72.6255 87.0986H69.4708V91.672H72.6255V87.0986Z" fill="white"/>
<path d="M72.6255 87.0986H69.4708V91.672H72.6255V87.0986Z" fill="#F4F6F6"/>
</g>
<path d="M90.3374 48.8774H62.556V70.3068H90.3374V48.8774Z" fill="white"/>
<path d="M90.3374 48.8774H62.556V70.3068H90.3374V48.8774Z" fill="#FFC200"/>
<path d="M83.3774 70.1546C83.3507 70.1546 83.332 65.3786 83.332 59.488C83.332 53.5973 83.3507 48.8213 83.3774 48.8213C83.404 48.8213 83.4227 53.5946 83.4227 59.488C83.4227 65.3813 83.4014 70.1546 83.3774 70.1546Z" fill="#001E49"/>
<path d="M87.9827 65.4292H85.8521V67.8372H87.9827V65.4292Z" fill="#F5F5F5"/>
<path d="M74.1854 48.9331H71.0308V53.5064H74.1854V48.9331Z" fill="#001E49"/>
<path d="M74.1854 65.6694H71.0308V70.2428H74.1854V65.6694Z" fill="#001E49"/>
<path d="M89.7027 91.7441H61.9214V113.173H89.7027V91.7441Z" fill="white"/>
<path d="M89.7027 91.7441H61.9214V113.173H89.7027V91.7441Z" fill="#FFC200"/>
<path opacity="0.3" d="M89.7027 91.7441H61.9214V113.173H89.7027V91.7441Z" fill="black"/>
<path d="M82.7427 113.021C82.7187 113.021 82.6974 108.245 82.6974 102.355C82.6974 96.464 82.7187 91.688 82.7427 91.688C82.7667 91.688 82.7881 96.464 82.7881 102.355C82.7881 108.245 82.7667 113.021 82.7427 113.021Z" fill="#001E49"/>
<path d="M87.3481 108.296H85.2174V110.704H87.3481V108.296Z" fill="#F5F5F5"/>
<path d="M73.5508 91.7998H70.3961V96.3731H73.5508V91.7998Z" fill="#001E49"/>
<path d="M73.5508 108.536H70.3961V113.109H73.5508V108.536Z" fill="#001E49"/>
<path d="M60.5614 91.7441H32.78V113.173H60.5614V91.7441Z" fill="white"/>
<path d="M60.5614 91.7441H32.78V113.173H60.5614V91.7441Z" fill="#FFC200"/>
<path d="M53.604 113.021C53.5774 113.021 53.5587 108.245 53.5587 102.355C53.5587 96.464 53.5774 91.688 53.604 91.688C53.6307 91.688 53.6467 96.464 53.6467 102.355C53.6467 108.245 53.628 113.021 53.604 113.021Z" fill="#001E49"/>
<path d="M58.2093 108.296H56.0786V110.704H58.2093V108.296Z" fill="#F5F5F5"/>
<g opacity="0.5">
<path d="M44.412 91.7998H41.2573V96.3731H44.412V91.7998Z" fill="white"/>
<path d="M44.412 91.7998H41.2573V96.3731H44.412V91.7998Z" fill="#F4F6F6"/>
</g>
<g opacity="0.5">
<path d="M44.412 108.536H41.2573V113.109H44.412V108.536Z" fill="white"/>
<path d="M44.412 108.536H41.2573V113.109H44.412V108.536Z" fill="#F4F6F6"/>
</g>
<path d="M60.3214 91.744H60.2494H60.0414H59.2414L56.2921 91.7573H46.5561H36.8174L33.8654 91.744H33.0654H32.8574H32.7854C32.8094 91.7418 32.8334 91.7418 32.8574 91.744H33.0654H33.8654L36.8174 91.7306L46.5561 91.7173L56.2921 91.7306L59.2414 91.744H60.0414H60.2494C60.2733 91.7416 60.2975 91.7416 60.3214 91.744Z" fill="#001E49"/>
<path d="M174.772 97.5679C176.204 97.9145 177.407 99.3679 177.383 100.843C177.352 101.581 177.08 102.289 176.609 102.859C176.137 103.428 175.492 103.827 174.772 103.995" fill="#C3262C"/>
<g opacity="0.6">
<path d="M174.772 97.5679C176.204 97.9145 177.407 99.3679 177.383 100.843C177.352 101.581 177.08 102.289 176.609 102.859C176.137 103.428 175.492 103.827 174.772 103.995" fill="white"/>
<path d="M174.772 97.5679C176.204 97.9145 177.407 99.3679 177.383 100.843C177.352 101.581 177.08 102.289 176.609 102.859C176.137 103.428 175.492 103.827 174.772 103.995" fill="#F4F6F6"/>
</g>
<path d="M174.831 96.7412H173.607V104.851H174.831V96.7412Z" fill="#C3262C"/>
<path opacity="0.3" d="M174.831 96.7412H173.607V104.851H174.831V96.7412Z" fill="black"/>
<path d="M116.593 64.2453C116.446 64.1311 116.345 63.9678 116.308 63.7851C116.272 63.6025 116.302 63.4128 116.393 63.2506C116.599 62.8933 116.839 62.4719 116.948 62.2959C117.082 62.0877 117.204 61.8723 117.313 61.6506C117.347 61.5181 117.418 61.3977 117.517 61.3034C117.616 61.2091 117.739 61.1446 117.873 61.1173C118.199 61.0753 118.529 61.0852 118.852 61.1466L122.188 61.8666L123.743 62.6346L122.231 63.9679L121.391 63.7013C121.137 63.9199 120.148 64.0346 119.812 63.9946C119.383 63.9413 118.524 63.6613 118.036 63.7546L117.564 63.8213L117.788 64.0079C118.198 63.9784 118.609 64.0624 118.975 64.2506C119.033 64.29 119.078 64.3466 119.103 64.4127C119.127 64.4787 119.131 64.5508 119.113 64.6189C119.094 64.687 119.055 64.7477 119.001 64.7926C118.947 64.8375 118.88 64.8643 118.809 64.8693L117.713 64.9413C117.417 64.802 117.131 64.6397 116.86 64.4559C116.775 64.3809 116.686 64.3105 116.593 64.2453Z" fill="#ECB2AA"/>
<path d="M117.567 63.8323C117.513 63.8691 117.452 63.8945 117.388 63.907C117.214 63.9578 117.029 63.9578 116.855 63.907C116.73 63.8659 116.619 63.7889 116.537 63.6857C116.491 63.623 116.458 63.5512 116.44 63.475C116.423 63.3988 116.421 63.3198 116.436 63.243C116.456 63.155 116.505 63.0761 116.575 63.019C116.644 62.9682 116.722 62.9295 116.804 62.9043C116.964 62.8513 117.127 62.8094 117.292 62.779C117.607 62.7183 117.924 62.6774 118.244 62.6563C118.391 62.6563 118.529 62.6403 118.663 62.6403H118.764H118.844C118.9 62.6325 118.955 62.6218 119.009 62.6083C119.236 62.5353 119.467 62.4739 119.7 62.4243C119.493 62.5469 119.268 62.6369 119.033 62.691C118.977 62.7099 118.919 62.7242 118.86 62.7337C118.825 62.7379 118.789 62.7379 118.753 62.7337H118.663C118.537 62.7337 118.396 62.7497 118.255 62.763C117.941 62.7907 117.628 62.8344 117.319 62.8937C117.16 62.923 117.003 62.9622 116.849 63.011C116.695 63.0563 116.583 63.1257 116.561 63.251C116.55 63.3105 116.55 63.3717 116.562 63.4312C116.573 63.4907 116.597 63.5473 116.631 63.5977C116.7 63.6867 116.792 63.7549 116.897 63.795C117.056 63.8507 117.227 63.8663 117.393 63.8403C117.495 63.8376 117.567 63.819 117.567 63.8323Z" fill="#ECB2AA"/>
<path d="M117.98 62.0933C118.017 62.0933 118.081 62.2586 118.015 62.4693C117.948 62.6799 117.799 62.7919 117.775 62.7626C117.751 62.7333 117.831 62.6053 117.884 62.4293C117.937 62.2533 117.94 62.0986 117.98 62.0933Z" fill="#ECB2AA"/>
<path d="M118.503 62.3039C118.54 62.3039 118.551 62.4373 118.457 62.5706C118.364 62.7039 118.239 62.7146 118.225 62.6773C118.212 62.6399 118.281 62.5759 118.348 62.4853C118.415 62.3946 118.463 62.2986 118.503 62.3039Z" fill="#ECB2AA"/>
<path d="M131.636 61.5601C132.095 61.3681 129.001 64.5494 129.001 64.5494L123.284 62.4161L121.265 63.6561L127.412 67.9841C128.044 68.4296 128.814 68.6342 129.583 68.5608C130.353 68.4874 131.071 68.141 131.607 67.5841L135.236 63.3894L131.636 61.5601Z" fill="#ECB2AA"/>
<path d="M134.988 48.8134C134.188 48.6587 133.692 48.4133 133.671 48.1067C133.628 47.472 135.641 46.8213 138.169 46.648C140.697 46.4747 142.777 46.8534 142.823 47.4854C142.841 47.792 142.385 48.1014 141.623 48.36" fill="#C3262C"/>
<g opacity="0.4">
<path d="M135.433 48.7602C134.727 48.6269 134.265 48.4082 134.265 48.1362C134.265 47.3762 136.012 46.9949 138.252 46.8429C140.492 46.6909 142.34 47.0242 142.377 47.5869C142.396 47.8536 141.991 48.1202 141.311 48.3602" fill="black"/>
</g>
<path d="M134.279 47.7656C134.279 47.7656 134.751 45.0323 134.799 44.8963C134.847 44.7603 135.532 43.5336 137.343 43.0723L138.857 42.9683C138.857 42.9683 141.055 43.5149 141.481 44.0136C141.908 44.5123 142.249 47.0403 142.249 47.0403L137.94 46.4056L135.1 47.3043L134.279 47.7656Z" fill="#C3262C"/>
<path d="M137.817 42.7334L137.167 42.7761C137.015 42.9773 136.939 43.2258 136.953 43.4774C136.953 43.9494 137.068 47.1868 137.068 47.1868L138.961 46.9734L138.633 42.9841L139.287 43.0854L139.252 42.8588L139.068 42.6694L137.817 42.7334Z" fill="#C3262C"/>
<path d="M141.775 57.6319L137.135 57.7332C137.076 57.2452 137.119 54.1919 137.119 54.1919C137.119 54.1919 135.353 54.0372 135.212 52.2906C135.071 50.5439 135.103 47.0346 135.103 47.0346L135.121 46.8799C137.087 45.8746 139.425 45.6372 141.255 46.8639L141.521 47.0452L141.775 57.6319Z" fill="#ECB2AA"/>
<path d="M137.119 54.1999C137.927 54.1425 138.701 53.8547 139.351 53.3706C139.351 53.3706 138.868 54.7039 137.113 54.6533L137.119 54.1999Z" fill="#ECB2AA"/>
<path d="M141.441 48.8669C141.471 48.8669 142.617 48.4323 142.66 49.6296C142.703 50.827 141.492 50.6216 141.489 50.5896C141.487 50.5576 141.441 48.8669 141.441 48.8669Z" fill="#ECB2AA"/>
<path d="M141.833 50.1226C141.833 50.1226 141.855 50.1386 141.889 50.1519C141.914 50.1625 141.941 50.168 141.968 50.168C141.995 50.168 142.022 50.1625 142.047 50.1519C142.122 50.1001 142.183 50.029 142.222 49.946C142.26 49.863 142.277 49.7712 142.268 49.6799C142.268 49.5772 142.244 49.476 142.199 49.3839C142.186 49.3469 142.165 49.3136 142.136 49.2866C142.108 49.2597 142.074 49.24 142.036 49.2292C142.012 49.2241 141.987 49.2274 141.965 49.2386C141.943 49.2497 141.926 49.2681 141.916 49.2906C141.9 49.3252 141.916 49.3492 141.903 49.3519C141.889 49.3546 141.876 49.3332 141.884 49.2826C141.891 49.2527 141.907 49.2257 141.929 49.2052C141.962 49.1793 142.003 49.1668 142.044 49.1706C142.094 49.1785 142.14 49.1991 142.18 49.2304C142.219 49.2617 142.249 49.3026 142.268 49.3492C142.325 49.446 142.359 49.5546 142.367 49.6666C142.379 49.7742 142.357 49.8829 142.306 49.9781C142.254 50.0734 142.175 50.1507 142.079 50.1999C142.047 50.2109 142.013 50.2145 141.98 50.2103C141.947 50.2061 141.915 50.1944 141.887 50.1759C141.833 50.1519 141.833 50.1252 141.833 50.1226Z" fill="#ECB2AA"/>
<path d="M135.681 49.1919C135.689 49.2574 135.72 49.3179 135.769 49.3618C135.818 49.4056 135.882 49.4296 135.948 49.4292C136.012 49.4292 136.074 49.4037 136.12 49.3581C136.165 49.3126 136.191 49.2509 136.191 49.1866C136.183 49.121 136.152 49.0605 136.103 49.0167C136.054 48.9729 135.99 48.9488 135.924 48.9492C135.86 48.9492 135.798 48.9748 135.752 49.0203C135.707 49.0658 135.681 49.1275 135.681 49.1919Z" fill="#001E49"/>
<path d="M135.601 48.947C135.633 48.9763 135.815 48.8243 136.084 48.8056C136.353 48.787 136.559 48.9096 136.585 48.875C136.612 48.8403 136.561 48.803 136.473 48.747C136.351 48.675 136.21 48.6415 136.068 48.651C135.928 48.6601 135.795 48.7133 135.687 48.803C135.609 48.867 135.585 48.9337 135.601 48.947Z" fill="#001E49"/>
<path d="M138.329 49.0933C138.331 49.1265 138.339 49.159 138.354 49.1889C138.368 49.2189 138.388 49.2457 138.413 49.2677C138.438 49.2898 138.467 49.3068 138.498 49.3176C138.53 49.3284 138.563 49.3328 138.596 49.3306C138.628 49.3306 138.659 49.3243 138.688 49.3121C138.718 49.2999 138.744 49.282 138.767 49.2594C138.789 49.2368 138.807 49.2101 138.819 49.1806C138.83 49.1512 138.836 49.1197 138.836 49.088C138.834 49.0548 138.826 49.0223 138.812 48.9923C138.797 48.9624 138.777 48.9356 138.752 48.9135C138.728 48.8914 138.699 48.8745 138.667 48.8637C138.636 48.8529 138.603 48.8485 138.569 48.8506C138.538 48.8506 138.506 48.8569 138.477 48.8691C138.448 48.8814 138.421 48.8993 138.399 48.9219C138.376 48.9444 138.359 48.9712 138.347 49.0006C138.335 49.0301 138.329 49.0616 138.329 49.0933Z" fill="#001E49"/>
<path d="M138.247 48.8161C138.279 48.8481 138.457 48.6961 138.727 48.6775C138.996 48.6588 139.201 48.7815 139.228 48.7468C139.255 48.7121 139.207 48.6748 139.116 48.6161C138.995 48.5438 138.854 48.5112 138.713 48.5228C138.573 48.5306 138.439 48.584 138.332 48.6748C138.255 48.7441 138.231 48.8028 138.247 48.8161Z" fill="#001E49"/>
<path d="M137.407 50.875C137.261 50.8423 137.113 50.8262 136.964 50.827C136.895 50.827 136.828 50.827 136.815 50.7683C136.804 50.6982 136.815 50.6264 136.847 50.563L137.015 50.0297C137.171 49.5738 137.292 49.1066 137.377 48.6323C137.182 49.0738 137.024 49.5304 136.903 49.9977C136.847 50.1843 136.793 50.363 136.743 50.531C136.708 50.6156 136.702 50.7095 136.727 50.7977C136.738 50.8209 136.755 50.8412 136.776 50.8569C136.797 50.8726 136.821 50.8834 136.847 50.8883C136.886 50.8934 136.925 50.8934 136.964 50.8883C137.112 50.9036 137.26 50.8991 137.407 50.875Z" fill="#001E49"/>
<path d="M138.209 51C138.164 51 138.185 51.2907 137.943 51.5147C137.7 51.7387 137.409 51.728 137.409 51.7813C137.409 51.8347 137.481 51.832 137.615 51.8267C137.785 51.8167 137.946 51.7479 138.071 51.632C138.19 51.5189 138.262 51.3643 138.271 51.2C138.265 51.0747 138.228 51 138.209 51Z" fill="#001E49"/>
<path d="M138.1 47.768C138.132 47.84 138.396 47.7866 138.713 47.8053C139.031 47.824 139.292 47.8906 139.329 47.8213C139.367 47.752 139.297 47.7226 139.191 47.6586C139.049 47.5796 138.889 47.5357 138.727 47.5306C138.564 47.5223 138.401 47.5525 138.252 47.6186C138.145 47.6746 138.1 47.736 138.1 47.768Z" fill="#001E49"/>
<path d="M135.647 48.1627C135.7 48.2187 135.879 48.144 136.103 48.1253C136.327 48.1067 136.516 48.1387 136.556 48.072C136.596 48.0053 136.537 47.9813 136.452 47.928C136.337 47.8665 136.206 47.8405 136.076 47.8533C135.946 47.8661 135.822 47.9172 135.721 48C135.647 48.0667 135.625 48.1333 135.647 48.1627Z" fill="#001E49"/>
<path d="M141.567 47.7333C141.553 48.2213 141.601 48.7093 141.588 49.1973C141.572 49.3817 141.525 49.562 141.449 49.7307C141.424 49.8284 141.369 49.9157 141.291 49.9804C141.214 50.045 141.118 50.0838 141.017 50.0911C140.917 50.0985 140.816 50.0741 140.73 50.0214C140.644 49.9687 140.577 49.8903 140.537 49.7973C140.442 49.6047 140.391 49.3934 140.388 49.1787C140.386 48.9637 140.35 48.7503 140.281 48.5467C140.168 48.3355 140.032 48.137 139.876 47.9547C139.8 47.862 139.746 47.7528 139.718 47.6358C139.691 47.5187 139.691 47.397 139.719 47.28C140.364 47.2602 141.003 47.416 141.567 47.7307" fill="#001E49"/>
<path d="M135.103 47.9493L135.073 46.9706L137.873 45.9253L141.513 46.7253L141.583 47.776C139.479 47.0071 137.162 47.0691 135.103 47.9493Z" fill="white"/>
<path d="M135.103 47.9493L135.073 46.9706L137.873 45.9253L141.513 46.7253L141.583 47.776C139.479 47.0071 137.162 47.0691 135.103 47.9493Z" fill="#001E49" fill-opacity="0.6"/>
<path d="M135.239 46.7521L135.121 46.8801L134.137 47.5974C135.426 47.1656 136.763 46.8969 138.119 46.7974C139.607 46.7634 141.094 46.9031 142.551 47.2134L141.143 46.4907C140.914 46.2773 140.645 46.1119 140.351 46.0042C140.058 45.8966 139.746 45.8489 139.433 45.8641L136.863 45.9867C136.555 46.0013 136.253 46.0764 135.974 46.2078C135.696 46.3391 135.446 46.524 135.239 46.7521Z" fill="#C3262C"/>
<path d="M137.033 45.8986C137.081 45.4442 137.093 44.9869 137.071 44.5306C137.082 44.0735 137.059 43.6162 137.001 43.1626C136.951 43.6168 136.938 44.0744 136.964 44.5306C136.951 44.9877 136.974 45.4451 137.033 45.8986Z" fill="#001E49"/>
<path d="M139.284 43.0857C139.126 43.0276 138.961 42.9917 138.793 42.979C138.742 42.983 138.693 43.0063 138.657 43.0443C138.622 43.0823 138.602 43.1323 138.601 43.1843L138.617 43.4723C138.636 43.6777 138.652 43.8963 138.671 44.123C138.708 44.587 138.751 45.0057 138.785 45.307C138.793 45.4722 138.82 45.636 138.865 45.795C138.885 45.6311 138.885 45.4655 138.865 45.3017C138.849 44.9977 138.82 44.579 138.78 44.1177C138.759 43.8883 138.74 43.6697 138.721 43.4643C138.721 43.3683 138.7 43.275 138.692 43.1843C138.692 43.1527 138.703 43.122 138.724 43.098C138.744 43.0739 138.773 43.0582 138.804 43.0537C138.963 43.0773 139.124 43.088 139.284 43.0857Z" fill="#001E49"/>
<path d="M134.071 47.5893C134.071 47.5893 134.188 47.5306 134.404 47.4373C134.511 47.3893 134.641 47.3359 134.791 47.2533C134.964 47.1637 135.112 47.0315 135.22 46.8692C135.345 46.6826 135.353 46.4346 135.487 46.2479C135.62 46.0612 135.897 46.0319 136.169 46.0053C136.719 45.9439 137.324 45.8986 137.961 45.8719C138.599 45.8453 139.209 45.8399 139.761 45.8453C140.015 45.824 140.268 45.8899 140.479 46.0319C140.564 46.1136 140.642 46.2028 140.711 46.2986L140.82 46.4293L140.876 46.4906C140.899 46.5115 140.925 46.5286 140.953 46.5413C141.348 46.6986 141.671 46.8079 141.892 46.8799C142.004 46.9262 142.119 46.9654 142.236 46.9973C142.21 46.9784 142.182 46.9623 142.153 46.9493C142.097 46.9226 142.015 46.8852 141.905 46.8399C141.692 46.7466 141.372 46.6346 140.988 46.4719C140.968 46.4627 140.949 46.4511 140.932 46.4373L140.881 46.3759L140.777 46.2453C140.705 46.15 140.624 46.0609 140.537 45.9786C140.313 45.8174 140.039 45.74 139.764 45.7599C139.209 45.7599 138.599 45.7599 137.959 45.7786C137.319 45.7973 136.708 45.8532 136.156 45.9199C136.019 45.9306 135.884 45.952 135.751 45.9839C135.623 46.0165 135.511 46.0929 135.433 46.1999C135.279 46.4186 135.279 46.6666 135.167 46.8319C135.069 46.987 134.933 47.1145 134.772 47.2026C134.631 47.2879 134.505 47.3492 134.396 47.4026C134.287 47.4559 134.212 47.5013 134.159 47.5333C134.127 47.5476 134.097 47.5664 134.071 47.5893Z" fill="#001E49"/>
<path d="M134.465 47.7146C134.491 47.7037 134.515 47.6893 134.537 47.672C134.583 47.64 134.652 47.5973 134.743 47.5466C135.006 47.4155 135.282 47.311 135.567 47.2346C136.51 46.987 137.483 46.8739 138.457 46.8986C139.031 46.8986 139.575 46.8986 140.057 46.92C140.54 46.9413 140.993 47.0186 141.361 47.08C141.527 47.108 141.69 47.1445 141.852 47.1893C141.974 47.2115 142.09 47.2607 142.191 47.3333C142.231 47.3652 142.263 47.4058 142.284 47.452C142.306 47.4983 142.317 47.5489 142.316 47.6C142.331 47.5742 142.337 47.5441 142.332 47.5146C142.323 47.4298 142.283 47.3512 142.22 47.2933C142.119 47.209 141.999 47.1496 141.871 47.12C141.708 47.0694 141.542 47.0275 141.375 46.9946C140.942 46.91 140.505 46.8486 140.065 46.8106C139.567 46.7733 139.017 46.784 138.447 46.7813C137.463 46.7548 136.481 46.8799 135.535 47.152C135.247 47.2336 134.97 47.3509 134.711 47.5013C134.641 47.5423 134.575 47.5896 134.513 47.6426C134.481 47.6906 134.463 47.712 134.465 47.7146Z" fill="#001E49"/>
<path d="M137.447 42.8399C137.535 42.8467 137.625 42.8467 137.713 42.8399L138.359 42.8159C138.609 42.8159 138.841 42.7759 139.001 42.7919C139.045 42.7936 139.087 42.8047 139.126 42.8245C139.165 42.8443 139.199 42.8723 139.225 42.9066C139.225 42.9066 139.225 42.8799 139.188 42.8453C139.137 42.7986 139.073 42.7696 139.004 42.7626C138.788 42.7458 138.572 42.7458 138.356 42.7626L137.711 42.7999C137.621 42.8033 137.533 42.8167 137.447 42.8399Z" fill="white"/>
<path d="M137.447 42.8399C137.535 42.8467 137.625 42.8467 137.713 42.8399L138.359 42.8159C138.609 42.8159 138.841 42.7759 139.001 42.7919C139.045 42.7936 139.087 42.8047 139.126 42.8245C139.165 42.8443 139.199 42.8723 139.225 42.9066C139.225 42.9066 139.225 42.8799 139.188 42.8453C139.137 42.7986 139.073 42.7696 139.004 42.7626C138.788 42.7458 138.572 42.7458 138.356 42.7626L137.711 42.7999C137.621 42.8033 137.533 42.8167 137.447 42.8399Z" fill="#2C363F" fill-opacity="0.2"/>
<path d="M137.335 46.0056C137.38 46.0102 137.426 46.0102 137.471 46.0056H137.839C138.151 46.0056 138.58 46.0056 139.055 46.0056L139.724 46.0216C139.903 46.0206 140.081 46.0348 140.257 46.0642C140.377 46.089 140.484 46.1539 140.561 46.2482C140.587 46.2837 140.609 46.3222 140.625 46.3629C140.62 46.3173 140.603 46.2739 140.575 46.2376C140.499 46.1353 140.389 46.0634 140.265 46.0349C140.09 46.0009 139.911 45.983 139.732 45.9816C139.527 45.9816 139.3 45.9656 139.063 45.9629C138.585 45.9629 138.156 45.9629 137.844 45.9762L137.476 45.9949C137.429 45.9943 137.381 45.9978 137.335 46.0056Z" fill="white"/>
<path d="M137.335 46.0056C137.38 46.0102 137.426 46.0102 137.471 46.0056H137.839C138.151 46.0056 138.58 46.0056 139.055 46.0056L139.724 46.0216C139.903 46.0206 140.081 46.0348 140.257 46.0642C140.377 46.089 140.484 46.1539 140.561 46.2482C140.587 46.2837 140.609 46.3222 140.625 46.3629C140.62 46.3173 140.603 46.2739 140.575 46.2376C140.499 46.1353 140.389 46.0634 140.265 46.0349C140.09 46.0009 139.911 45.983 139.732 45.9816C139.527 45.9816 139.3 45.9656 139.063 45.9629C138.585 45.9629 138.156 45.9629 137.844 45.9762L137.476 45.9949C137.429 45.9943 137.381 45.9978 137.335 46.0056Z" fill="#2C363F" fill-opacity="0.2"/>
<path d="M138.74 45.5309C138.744 45.499 138.744 45.4668 138.74 45.4349C138.74 45.3469 138.716 45.2616 138.703 45.1683C138.673 44.9469 138.636 44.6349 138.601 44.3016C138.567 43.9683 138.548 43.6563 138.535 43.4349C138.535 43.3443 138.529 43.2554 138.519 43.1683C138.523 43.1364 138.523 43.1041 138.519 43.0723C138.515 43.1041 138.515 43.1364 138.519 43.1683C138.519 43.2296 138.519 43.3203 138.519 43.4349C138.519 43.6589 138.54 43.9683 138.572 44.3069C138.604 44.6456 138.649 44.9523 138.687 45.1709C138.705 45.2829 138.724 45.3709 138.737 45.4376C138.734 45.4687 138.735 45.5001 138.74 45.5309Z" fill="white"/>
<path d="M138.74 45.5309C138.744 45.499 138.744 45.4668 138.74 45.4349C138.74 45.3469 138.716 45.2616 138.703 45.1683C138.673 44.9469 138.636 44.6349 138.601 44.3016C138.567 43.9683 138.548 43.6563 138.535 43.4349C138.535 43.3443 138.529 43.2554 138.519 43.1683C138.523 43.1364 138.523 43.1041 138.519 43.0723C138.515 43.1041 138.515 43.1364 138.519 43.1683C138.519 43.2296 138.519 43.3203 138.519 43.4349C138.519 43.6589 138.54 43.9683 138.572 44.3069C138.604 44.6456 138.649 44.9523 138.687 45.1709C138.705 45.2829 138.724 45.3709 138.737 45.4376C138.734 45.4687 138.735 45.5001 138.74 45.5309Z" fill="#2C363F" fill-opacity="0.2"/>
<path d="M140.959 46.5923C140.986 46.6078 141.014 46.6204 141.044 46.6296L141.279 46.7176L142.057 46.9843C142.201 47.03 142.342 47.0844 142.479 47.147C142.588 47.1975 142.676 47.2854 142.727 47.395C142.76 47.4696 142.768 47.5526 142.751 47.6323C142.732 47.6856 142.711 47.7123 142.716 47.715C142.739 47.6933 142.756 47.6669 142.767 47.6376C142.797 47.5559 142.797 47.466 142.767 47.3843C142.713 47.2659 142.618 47.1711 142.5 47.1176C142.363 47.0502 142.22 46.994 142.073 46.9496L141.289 46.683L141.052 46.6083C141.022 46.5991 140.99 46.5938 140.959 46.5923Z" fill="white"/>
<path d="M140.959 46.5923C140.986 46.6078 141.014 46.6204 141.044 46.6296L141.279 46.7176L142.057 46.9843C142.201 47.03 142.342 47.0844 142.479 47.147C142.588 47.1975 142.676 47.2854 142.727 47.395C142.76 47.4696 142.768 47.5526 142.751 47.6323C142.732 47.6856 142.711 47.7123 142.716 47.715C142.739 47.6933 142.756 47.6669 142.767 47.6376C142.797 47.5559 142.797 47.466 142.767 47.3843C142.713 47.2659 142.618 47.1711 142.5 47.1176C142.363 47.0502 142.22 46.994 142.073 46.9496L141.289 46.683L141.052 46.6083C141.022 46.5991 140.99 46.5938 140.959 46.5923Z" fill="#2C363F" fill-opacity="0.2"/>
<path d="M121.249 94.2481L121.492 98.5788C121.492 98.5788 117.172 100.277 117.14 101.08L125.551 100.915L125.449 94.1548L121.249 94.2481Z" fill="#C3262C"/>
<g opacity="0.4">
<path d="M121.249 94.2481L121.492 98.5788C121.492 98.5788 117.172 100.277 117.14 101.08L125.551 100.915L125.449 94.1548L121.249 94.2481Z" fill="black"/>
</g>
<path d="M124.084 98.1626C124.166 98.1852 124.236 98.2373 124.281 98.3087C124.326 98.3802 124.344 98.4659 124.329 98.5493C124.31 98.6314 124.259 98.7028 124.188 98.7485C124.117 98.7942 124.031 98.8107 123.948 98.7946C123.86 98.7724 123.784 98.7178 123.734 98.6416C123.685 98.5655 123.666 98.4734 123.681 98.384C123.711 98.3008 123.772 98.2322 123.851 98.1925C123.93 98.1527 124.021 98.1449 124.105 98.1706" fill="white"/>
<path d="M124.084 98.1626C124.166 98.1852 124.236 98.2373 124.281 98.3087C124.326 98.3802 124.344 98.4659 124.329 98.5493C124.31 98.6314 124.259 98.7028 124.188 98.7485C124.117 98.7942 124.031 98.8107 123.948 98.7946C123.86 98.7724 123.784 98.7178 123.734 98.6416C123.685 98.5655 123.666 98.4734 123.681 98.384C123.711 98.3008 123.772 98.2322 123.851 98.1925C123.93 98.1527 124.021 98.1449 124.105 98.1706" fill="#2C363F" fill-opacity="0.2"/>
<path d="M125.551 100.915L125.513 100.235L117.463 100.648C117.463 100.648 117.092 100.819 117.14 101.08L125.551 100.915Z" fill="white"/>
<path d="M125.551 100.915L125.513 100.235L117.463 100.648C117.463 100.648 117.092 100.819 117.14 101.08L125.551 100.915Z" fill="#2C363F" fill-opacity="0.2"/>
<path d="M121.356 98.5389C121.356 98.5789 121.561 98.5922 121.767 98.7202C121.972 98.8482 122.084 99.0189 122.121 99.0029C122.159 98.9869 122.092 98.7496 121.841 98.6002C121.591 98.4509 121.345 98.5016 121.356 98.5389Z" fill="#001E49"/>
<path d="M120.479 98.9199C120.479 98.9599 120.649 99.0266 120.793 99.1866C120.937 99.3466 120.98 99.5412 121.02 99.5386C121.06 99.5359 121.084 99.3012 120.903 99.0932C120.721 98.8852 120.479 98.8799 120.479 98.9199Z" fill="#001E49"/>
<path d="M119.999 99.9865C120.036 99.9865 120.089 99.7865 119.98 99.5652C119.871 99.3439 119.676 99.2559 119.66 99.2985C119.644 99.3412 119.764 99.4505 119.852 99.6345C119.94 99.8185 119.967 99.9812 119.999 99.9865Z" fill="#001E49"/>
<path d="M121.409 97.5441C121.428 97.5814 121.615 97.5227 121.847 97.5441C122.079 97.5654 122.263 97.6241 122.281 97.5894C122.3 97.5547 122.127 97.4107 121.852 97.4001C121.577 97.3894 121.388 97.5121 121.409 97.5441Z" fill="#001E49"/>
<g opacity="0.3">
<path d="M121.3 95.1069L121.34 95.8775L125.473 95.7575L125.465 95.0615L121.3 95.1069Z" fill="black"/>
</g>
<path d="M121.377 96.672C121.516 96.7084 121.661 96.7084 121.799 96.672C121.949 96.6403 122.096 96.592 122.236 96.528C122.319 96.4881 122.399 96.4436 122.476 96.3947C122.522 96.3662 122.564 96.3321 122.601 96.2933C122.627 96.2631 122.642 96.2256 122.644 96.1862C122.647 96.1468 122.636 96.1077 122.615 96.0747C122.594 96.0463 122.566 96.0234 122.535 96.0076C122.503 95.9919 122.469 95.9838 122.433 95.984C122.38 95.9829 122.327 95.991 122.276 96.008C122.184 96.0304 122.095 96.0626 122.009 96.104C121.868 96.1724 121.739 96.2624 121.625 96.3707C121.436 96.5547 121.372 96.7093 121.385 96.7173C121.399 96.7253 121.497 96.6 121.692 96.4507C121.807 96.362 121.932 96.2885 122.065 96.232C122.143 96.199 122.223 96.1722 122.305 96.152C122.393 96.1253 122.468 96.1253 122.492 96.152C122.516 96.1787 122.492 96.1733 122.492 96.2C122.465 96.2286 122.435 96.2537 122.401 96.2747C122.33 96.3225 122.256 96.3662 122.18 96.4053C122.051 96.4728 121.917 96.5282 121.777 96.5707C121.642 96.5934 121.508 96.6272 121.377 96.672Z" fill="#001E49"/>
<path d="M121.431 96.7281C121.447 96.7281 121.524 96.5867 121.535 96.3201C121.538 96.1637 121.515 96.0078 121.468 95.8587C121.44 95.7662 121.403 95.6768 121.356 95.592C121.333 95.5378 121.296 95.4905 121.25 95.4545C121.203 95.4186 121.148 95.3952 121.089 95.3867C121.052 95.3883 121.016 95.4004 120.985 95.4216C120.955 95.4429 120.931 95.4724 120.916 95.5067C120.896 95.5564 120.883 95.6083 120.876 95.6614C120.863 95.7551 120.863 95.8503 120.876 95.9441C120.903 96.1013 120.968 96.2496 121.065 96.376C121.233 96.592 121.407 96.6427 121.409 96.624C121.412 96.6054 121.279 96.5254 121.143 96.3201C121.067 96.2003 121.019 96.0656 121.001 95.9254C120.989 95.8449 120.989 95.7632 121.001 95.6827C121.001 95.592 121.044 95.5201 121.079 95.5281C121.113 95.5361 121.193 95.592 121.228 95.664C121.272 95.7355 121.309 95.8115 121.337 95.8907C121.388 96.0252 121.418 96.1662 121.428 96.3094C121.449 96.568 121.409 96.7227 121.431 96.7281Z" fill="#001E49"/>
<path d="M143.967 75.8562C143.967 75.8562 143.047 80.5709 141.521 80.6375C139.655 80.7175 126.095 80.9042 126.095 80.9042L126.9 96.0002L120.985 95.8589L118.633 80.9815C118.371 79.6468 118.594 78.2621 119.263 77.0775L119.311 76.9949C119.816 76.1635 120.527 75.4761 121.374 74.9984C122.222 74.5207 123.178 74.2688 124.151 74.2669L135.412 74.0962L143.967 75.8562Z" fill="#001E49"/>
<path d="M123.551 94.2481L123.791 98.5788C123.791 98.5788 119.471 100.277 119.439 101.08L127.849 100.915L127.748 94.1548L123.551 94.2481Z" fill="#C3262C"/>
<path d="M126.383 98.1626C126.464 98.1852 126.535 98.2373 126.58 98.3087C126.625 98.3802 126.642 98.4659 126.628 98.5493C126.609 98.6318 126.558 98.7035 126.487 98.7493C126.416 98.7952 126.33 98.8114 126.247 98.7946C126.159 98.7724 126.082 98.7178 126.033 98.6416C125.983 98.5655 125.965 98.4734 125.98 98.384C126.01 98.3008 126.07 98.2322 126.149 98.1925C126.228 98.1527 126.319 98.1449 126.404 98.1706" fill="white"/>
<path d="M126.383 98.1626C126.464 98.1852 126.535 98.2373 126.58 98.3087C126.625 98.3802 126.642 98.4659 126.628 98.5493C126.609 98.6318 126.558 98.7035 126.487 98.7493C126.416 98.7952 126.33 98.8114 126.247 98.7946C126.159 98.7724 126.082 98.7178 126.033 98.6416C125.983 98.5655 125.965 98.4734 125.98 98.384C126.01 98.3008 126.07 98.2322 126.149 98.1925C126.228 98.1527 126.319 98.1449 126.404 98.1706" fill="#2C363F" fill-opacity="0.2"/>
<path d="M127.849 100.915L127.812 100.235L119.761 100.648C119.761 100.648 119.391 100.819 119.439 101.08L127.849 100.915Z" fill="white"/>
<path d="M127.849 100.915L127.812 100.235L119.761 100.648C119.761 100.648 119.391 100.819 119.439 101.08L127.849 100.915Z" fill="#2C363F" fill-opacity="0.2"/>
<path d="M123.655 98.5389C123.655 98.5789 123.863 98.5922 124.065 98.7202C124.268 98.8482 124.383 99.0189 124.42 99.0029C124.457 98.9869 124.391 98.7496 124.14 98.6002C123.889 98.4509 123.644 98.5016 123.655 98.5389Z" fill="#001E49"/>
<path d="M122.78 98.9199C122.78 98.9599 122.951 99.0266 123.092 99.1866C123.233 99.3466 123.279 99.5412 123.319 99.5386C123.359 99.5359 123.383 99.3012 123.201 99.0932C123.02 98.8852 122.78 98.8799 122.78 98.9199Z" fill="#001E49"/>
<path d="M122.297 99.9865C122.337 99.9865 122.388 99.7865 122.279 99.5652C122.169 99.3439 121.975 99.2559 121.959 99.2985C121.943 99.3412 122.063 99.4505 122.151 99.6345C122.239 99.8185 122.257 99.9812 122.297 99.9865Z" fill="#001E49"/>
<path d="M123.7 97.5441C123.719 97.5814 123.905 97.5227 124.137 97.5441C124.369 97.5654 124.553 97.6241 124.572 97.5894C124.591 97.5547 124.417 97.4107 124.143 97.4001C123.868 97.3894 123.7 97.5121 123.7 97.5441Z" fill="#001E49"/>
<g opacity="0.3">
<path d="M123.599 95.1069L123.641 95.8775L127.772 95.7575L127.764 95.0615L123.599 95.1069Z" fill="black"/>
</g>
<path d="M123.676 96.672C123.814 96.7084 123.959 96.7084 124.097 96.672C124.248 96.6403 124.395 96.592 124.535 96.528C124.617 96.4887 124.698 96.4442 124.775 96.3947C124.82 96.3662 124.863 96.3321 124.9 96.2933C124.925 96.2631 124.94 96.2256 124.943 96.1862C124.945 96.1468 124.935 96.1077 124.913 96.0747C124.892 96.0463 124.865 96.0234 124.834 96.0076C124.802 95.9919 124.767 95.9838 124.732 95.984C124.679 95.9829 124.625 95.991 124.575 96.008C124.483 96.0304 124.393 96.0626 124.308 96.104C124.167 96.1717 124.039 96.2618 123.927 96.3707C123.735 96.5547 123.66 96.7093 123.684 96.7173C123.708 96.7253 123.796 96.6 123.991 96.4507C124.105 96.362 124.231 96.2885 124.364 96.232C124.442 96.199 124.522 96.1722 124.604 96.152C124.692 96.1253 124.767 96.1253 124.791 96.152C124.815 96.1787 124.791 96.1733 124.791 96.2C124.764 96.2286 124.733 96.2537 124.7 96.2747C124.629 96.3225 124.555 96.3662 124.479 96.4053C124.35 96.4728 124.215 96.5282 124.076 96.5707C123.94 96.5934 123.806 96.6272 123.676 96.672Z" fill="#001E49"/>
<path d="M123.729 96.7281C123.745 96.7281 123.823 96.5867 123.833 96.3201C123.838 96.1636 123.815 96.0075 123.767 95.8587C123.739 95.7662 123.701 95.6768 123.655 95.592C123.632 95.5378 123.595 95.4905 123.548 95.4545C123.502 95.4186 123.446 95.3952 123.388 95.3867C123.351 95.3883 123.315 95.4004 123.284 95.4216C123.253 95.4429 123.229 95.4724 123.215 95.5067C123.195 95.5564 123.181 95.6083 123.175 95.6614C123.161 95.7551 123.161 95.8503 123.175 95.9441C123.202 96.1013 123.267 96.2496 123.364 96.376C123.532 96.592 123.705 96.6427 123.708 96.624C123.711 96.6054 123.577 96.5254 123.441 96.3201C123.366 96.2003 123.318 96.0656 123.3 95.9254C123.288 95.8449 123.288 95.7632 123.3 95.6827C123.313 95.592 123.345 95.5201 123.377 95.5281C123.409 95.5361 123.492 95.592 123.527 95.664C123.571 95.7355 123.608 95.8115 123.636 95.8907C123.686 96.0252 123.717 96.1662 123.727 96.3094C123.748 96.568 123.7 96.7227 123.729 96.7281Z" fill="#001E49"/>
<path d="M145.449 75.8562C145.449 75.8562 144.532 80.5709 143.004 80.6375C141.137 80.7175 127.577 80.9042 127.577 80.9042L128.401 96.0002L122.487 95.8589L120.121 80.9815C119.859 79.6468 120.082 78.2621 120.751 77.0775L120.799 76.9949C121.304 76.1632 122.015 75.4754 122.863 74.9977C123.711 74.52 124.668 74.2683 125.641 74.2669L136.9 74.0962L145.449 75.8562Z" fill="#001E49"/>
<path d="M133.913 56.928L135.7 68.7893L134.492 74.1227L145.463 77.352C146.455 75.9333 146.492 71.4293 146.457 68.2427C146.396 62.6267 146.644 62.3547 146.401 60.384C146.159 58.4133 145.745 57.1493 144.705 56.528L141.713 55C141.713 55 140.028 56.0667 139.001 56.016C139.001 56.016 137.783 56.0667 137.108 55.4187C137.108 55.4107 134.633 56.1573 133.913 56.928Z" fill="#C3262C"/>
<path d="M133.913 56.9282L130.257 61.9682L135.236 64.8909L134.855 63.0589L133.913 56.9282Z" fill="#C3262C"/>
<path d="M125.201 74.3387C125.18 74.3432 125.159 74.3432 125.137 74.3387L124.953 74.3521C124.852 74.3588 124.752 74.3713 124.652 74.3894C124.516 74.4057 124.382 74.4307 124.249 74.4641C123.4 74.6727 122.616 75.0886 121.967 75.6747C121.521 76.0769 121.137 76.5433 120.828 77.0587C120.475 77.6493 120.255 78.3101 120.185 78.9947C120.122 79.7554 120.15 80.521 120.271 81.2747C120.38 82.0747 120.537 82.8747 120.62 83.7254C120.809 85.4054 121.063 87.0001 121.3 88.4481C121.537 89.8961 121.767 91.1947 121.951 92.2934C122.135 93.3921 122.279 94.2747 122.367 94.8907C122.407 95.1894 122.439 95.4241 122.463 95.6001C122.463 95.6747 122.479 95.7334 122.484 95.7841C122.486 95.8053 122.486 95.8268 122.484 95.8481C122.476 95.8285 122.47 95.8079 122.468 95.7867C122.468 95.7361 122.447 95.6774 122.431 95.6027L122.311 94.8987C122.199 94.2747 122.044 93.3947 121.852 92.3094C121.66 91.2241 121.428 89.9094 121.172 88.4694C120.916 87.0294 120.668 85.4267 120.479 83.7387C120.393 82.8987 120.241 82.0881 120.135 81.2934C120.013 80.529 119.987 79.7523 120.057 78.9814C120.131 78.2795 120.36 77.6027 120.727 77.0001C121.044 76.4763 121.44 76.0041 121.9 75.6001C122.565 75.0116 123.369 74.6023 124.236 74.4107C124.553 74.3431 124.878 74.3189 125.201 74.3387Z" fill="white"/>
<path d="M125.201 74.3387C125.18 74.3432 125.159 74.3432 125.137 74.3387L124.953 74.3521C124.852 74.3588 124.752 74.3713 124.652 74.3894C124.516 74.4057 124.382 74.4307 124.249 74.4641C123.4 74.6727 122.616 75.0886 121.967 75.6747C121.521 76.0769 121.137 76.5433 120.828 77.0587C120.475 77.6493 120.255 78.3101 120.185 78.9947C120.122 79.7554 120.15 80.521 120.271 81.2747C120.38 82.0747 120.537 82.8747 120.62 83.7254C120.809 85.4054 121.063 87.0001 121.3 88.4481C121.537 89.8961 121.767 91.1947 121.951 92.2934C122.135 93.3921 122.279 94.2747 122.367 94.8907C122.407 95.1894 122.439 95.4241 122.463 95.6001C122.463 95.6747 122.479 95.7334 122.484 95.7841C122.486 95.8053 122.486 95.8268 122.484 95.8481C122.476 95.8285 122.47 95.8079 122.468 95.7867C122.468 95.7361 122.447 95.6774 122.431 95.6027L122.311 94.8987C122.199 94.2747 122.044 93.3947 121.852 92.3094C121.66 91.2241 121.428 89.9094 121.172 88.4694C120.916 87.0294 120.668 85.4267 120.479 83.7387C120.393 82.8987 120.241 82.0881 120.135 81.2934C120.013 80.529 119.987 79.7523 120.057 78.9814C120.131 78.2795 120.36 77.6027 120.727 77.0001C121.044 76.4763 121.44 76.0041 121.9 75.6001C122.565 75.0116 123.369 74.6023 124.236 74.4107C124.553 74.3431 124.878 74.3189 125.201 74.3387Z" fill="#001E49" fill-opacity="0.6"/>
<path d="M129.404 70.6774C129.404 70.6774 133.636 72.0427 136.927 73.2347C137.485 73.4375 138.086 73.4988 138.674 73.4132C139.262 73.3276 139.82 73.0977 140.297 72.744C140.909 72.2933 141.362 71.6603 141.591 70.936L143.844 63.8374L140.081 62.52L137.567 68.9014L128.207 67.672" fill="#ECB2AA"/>
<path d="M123.807 69.2133L123.772 68.8773C123.795 68.6292 123.898 68.3953 124.065 68.2107C124.156 68.1099 124.265 68.0267 124.385 67.9653L125.492 67.3867C125.657 67.303 125.843 67.2732 126.025 67.3013L128.295 67.688L130.9 68.0293L130.367 71L129.161 70.6C129.161 70.6 128.289 71.0827 127.751 70.968C127.751 70.968 127.252 71.3013 127.047 71.056C127.047 71.056 126.601 71.44 126.433 71.416C126.265 71.392 125.935 71.1973 125.948 71.0827L125.961 70.928C125.876 70.9748 125.779 70.9973 125.682 70.9931C125.585 70.9888 125.49 70.958 125.409 70.904C125.294 70.8145 125.206 70.6943 125.156 70.5573C124.948 70.5356 124.752 70.4509 124.593 70.3147C124.489 70.1609 124.419 69.9862 124.388 69.8027C124.388 69.8027 123.889 69.56 123.807 69.2133Z" fill="#ECB2AA"/>
<path d="M125.481 68.1387C125.497 68.1387 125.524 68.2613 125.468 68.448C125.385 68.6844 125.248 68.8982 125.068 69.072C124.868 69.2773 124.681 69.4453 124.567 69.584C124.452 69.7227 124.391 69.8187 124.372 69.8107C124.353 69.8027 124.372 69.6853 124.489 69.5253C124.631 69.3274 124.791 69.1435 124.967 68.976C125.133 68.8121 125.272 68.622 125.377 68.4133C125.449 68.2533 125.457 68.1387 125.481 68.1387Z" fill="#ECB2AA"/>
<path d="M125.913 69.3256C125.786 69.8025 125.511 70.2265 125.127 70.5363C125.225 70.3153 125.35 70.1074 125.5 69.9176C125.716 69.5869 125.876 69.3069 125.913 69.3256Z" fill="#ECB2AA"/>
<path d="M126.492 70.1093C126.524 70.1307 126.431 70.3227 126.281 70.5413C126.132 70.76 125.988 70.92 125.956 70.896C125.924 70.872 126.02 70.68 126.167 70.464C126.313 70.248 126.46 70.088 126.492 70.1093Z" fill="#ECB2AA"/>
<path d="M126.385 69.7974C126.385 69.8134 126.327 69.816 126.257 69.7734C126.212 69.7432 126.174 69.7039 126.145 69.6579C126.116 69.612 126.097 69.5604 126.089 69.5067C126.08 69.4541 126.082 69.4001 126.096 69.3485C126.11 69.2969 126.135 69.2489 126.169 69.208C126.22 69.1467 126.271 69.1307 126.284 69.144C126.297 69.1574 126.196 69.3067 126.225 69.4854C126.255 69.664 126.401 69.7627 126.385 69.7974Z" fill="#ECB2AA"/>
<path d="M127.017 70.595C127.017 70.611 126.969 70.6137 126.911 70.595C126.873 70.5727 126.841 70.5429 126.815 70.5076C126.789 70.4724 126.771 70.4322 126.761 70.3897C126.745 70.3432 126.743 70.2927 126.756 70.2451C126.769 70.1974 126.796 70.1549 126.833 70.123C126.903 70.075 126.956 70.107 126.951 70.123C126.921 70.1507 126.901 70.1864 126.891 70.2257C126.882 70.265 126.884 70.3063 126.897 70.3443C126.927 70.4803 127.033 70.5603 127.017 70.595Z" fill="#ECB2AA"/>
<path d="M126.017 68.9494C126.017 68.9654 125.959 68.9788 125.879 68.9494C125.825 68.9235 125.78 68.8843 125.746 68.8356C125.712 68.7868 125.692 68.7302 125.686 68.6712C125.681 68.6122 125.691 68.5527 125.715 68.4987C125.74 68.4447 125.778 68.3979 125.825 68.3628C125.897 68.3121 125.956 68.3174 125.959 68.3334C125.961 68.3494 125.809 68.4694 125.825 68.6588C125.841 68.8481 126.028 68.9174 126.017 68.9494Z" fill="#ECB2AA"/>
<path d="M143.863 57.4906C143.004 57.1173 141.945 57.4907 141.324 58.1413C140.703 58.792 140.417 59.6426 140.151 60.4693C139.884 61.296 139.249 62.888 138.991 63.6853L143.868 65.7733C144.284 64.648 144.672 63.5129 145.031 62.368C145.335 61.408 145.617 60.3733 145.265 59.4187" fill="#C3262C"/>
<path d="M145.265 59.4188C145.287 59.4555 145.304 59.4949 145.316 59.5361C145.358 59.651 145.39 59.7698 145.409 59.8908C145.486 60.3439 145.474 60.8074 145.375 61.2561C145.226 61.9393 145.029 62.6111 144.785 63.2668C144.519 64.0294 144.252 64.8801 143.935 65.7948L143.911 65.8614L143.841 65.8321L140.407 64.3654L138.961 63.7468L138.903 63.7201L138.921 63.6668C139.316 62.5041 139.756 61.4401 140.087 60.4668C140.232 59.9951 140.41 59.5344 140.62 59.0881C140.808 58.6897 141.067 58.3285 141.383 58.0214C141.866 57.5659 142.505 57.3139 143.169 57.3174C143.351 57.3231 143.531 57.3554 143.703 57.4134C143.761 57.4337 143.817 57.4586 143.871 57.4881C143.646 57.4136 143.411 57.3722 143.175 57.3654C142.532 57.3794 141.917 57.6356 141.455 58.0828C141.154 58.3829 140.908 58.7342 140.729 59.1201C140.527 59.5645 140.356 60.0225 140.217 60.4908C139.895 61.4801 139.455 62.5494 139.068 63.7041L139.028 63.6241L140.476 64.2428L143.905 65.7148L143.812 65.7521C144.127 64.8374 144.42 63.9921 144.684 63.2321C144.932 62.5822 145.138 61.9168 145.3 61.2401C145.403 60.8035 145.428 60.3521 145.375 59.9068C145.319 59.5841 145.255 59.4214 145.265 59.4188Z" fill="#001E49"/>
<path d="M139.015 71.3363C138.999 71.3363 138.961 71.0697 138.796 70.5817C138.694 70.2939 138.559 70.0191 138.393 69.763C138.182 69.4263 137.891 69.1469 137.545 68.9497H137.559L132.276 68.2617L129.076 67.8323L127.687 67.6403L126.479 67.4457L125.945 67.363C125.796 67.3364 125.642 67.3638 125.511 67.4403L124.825 67.771L124.391 67.9763C124.341 68.0036 124.288 68.0242 124.233 68.0377C124.279 68.0046 124.327 67.9751 124.377 67.9497L124.801 67.723L125.476 67.371C125.621 67.2841 125.792 67.2502 125.959 67.275L126.492 67.3497L127.7 67.5257L129.092 67.707L132.292 68.1257L137.567 68.8483H137.583C137.944 69.0571 138.246 69.3544 138.46 69.7123C138.624 69.9767 138.754 70.2607 138.847 70.5577C138.905 70.7437 138.952 70.9335 138.985 71.1257C139.003 71.1946 139.013 71.2652 139.015 71.3363Z" fill="#ECB2AA"/>
<path d="M135.7 68.6003C135.663 68.475 135.639 68.3463 135.628 68.2163C135.583 67.9496 135.527 67.5923 135.46 67.1683C135.308 66.2589 135.108 65.0483 134.887 63.7016C134.665 62.3549 134.463 61.1523 134.313 60.2349C134.247 59.8109 134.193 59.4563 134.151 59.1843C134.123 59.0563 134.109 58.9258 134.108 58.7949C134.152 58.9179 134.184 59.0446 134.204 59.1736L134.409 60.2189C134.577 61.1016 134.799 62.3203 135.025 63.6856C135.252 65.0509 135.439 66.2643 135.559 67.1523C135.62 67.5976 135.66 67.9523 135.684 68.2189C135.702 68.3452 135.707 68.4729 135.7 68.6003Z" fill="#001E49"/>
<path d="M186.233 126.974C186.233 127.014 147.636 127.043 100.036 127.043C52.436 127.043 13.8334 127.014 13.8334 126.974C13.8334 126.934 52.4227 126.904 100.041 126.904C147.66 126.904 186.233 126.936 186.233 126.974Z" fill="#001E49"/>
<path d="M19.0013 118.083C18.572 118.662 17.7746 118.443 17.4146 118.083C17.0546 117.723 16.908 117.187 16.7773 116.686C16.4813 115.542 16.1853 114.342 16.46 113.192C16.5265 112.843 16.6891 112.519 16.9293 112.256C17.0504 112.127 17.2033 112.032 17.3728 111.981C17.5422 111.929 17.7221 111.923 17.8946 111.963C18.2973 112.08 18.5373 112.483 18.7106 112.864C19.2127 113.989 19.4595 115.211 19.4333 116.443C19.4544 117.021 19.3031 117.592 18.9986 118.083" fill="#C3262C"/>
<g opacity="0.2">
<path d="M19.0013 118.083C18.572 118.662 17.7746 118.443 17.4146 118.083C17.0546 117.723 16.908 117.187 16.7773 116.686C16.4813 115.542 16.1853 114.342 16.46 113.192C16.5265 112.843 16.6891 112.519 16.9293 112.256C17.0504 112.127 17.2033 112.032 17.3728 111.981C17.5422 111.929 17.7221 111.923 17.8946 111.963C18.2973 112.08 18.5373 112.483 18.7106 112.864C19.2127 113.989 19.4595 115.211 19.4333 116.443C19.4544 117.021 19.3031 117.592 18.9986 118.083" fill="black"/>
</g>
<path d="M17.3746 121.024C16.6924 120.682 15.9188 120.568 15.1666 120.696C14.7564 120.723 14.3665 120.884 14.0573 121.155C13.7746 121.451 13.7106 121.982 14.0173 122.251C14.217 122.392 14.4589 122.459 14.7026 122.443C15.2893 122.443 15.9426 122.366 16.4013 122.731C16.668 122.942 16.8333 123.28 17.1506 123.387C17.3093 123.429 17.4772 123.418 17.6289 123.355C17.7806 123.292 17.9076 123.182 17.9906 123.04C18.1512 122.75 18.1942 122.409 18.1106 122.088C18.0778 121.866 17.9944 121.655 17.8668 121.471C17.7391 121.286 17.5707 121.133 17.3746 121.024Z" fill="#C3262C"/>
<path d="M20.1106 118.958C19.9055 118.675 19.7727 118.347 19.7239 118.002C19.6751 117.656 19.7117 117.304 19.8306 116.976C20.0708 116.322 20.487 115.746 21.0333 115.312C21.6613 114.785 22.3858 114.385 23.1666 114.134C23.4687 114.021 23.7918 113.975 24.1133 114C24.2735 114.014 24.428 114.066 24.5633 114.153C24.6986 114.24 24.8105 114.359 24.8893 114.499C25.0999 114.923 24.8733 115.427 24.6226 115.832C24.2 116.554 23.7212 117.242 23.1906 117.888C22.7639 118.408 22.2786 118.92 21.6439 119.144C21.0093 119.368 20.3586 119.32 20.0439 118.878" fill="#C3262C"/>
<path d="M18.7906 126.974C18.7707 126.886 18.7608 126.797 18.7613 126.707C18.7453 126.51 18.7293 126.264 18.7079 125.974C18.6815 125.616 18.6361 125.26 18.5719 124.907C18.488 124.473 18.3694 124.047 18.2173 123.632C18.0688 123.216 17.8613 122.824 17.6013 122.467C17.3897 122.178 17.1164 121.939 16.8013 121.768C16.5877 121.654 16.3572 121.575 16.1186 121.534C16.0282 121.529 15.9387 121.514 15.8519 121.488C15.9406 121.479 16.0299 121.479 16.1186 121.488C16.3664 121.513 16.6076 121.583 16.8306 121.694C17.1629 121.862 17.4521 122.105 17.6759 122.403C17.9463 122.765 18.1611 123.165 18.3133 123.59C18.4705 124.004 18.5909 124.431 18.6733 124.867C18.7329 125.227 18.7712 125.59 18.7879 125.955C18.7879 126.267 18.8039 126.518 18.8039 126.691C18.809 126.785 18.8045 126.88 18.7906 126.974Z" fill="#001E49"/>
<path d="M18.7559 126.408C18.7501 126.367 18.7501 126.325 18.7559 126.283C18.7559 126.19 18.7559 126.072 18.7559 125.928C18.7559 125.622 18.7772 125.174 18.7746 124.624C18.7746 123.52 18.7239 121.998 18.5852 120.32C18.4466 118.643 18.2412 117.12 18.0519 116.054C18.0066 115.787 17.9612 115.536 17.9159 115.323C17.8706 115.11 17.8386 114.923 17.8039 114.771C17.7692 114.619 17.7479 114.504 17.7292 114.424C17.7188 114.384 17.7126 114.343 17.7106 114.302C17.7106 114.302 17.7292 114.342 17.7506 114.419C17.7719 114.496 17.8066 114.622 17.8439 114.763C17.8812 114.904 17.9292 115.096 17.9772 115.31C18.0252 115.523 18.0786 115.768 18.1292 116.04C18.3956 117.451 18.5861 118.876 18.6999 120.307C18.8386 121.987 18.8812 123.507 18.8599 124.622C18.8599 125.174 18.8279 125.622 18.8039 125.928C18.8039 126.072 18.7826 126.195 18.7746 126.283C18.7711 126.325 18.7649 126.367 18.7559 126.408Z" fill="#001E49"/>
<path d="M18.8279 123.467C18.8168 123.343 18.8168 123.218 18.8279 123.094C18.8493 122.856 18.8893 122.512 18.9693 122.094C19.1808 120.998 19.5247 119.933 19.9933 118.92C20.4445 117.897 21.0769 116.964 21.8599 116.166C21.9968 116.03 22.142 115.902 22.2946 115.784C22.3613 115.731 22.4199 115.678 22.4786 115.635L22.6466 115.526C22.7474 115.455 22.8535 115.391 22.9639 115.336C22.5967 115.61 22.2467 115.905 21.9159 116.222C21.1551 117.026 20.5365 117.954 20.0866 118.966C19.8324 119.518 19.6142 120.087 19.4333 120.667C19.2796 121.14 19.1505 121.621 19.0466 122.107C18.9586 122.523 18.9053 122.864 18.8706 123.099C18.8647 123.223 18.8504 123.346 18.8279 123.467Z" fill="#001E49"/>
</g>
<defs>
<clipPath id="clip0_244_52698">
<rect width="200" height="200" fill="white" transform="translate(0.5 -25)"/>
</clipPath>
</defs>
</svg>
