<svg width="160" height="93" viewBox="0 0 160 93" fill="none" xmlns="http://www.w3.org/2000/svg">
<g id="Logo">
<path id="Subtract" fill-rule="evenodd" clip-rule="evenodd" d="M108.252 87.4965H113.79C136.592 87.4965 155.077 69.0118 155.077 46.2098C155.077 23.4078 136.592 4.9231 113.79 4.9231H108.252V27.0769H113.79C124.357 27.0769 132.923 35.643 132.923 46.2098C132.923 56.7766 124.357 65.3427 113.79 65.3427H108.252V87.4965Z" fill="#001E49"/>
<path id="Rectangle 39" d="M24.0559 15.4965H46.2098V76.923H24.0559V15.4965Z" fill="#001E49"/>
<rect id="Rectangle 40" x="46.2098" y="15.4965" width="22.1538" height="41.2867" transform="rotate(90 46.2098 15.4965)" fill="#001E49"/>
<path id="Rectangle 38" d="M75.3867 4.9231H105.119L65.8719 46.2098H36.1398L75.3867 4.9231Z" fill="#C3262C"/>
<path id="Rectangle 17" d="M75.3867 87.4965H105.119L65.8719 46.2098H36.1398L75.3867 87.4965Z" fill="#C3262C"/>
</g>
</svg>
