<svg width="25" height="24" viewBox="0 0 25 24" fill="none" xmlns="http://www.w3.org/2000/svg">
<path d="M12.5 22.75C6.57 22.75 1.75 17.93 1.75 12C1.75 6.07 6.57 1.25 12.5 1.25C18.43 1.25 23.25 6.07 23.25 12C23.25 17.93 18.43 22.75 12.5 22.75ZM12.5 2.75C7.4 2.75 3.25 6.9 3.25 12C3.25 17.1 7.4 21.25 12.5 21.25C17.6 21.25 21.75 17.1 21.75 12C21.75 6.9 17.6 2.75 12.5 2.75Z" fill="white"/>
<path d="M12.5 22.75C6.57 22.75 1.75 17.93 1.75 12C1.75 6.07 6.57 1.25 12.5 1.25C18.43 1.25 23.25 6.07 23.25 12C23.25 17.93 18.43 22.75 12.5 22.75ZM12.5 2.75C7.4 2.75 3.25 6.9 3.25 12C3.25 17.1 7.4 21.25 12.5 21.25C17.6 21.25 21.75 17.1 21.75 12C21.75 6.9 17.6 2.75 12.5 2.75Z" fill="#001E49" fill-opacity="0.6"/>
<path d="M12.5 13C11.94 13 11.5 12.55 11.5 12C11.5 11.45 11.95 11 12.5 11C13.05 11 13.5 11.45 13.5 12C13.5 12.55 13.06 13 12.5 13Z" fill="white"/>
<path d="M12.5 13C11.94 13 11.5 12.55 11.5 12C11.5 11.45 11.95 11 12.5 11C13.05 11 13.5 11.45 13.5 12C13.5 12.55 13.06 13 12.5 13Z" fill="#001E49" fill-opacity="0.6"/>
<path d="M16.5 13C15.94 13 15.5 12.55 15.5 12C15.5 11.45 15.95 11 16.5 11C17.05 11 17.5 11.45 17.5 12C17.5 12.55 17.06 13 16.5 13Z" fill="white"/>
<path d="M16.5 13C15.94 13 15.5 12.55 15.5 12C15.5 11.45 15.95 11 16.5 11C17.05 11 17.5 11.45 17.5 12C17.5 12.55 17.06 13 16.5 13Z" fill="#001E49" fill-opacity="0.6"/>
<path d="M8.5 13C7.94 13 7.5 12.55 7.5 12C7.5 11.45 7.95 11 8.5 11C9.05 11 9.5 11.45 9.5 12C9.5 12.55 9.06 13 8.5 13Z" fill="white"/>
<path d="M8.5 13C7.94 13 7.5 12.55 7.5 12C7.5 11.45 7.95 11 8.5 11C9.05 11 9.5 11.45 9.5 12C9.5 12.55 9.06 13 8.5 13Z" fill="#001E49" fill-opacity="0.6"/>
</svg>
