<svg width="52" height="52" viewBox="0 0 52 52" fill="none" xmlns="http://www.w3.org/2000/svg">
<mask id="mask0_429_15138" style="mask-type:alpha" maskUnits="userSpaceOnUse" x="-9" y="36" width="52" height="17">
<ellipse cx="16.9311" cy="44.4288" rx="25.4196" ry="8.32331" fill="black"/>
</mask>
<g mask="url(#mask0_429_15138)">
<g filter="url(#filter0_f_429_15138)">
<ellipse cx="21.7589" cy="44.72" rx="17.6737" ry="4.40461" fill="url(#paint0_linear_429_15138)" fill-opacity="0.9"/>
</g>
<g filter="url(#filter1_f_429_15138)">
<path d="M32.7179 44.8565C28.4007 44.8565 28.3123 45.3945 22.5373 45.3945C16.7623 45.3945 10.3639 45.2147 9.95459 44.4848C16.9644 44.4847 13.6775 42.4994 16.3113 42.6818C17.9506 42.7952 20.0366 43.75 22.252 43.75C28.0271 43.75 32.7179 44.3059 32.7179 44.8565Z" fill="url(#paint1_linear_429_15138)"/>
</g>
<g filter="url(#filter2_f_429_15138)">
<path d="M32.8368 45.4896C32.8368 46.0459 29.2309 46.5467 24.7041 46.5467C20.1774 46.5467 16.6069 45.6939 16.6069 45.1376C16.6069 44.5813 20.7534 43.0771 25.2801 43.0771C29.8068 43.0771 32.8368 44.9333 32.8368 45.4896Z" fill="url(#paint2_linear_429_15138)"/>
</g>
<g filter="url(#filter3_f_429_15138)">
<path d="M30.7994 45.5258C30.7994 45.8208 28.3807 46.0865 25.3445 46.0865C22.3082 46.0865 19.9133 45.6341 19.9133 45.339C19.9133 45.044 22.6945 44.2461 25.7308 44.2461C28.767 44.2461 30.7994 45.2307 30.7994 45.5258Z" fill="#484848"/>
</g>
</g>
<mask id="mask1_429_15138" style="mask-type:alpha" maskUnits="userSpaceOnUse" x="4" y="0" width="48" height="48">
<circle cx="28" cy="24" r="24" fill="#C4C4C4"/>
</mask>
<g mask="url(#mask1_429_15138)">
<g filter="url(#filter4_i_429_15138)">
<circle cx="28" cy="24" r="24" fill="white"/>
<circle cx="28" cy="24" r="24" fill="#2C363F" fill-opacity="0.2"/>
</g>
<g filter="url(#filter5_f_429_15138)">
<path d="M23.2762 47.7729C11.2629 46.3882 1.70376 34.7635 3.27685 23.9736C9.70204 26.9868 18.2926 28.8373 26.528 29.2491C33.4153 29.5934 46.68 27.8952 52.1303 27.4078C52.9965 27.3303 50.0156 35.5622 48.1204 38.4906C46.0558 41.6808 37.563 49.4196 23.2762 47.7729Z" fill="url(#paint3_linear_429_15138)"/>
</g>
<g filter="url(#filter6_f_429_15138)">
<path d="M30.5894 33.3029C23.5452 35.1325 10.2971 30.6049 6.43589 25.9628C-3.98362 13.4361 -0.514728 25.7556 2.45845 38.9062C5.59433 52.7765 27.0445 54.1152 37.7937 51.2564C48.5429 48.3976 59.7495 26.8991 55.7472 14.0915C51.7448 1.28393 36.1927 -5.11987 19.9545 -2.6041C3.71634 -0.0883193 2.11539 7.91643 2.45845 12.7193C2.80151 17.5221 3.07463 27.6448 6.43587 18.0323C10.6128 6.08711 19.8981 1.59953 27.4454 1.59953C37.1661 1.59953 44.2807 5.62936 44.2807 14.0915C44.2807 23.6156 39.3946 31.0158 30.5894 33.3029Z" fill="#696969" fill-opacity="0.38"/>
</g>
<g filter="url(#filter7_f_429_15138)">
<path d="M30.6128 44.6174C20.3232 46.2098 7.4059 38.2254 4.19043 33.7849C7.7122 44.0438 20.775 49.7555 28.8903 49.7555C40.5121 49.7555 52.8955 37.4857 52.283 26.1549C51.6706 14.8242 49.8586 11.6147 48.3249 9.16089C49.8561 11.6108 50.5656 23.1254 49.3406 27.872C48.1157 32.6187 43.4748 42.6269 30.6128 44.6174Z" fill="url(#paint4_linear_429_15138)"/>
</g>
<g filter="url(#filter8_f_429_15138)">
<path d="M9.66246 15.4733C8.20393 19.8084 6.90981 24.9775 8.01895 29.0931C9.47841 17.622 19.7477 10.8389 24.7903 8.12793C24.7354 7.53926 24.6991 5.8407 23.5252 4.64795C20.4376 5.42276 11.4856 10.0544 9.66246 15.4733Z" fill="url(#paint5_linear_429_15138)"/>
</g>
<g filter="url(#filter9_f_429_15138)">
<path d="M23.1154 10.9932C22.6732 10.2746 19.3571 7.67625 18.314 7.42098C17.6498 7.25845 16.5211 8.06866 15.4324 8.74694C14.0043 9.63668 11.0375 12.914 10.1261 14.7299C9.65547 15.6677 9.72766 15.8868 10.747 16.6282C12.2671 17.7337 15.1 18.9037 15.6528 18.6964C16.0904 18.0976 17.3525 16.5268 18.9003 15.0343C20.8349 13.1688 22.0099 11.7533 23.1154 10.9932Z" fill="white"/>
</g>
<g filter="url(#filter10_f_429_15138)">
<path d="M42.8358 19.8992C42.4087 17.1101 40.8729 14.4634 40.6752 14.0765C40.4774 13.6895 41.5743 10.9244 41.6765 10.2091C41.7787 9.49382 43.3164 10.9502 44.4133 12.4832C45.5097 14.0155 47.8999 18.1326 47.7978 20.3807C47.6956 22.6288 43.8361 25.834 43.223 25.6297C43.223 23.9087 43.2333 22.4944 42.8358 19.8992Z" fill="white"/>
</g>
<g filter="url(#filter11_f_429_15138)">
<path d="M36.0407 7.30027L28.9119 4.74119C30.8616 4.467 34.3716 4.17611 35.3952 4.39546C36.4189 4.61481 39.7575 6.84328 40.9761 8.03142L36.0407 7.30027Z" fill="url(#paint6_linear_429_15138)"/>
</g>
</g>
<defs>
<filter id="filter0_f_429_15138" x="0.0852051" y="36.3154" width="43.3474" height="16.8093" filterUnits="userSpaceOnUse" color-interpolation-filters="sRGB">
<feFlood flood-opacity="0" result="BackgroundImageFix"/>
<feBlend mode="normal" in="SourceGraphic" in2="BackgroundImageFix" result="shape"/>
<feGaussianBlur stdDeviation="2" result="effect1_foregroundBlur_429_15138"/>
</filter>
<filter id="filter1_f_429_15138" x="5.95459" y="38.6699" width="30.7634" height="10.7246" filterUnits="userSpaceOnUse" color-interpolation-filters="sRGB">
<feFlood flood-opacity="0" result="BackgroundImageFix"/>
<feBlend mode="normal" in="SourceGraphic" in2="BackgroundImageFix" result="shape"/>
<feGaussianBlur stdDeviation="2" result="effect1_foregroundBlur_429_15138"/>
</filter>
<filter id="filter2_f_429_15138" x="8.60693" y="35.0771" width="32.2297" height="19.4695" filterUnits="userSpaceOnUse" color-interpolation-filters="sRGB">
<feFlood flood-opacity="0" result="BackgroundImageFix"/>
<feBlend mode="normal" in="SourceGraphic" in2="BackgroundImageFix" result="shape"/>
<feGaussianBlur stdDeviation="4" result="effect1_foregroundBlur_429_15138"/>
</filter>
<filter id="filter3_f_429_15138" x="12.9133" y="37.2461" width="24.886" height="15.8403" filterUnits="userSpaceOnUse" color-interpolation-filters="sRGB">
<feFlood flood-opacity="0" result="BackgroundImageFix"/>
<feBlend mode="normal" in="SourceGraphic" in2="BackgroundImageFix" result="shape"/>
<feGaussianBlur stdDeviation="3.5" result="effect1_foregroundBlur_429_15138"/>
</filter>
<filter id="filter4_i_429_15138" x="4" y="-8" width="48" height="56" filterUnits="userSpaceOnUse" color-interpolation-filters="sRGB">
<feFlood flood-opacity="0" result="BackgroundImageFix"/>
<feBlend mode="normal" in="SourceGraphic" in2="BackgroundImageFix" result="shape"/>
<feColorMatrix in="SourceAlpha" type="matrix" values="0 0 0 0 0 0 0 0 0 0 0 0 0 0 0 0 0 0 127 0" result="hardAlpha"/>
<feOffset dy="-8"/>
<feGaussianBlur stdDeviation="7"/>
<feComposite in2="hardAlpha" operator="arithmetic" k2="-1" k3="1"/>
<feColorMatrix type="matrix" values="0 0 0 0 0.779167 0 0 0 0 0.779167 0 0 0 0 0.779167 0 0 0 0.3 0"/>
<feBlend mode="normal" in2="shape" result="effect1_innerShadow_429_15138"/>
</filter>
<filter id="filter5_f_429_15138" x="1.10693" y="21.9736" width="53.1775" height="28.0264" filterUnits="userSpaceOnUse" color-interpolation-filters="sRGB">
<feFlood flood-opacity="0" result="BackgroundImageFix"/>
<feBlend mode="normal" in="SourceGraphic" in2="BackgroundImageFix" result="shape"/>
<feGaussianBlur stdDeviation="1" result="effect1_foregroundBlur_429_15138"/>
</filter>
<filter id="filter6_f_429_15138" x="-31.5769" y="-34.1436" width="119.154" height="117.634" filterUnits="userSpaceOnUse" color-interpolation-filters="sRGB">
<feFlood flood-opacity="0" result="BackgroundImageFix"/>
<feBlend mode="normal" in="SourceGraphic" in2="BackgroundImageFix" result="shape"/>
<feGaussianBlur stdDeviation="15.5" result="effect1_foregroundBlur_429_15138"/>
</filter>
<filter id="filter7_f_429_15138" x="-22.8096" y="-17.8391" width="102.115" height="94.5945" filterUnits="userSpaceOnUse" color-interpolation-filters="sRGB">
<feFlood flood-opacity="0" result="BackgroundImageFix"/>
<feBlend mode="normal" in="SourceGraphic" in2="BackgroundImageFix" result="shape"/>
<feGaussianBlur stdDeviation="13.5" result="effect1_foregroundBlur_429_15138"/>
</filter>
<filter id="filter8_f_429_15138" x="4.60181" y="1.64795" width="23.1885" height="30.4451" filterUnits="userSpaceOnUse" color-interpolation-filters="sRGB">
<feFlood flood-opacity="0" result="BackgroundImageFix"/>
<feBlend mode="normal" in="SourceGraphic" in2="BackgroundImageFix" result="shape"/>
<feGaussianBlur stdDeviation="1.5" result="effect1_foregroundBlur_429_15138"/>
</filter>
<filter id="filter9_f_429_15138" x="8.84692" y="6.3999" width="15.2686" height="13.3206" filterUnits="userSpaceOnUse" color-interpolation-filters="sRGB">
<feFlood flood-opacity="0" result="BackgroundImageFix"/>
<feBlend mode="normal" in="SourceGraphic" in2="BackgroundImageFix" result="shape"/>
<feGaussianBlur stdDeviation="0.5" result="effect1_foregroundBlur_429_15138"/>
</filter>
<filter id="filter10_f_429_15138" x="39.6514" y="9.02173" width="9.14966" height="17.6172" filterUnits="userSpaceOnUse" color-interpolation-filters="sRGB">
<feFlood flood-opacity="0" result="BackgroundImageFix"/>
<feBlend mode="normal" in="SourceGraphic" in2="BackgroundImageFix" result="shape"/>
<feGaussianBlur stdDeviation="0.5" result="effect1_foregroundBlur_429_15138"/>
</filter>
<filter id="filter11_f_429_15138" x="27.9119" y="3.31836" width="14.0642" height="5.71313" filterUnits="userSpaceOnUse" color-interpolation-filters="sRGB">
<feFlood flood-opacity="0" result="BackgroundImageFix"/>
<feBlend mode="normal" in="SourceGraphic" in2="BackgroundImageFix" result="shape"/>
<feGaussianBlur stdDeviation="0.5" result="effect1_foregroundBlur_429_15138"/>
</filter>
<linearGradient id="paint0_linear_429_15138" x1="28.0894" y1="48.5502" x2="28.0894" y2="40.9678" gradientUnits="userSpaceOnUse">
<stop stop-color="#5A5D61"/>
<stop offset="1" stop-color="#6E7175" stop-opacity="0.35"/>
</linearGradient>
<linearGradient id="paint1_linear_429_15138" x1="19.7007" y1="43.75" x2="30.2887" y2="48.3059" gradientUnits="userSpaceOnUse">
<stop stop-color="white"/>
<stop offset="1" stop-color="white" stop-opacity="0"/>
</linearGradient>
<linearGradient id="paint2_linear_429_15138" x1="27.9467" y1="46.0794" x2="27.8541" y2="43.8764" gradientUnits="userSpaceOnUse">
<stop stop-color="#505051"/>
<stop offset="1" stop-color="#77797B" stop-opacity="0.6"/>
</linearGradient>
<linearGradient id="paint3_linear_429_15138" x1="39.6829" y1="49.4436" x2="39.6666" y2="23.9736" gradientUnits="userSpaceOnUse">
<stop stop-color="#737373"/>
<stop offset="1" stop-color="#6A6A6A" stop-opacity="0"/>
</linearGradient>
<linearGradient id="paint4_linear_429_15138" x1="40.7924" y1="44.3162" x2="40.7924" y2="0.539584" gradientUnits="userSpaceOnUse">
<stop stop-color="#5C5C5C"/>
<stop offset="1" stop-color="#5A5A5A" stop-opacity="0"/>
</linearGradient>
<linearGradient id="paint5_linear_429_15138" x1="7.60181" y1="5.0128" x2="19.0557" y2="16.4144" gradientUnits="userSpaceOnUse">
<stop stop-color="#7D7D7D"/>
<stop offset="1" stop-color="#787878" stop-opacity="0"/>
</linearGradient>
<linearGradient id="paint6_linear_429_15138" x1="34.944" y1="3.74579" x2="34.022" y2="6.87565" gradientUnits="userSpaceOnUse">
<stop stop-color="white"/>
<stop offset="1" stop-color="white" stop-opacity="0"/>
</linearGradient>
</defs>
</svg>
