<svg width="38" height="38" viewBox="0 0 38 38" fill="none" xmlns="http://www.w3.org/2000/svg">
<rect width="38" height="38" rx="19" fill="white"/>
<rect width="38" height="38" rx="19" fill="#001E49" fill-opacity="0.08"/>
<path d="M24.0784 16.3049C22.4559 16.3049 21.1359 14.9849 21.1359 13.3624C21.1359 11.7399 22.4559 10.4199 24.0784 10.4199C25.7009 10.4199 27.0209 11.7399 27.0209 13.3624C27.0209 14.9849 25.7009 16.3049 24.0784 16.3049ZM24.0784 11.7858C23.2167 11.7858 22.5109 12.4916 22.5109 13.3533C22.5109 14.2149 23.2167 14.9208 24.0784 14.9208C24.94 14.9208 25.6459 14.2149 25.6459 13.3533C25.6459 12.4916 24.94 11.7858 24.0784 11.7858Z" fill="black"/>
<path d="M13.9216 16.3049C12.2991 16.3049 10.9791 14.9849 10.9791 13.3624C10.9791 11.7399 12.2991 10.4199 13.9216 10.4199C15.5441 10.4199 16.8641 11.7399 16.8641 13.3624C16.8641 14.9849 15.5441 16.3049 13.9216 16.3049ZM13.9216 11.7858C13.06 11.7858 12.3541 12.4916 12.3541 13.3533C12.3541 14.2149 13.06 14.9208 13.9216 14.9208C14.7833 14.9208 15.4891 14.2149 15.4891 13.3533C15.4891 12.4916 14.7925 11.7858 13.9216 11.7858Z" fill="black"/>
<path d="M24.0784 27.5891C22.4559 27.5891 21.1359 26.2691 21.1359 24.6466C21.1359 23.0241 22.4559 21.7041 24.0784 21.7041C25.7009 21.7041 27.0209 23.0241 27.0209 24.6466C27.0209 26.2691 25.7009 27.5891 24.0784 27.5891ZM24.0784 23.0699C23.2167 23.0699 22.5109 23.7758 22.5109 24.6374C22.5109 25.4991 23.2167 26.2049 24.0784 26.2049C24.94 26.2049 25.6459 25.4991 25.6459 24.6374C25.6459 23.7758 24.94 23.0699 24.0784 23.0699Z" fill="black"/>
<path d="M13.9216 27.5891C12.2991 27.5891 10.9791 26.2691 10.9791 24.6466C10.9791 23.0241 12.2991 21.7041 13.9216 21.7041C15.5441 21.7041 16.8641 23.0241 16.8641 24.6466C16.8641 26.2691 15.5441 27.5891 13.9216 27.5891ZM13.9216 23.0699C13.06 23.0699 12.3541 23.7758 12.3541 24.6374C12.3541 25.4991 13.06 26.2049 13.9216 26.2049C14.7833 26.2049 15.4891 25.4991 15.4891 24.6374C15.4891 23.7758 14.7925 23.0699 13.9216 23.0699Z" fill="black"/>
</svg>
