<svg width="32" height="33" viewBox="0 0 32 33" fill="none" xmlns="http://www.w3.org/2000/svg">
<rect y="0.5" width="32" height="32" rx="16" fill="white"/>
<rect y="0.5" width="32" height="32" rx="16" fill="#001E49" fill-opacity="0.08"/>
<path d="M16.0001 17C13.8867 17 12.1667 15.28 12.1667 13.1667C12.1667 11.0534 13.8867 9.33337 16.0001 9.33337C18.1134 9.33337 19.8334 11.0534 19.8334 13.1667C19.8334 15.28 18.1134 17 16.0001 17ZM16.0001 10.3334C14.4401 10.3334 13.1667 11.6067 13.1667 13.1667C13.1667 14.7267 14.4401 16 16.0001 16C17.5601 16 18.8334 14.7267 18.8334 13.1667C18.8334 11.6067 17.5601 10.3334 16.0001 10.3334Z" fill="black"/>
<path d="M21.7268 23.6667C21.4534 23.6667 21.2268 23.44 21.2268 23.1667C21.2268 20.8667 18.8801 19 16.0001 19C13.1201 19 10.7734 20.8667 10.7734 23.1667C10.7734 23.44 10.5468 23.6667 10.2734 23.6667C10.0001 23.6667 9.77344 23.44 9.77344 23.1667C9.77344 20.32 12.5668 18 16.0001 18C19.4334 18 22.2268 20.32 22.2268 23.1667C22.2268 23.44 22.0001 23.6667 21.7268 23.6667Z" fill="black"/>
</svg>
