<svg width="80" height="56" viewBox="0 0 80 56" fill="none" xmlns="http://www.w3.org/2000/svg">
<g clip-path="url(#clip0_11_339)">
<rect y="56" width="56" height="80" rx="28" transform="rotate(-90 0 56)" fill="#C3262C"/>
<path d="M52.3333 28C52.3333 28.2533 52.24 28.5066 52.04 28.7066L43.9466 36.8C43.56 37.1866 42.92 37.1866 42.5333 36.8C42.1466 36.4133 42.1466 35.7733 42.5333 35.3866L49.92 28L42.5333 20.6133C42.1466 20.2266 42.1466 19.5866 42.5333 19.2C42.92 18.8133 43.56 18.8133 43.9466 19.2L52.04 27.2933C52.24 27.4933 52.3333 27.7466 52.3333 28Z" fill="white"/>
<path d="M52.1066 28C52.1066 28.5467 51.6533 29 51.1066 29L28.6666 29C28.12 29 27.6666 28.5467 27.6666 28C27.6666 27.4533 28.12 27 28.6666 27L51.1066 27C51.6533 27 52.1066 27.4533 52.1066 28Z" fill="white"/>
</g>
<defs>
<clipPath id="clip0_11_339">
<rect y="56" width="56" height="80" rx="28" transform="rotate(-90 0 56)" fill="white"/>
</clipPath>
</defs>
</svg>
