<svg width="38" height="38" viewBox="0 0 38 38" fill="none" xmlns="http://www.w3.org/2000/svg">
<rect width="38" height="38" rx="19" fill="white"/>
<rect width="38" height="38" rx="19" fill="#001E49" fill-opacity="0.08"/>
<path fill-rule="evenodd" clip-rule="evenodd" d="M23.7728 11.3039C22.6601 11.3039 21.7581 12.2059 21.7581 13.3186C21.7581 14.4312 22.6601 15.3332 23.7728 15.3332C24.8855 15.3332 25.7875 14.4312 25.7875 13.3186C25.7875 12.2059 24.8855 11.3039 23.7728 11.3039ZM20.5602 13.3186C20.5602 11.5443 21.9985 10.106 23.7728 10.106C25.547 10.106 26.9854 11.5443 26.9854 13.3186C26.9854 15.0928 25.547 16.5311 23.7728 16.5311C21.9985 16.5311 20.5602 15.0928 20.5602 13.3186Z" fill="black"/>
<path fill-rule="evenodd" clip-rule="evenodd" d="M13.3182 17.402C12.2055 17.402 11.3035 18.304 11.3035 19.4167C11.3035 20.5294 12.2055 21.4314 13.3182 21.4314C14.4309 21.4314 15.3329 20.5294 15.3329 19.4167C15.3329 18.304 14.4309 17.402 13.3182 17.402ZM10.1056 19.4167C10.1056 17.6424 11.5439 16.2041 13.3182 16.2041C15.0925 16.2041 16.5308 17.6424 16.5308 19.4167C16.5308 21.191 15.0925 22.6293 13.3182 22.6293C11.5439 22.6293 10.1056 21.191 10.1056 19.4167Z" fill="black"/>
<path fill-rule="evenodd" clip-rule="evenodd" d="M23.7728 23.5007C22.6601 23.5007 21.7581 24.4027 21.7581 25.5153C21.7581 26.628 22.6601 27.53 23.7728 27.53C24.8855 27.53 25.7875 26.628 25.7875 25.5153C25.7875 24.4027 24.8855 23.5007 23.7728 23.5007ZM20.5602 25.5153C20.5602 23.7411 21.9985 22.3027 23.7728 22.3027C25.547 22.3027 26.9854 23.7411 26.9854 25.5153C26.9854 27.2896 25.547 28.7279 23.7728 28.7279C21.9985 28.7279 20.5602 27.2896 20.5602 25.5153Z" fill="black"/>
<path fill-rule="evenodd" clip-rule="evenodd" d="M22.0336 14.3318C22.2004 14.6175 22.1039 14.9843 21.8182 15.151L15.8765 18.6185C15.5908 18.7852 15.2241 18.6887 15.0573 18.403C14.8906 18.1173 14.987 17.7506 15.2727 17.5838L21.2144 14.1164C21.5001 13.9497 21.8669 14.0461 22.0336 14.3318ZM15.0571 20.4306C15.2237 20.1448 15.5904 20.0482 15.8762 20.2147L21.8266 23.6821C22.1124 23.8487 22.2091 24.2154 22.0425 24.5012C21.876 24.787 21.5093 24.8837 21.2235 24.7171L15.2731 21.2497C14.9873 21.0832 14.8906 20.7165 15.0571 20.4306Z" fill="black"/>
</svg>
