<svg width="19" height="20" viewBox="0 0 19 20" fill="none" xmlns="http://www.w3.org/2000/svg">
<path fill-rule="evenodd" clip-rule="evenodd" d="M14.7728 2.30339C13.6601 2.30339 12.7581 3.20539 12.7581 4.31806C12.7581 5.43074 13.6601 6.33274 14.7728 6.33274C15.8855 6.33274 16.7875 5.43074 16.7875 4.31806C16.7875 3.20539 15.8855 2.30339 14.7728 2.30339ZM11.5602 4.31806C11.5602 2.5438 12.9985 1.10547 14.7728 1.10547C16.547 1.10547 17.9854 2.5438 17.9854 4.31806C17.9854 6.09233 16.547 7.53066 14.7728 7.53066C12.9985 7.53066 11.5602 6.09233 11.5602 4.31806Z" fill="black"/>
<path fill-rule="evenodd" clip-rule="evenodd" d="M4.31819 8.40202C3.20551 8.40202 2.30351 9.30402 2.30351 10.4167C2.30351 11.5294 3.20551 12.4314 4.31819 12.4314C5.43086 12.4314 6.33286 11.5294 6.33286 10.4167C6.33286 9.30402 5.43086 8.40202 4.31819 8.40202ZM1.10559 10.4167C1.10559 8.64243 2.54392 7.2041 4.31819 7.2041C6.09245 7.2041 7.53078 8.64243 7.53078 10.4167C7.53078 12.191 6.09245 13.6293 4.31819 13.6293C2.54392 13.6293 1.10559 12.191 1.10559 10.4167Z" fill="black"/>
<path fill-rule="evenodd" clip-rule="evenodd" d="M14.7728 14.4997C13.6601 14.4997 12.7581 15.4017 12.7581 16.5144C12.7581 17.627 13.6601 18.529 14.7728 18.529C15.8855 18.529 16.7875 17.627 16.7875 16.5144C16.7875 15.4017 15.8855 14.4997 14.7728 14.4997ZM11.5602 16.5144C11.5602 14.7401 12.9985 13.3018 14.7728 13.3018C16.547 13.3018 17.9854 14.7401 17.9854 16.5144C17.9854 18.2886 16.547 19.7269 14.7728 19.7269C12.9985 19.7269 11.5602 18.2886 11.5602 16.5144Z" fill="black"/>
<path fill-rule="evenodd" clip-rule="evenodd" d="M13.0336 5.33134C13.2004 5.61705 13.1039 5.98382 12.8182 6.15055L6.87653 9.61797C6.59083 9.7847 6.22406 9.68826 6.05733 9.40255C5.8906 9.11685 5.98705 8.75008 6.27275 8.58335L12.2144 5.11592C12.5001 4.94919 12.8669 5.04564 13.0336 5.33134ZM6.05714 11.4302C6.22369 11.1443 6.59039 11.0477 6.8762 11.2142L12.8266 14.6816C13.1124 14.8482 13.2091 15.2149 13.0425 15.5007C12.876 15.7865 12.5093 15.8832 12.2235 15.7166L6.27308 12.2492C5.98727 12.0827 5.89059 11.716 6.05714 11.4302Z" fill="black"/>
</svg>
