<?xml version="1.0" standalone="no"?>
<svg version="1.0" xmlns="http://www.w3.org/2000/svg"
 width="512.000000pt" height="512.000000pt" viewBox="0 0 512.000000 512.000000"
 preserveAspectRatio="xMidYMid meet">

<g transform="translate(0.000000,512.000000) scale(0.100000,-0.100000)"
fill="#000000" stroke="none">
<path d="M3351 4255 c-82 -26 -151 -117 -151 -200 0 -73 33 -121 188 -277
l146 -148 -1239 0 c-874 0 -1252 -3 -1280 -11 -56 -15 -139 -100 -154 -157
-24 -88 25 -186 118 -234 l53 -28 1256 0 1256 0 -161 -162 c-118 -121 -164
-173 -173 -202 -38 -119 52 -258 178 -273 99 -11 103 -8 498 389 340 342 362
366 373 412 13 52 8 92 -16 141 -21 42 -690 712 -735 735 -50 27 -105 32 -157
15z"/>
<path d="M1630 2545 c-21 -10 -179 -159 -393 -373 -337 -336 -359 -360 -373
-410 -17 -57 -13 -95 16 -152 10 -19 177 -193 372 -386 330 -328 356 -352 401
-363 80 -19 146 0 204 61 40 41 63 95 63 145 -1 71 -34 121 -187 275 l-147
148 1260 2 c1415 3 1282 -5 1361 81 72 78 78 157 19 245 -22 33 -47 55 -85 75
l-55 27 -1255 0 -1255 0 161 163 c173 174 190 201 180 283 -15 135 -169 231
-287 179z"/>
</g>
</svg>
