<svg width="636" height="305" viewBox="0 0 636 305" fill="none" xmlns="http://www.w3.org/2000/svg">
<path d="M121.3 265.623H12.6289V174.913H178.086V207.109C178.087 238.757 152.934 264.675 121.3 265.623Z" fill="#363C4F"/>
<path d="M623.006 225.886H618.371V205.755H623.006C624.489 205.755 625.692 206.957 625.692 208.441V223.2C625.691 224.684 624.489 225.886 623.006 225.886Z" fill="#FFC76B"/>
<path d="M605.988 192.992H135.273V239.411H605.988C613.181 239.411 619.012 233.58 619.012 226.387V206.016C619.012 198.823 613.181 192.992 605.988 192.992Z" fill="#363C4F"/>
<path d="M66.0189 240.028H8.46094V273.205H66.0189V240.028Z" fill="#C9C9C9"/>
<path d="M23.3281 253H64.7151" stroke="#F2F2F2" stroke-width="2" stroke-miterlimit="10" stroke-linecap="round"/>
<path d="M23.3281 266.035H64.7151" stroke="#F2F2F2" stroke-width="2" stroke-miterlimit="10" stroke-linecap="round"/>
<path d="M22.486 277.767H0V255.118L10.917 244.201H22.486V277.767Z" fill="#F2F2F2"/>
<path d="M10.0547 253.2V263.541C10.0547 265.349 11.5207 266.815 13.3287 266.815C16.2457 266.815 18.6097 264.45 18.6097 261.534V255.207C18.6097 252.29 16.2447 249.926 13.3287 249.926C11.5207 249.926 10.0547 251.392 10.0547 253.2Z" fill="white"/>
<path d="M10.0547 252.611V264.131C10.0547 265.614 11.2567 266.816 12.7397 266.816H13.6297V249.927H12.7397C11.2567 249.926 10.0547 251.128 10.0547 252.611Z" fill="#FFC76B"/>
<path d="M15.8666 272.123C15.8666 273.473 14.7716 274.568 13.4216 274.568C12.0716 274.568 10.9766 273.473 10.9766 272.123C10.9766 270.773 12.0716 269.678 13.4216 269.678C14.7726 269.678 15.8666 270.773 15.8666 272.123Z" fill="#363C4F"/>
<path d="M2.59375 272.003H7.13475" stroke="#363C4F" stroke-width="1.5" stroke-miterlimit="10" stroke-linecap="round"/>
<path d="M2.59375 267.611H7.13475" stroke="#363C4F" stroke-width="1.5" stroke-miterlimit="10" stroke-linecap="round"/>
<path d="M2.59375 263.22H7.13475" stroke="#363C4F" stroke-width="1.5" stroke-miterlimit="10" stroke-linecap="round"/>
<path d="M2.59375 258.828H7.13475" stroke="#363C4F" stroke-width="1.5" stroke-miterlimit="10" stroke-linecap="round"/>
<path d="M372.873 213.87H251.371V263.871H372.873V213.87Z" fill="#F2F2F2"/>
<path d="M372.873 250.191H251.371V263.871H372.873V250.191Z" fill="#DEDEDE"/>
<path d="M279.252 213.87H272.242V263.871H279.252V213.87Z" fill="#C3262C"/>
<path d="M351.998 213.87H344.988V263.871H351.998V213.87Z" fill="#C3262C"/>
<path d="M263.328 258.775H364.542" stroke="#474E63" stroke-width="1.5" stroke-miterlimit="10"/>
<path d="M247.079 192.997H199.414V240.662H247.079V192.997Z" fill="#F2F2F2"/>
<path d="M247.079 192.997H199.414V204.923H247.079V192.997Z" fill="#DEDEDE"/>
<path d="M209.695 234.357H238.486" stroke="#474E63" stroke-width="1.5" stroke-miterlimit="10"/>
<path d="M208.387 227.816V212.113" stroke="#474E63" stroke-width="1.5" stroke-miterlimit="10"/>
<path d="M635.178 0H186.207V194.593H635.178V0Z" fill="#C9C9C9"/>
<path d="M628.556 6.12805H192.828V188.464H628.556V6.12805Z" fill="#F2F2F2"/>
<path d="M619.742 188.465H628.556V6.12903H437.406L619.742 188.465Z" fill="#F5F5F5"/>
<path d="M531.461 188.465H580.553L398.217 6.12903H349.125L531.461 188.465Z" fill="#F5F5F5"/>
<path d="M190.941 15.59H630.659" stroke="#C9C9C9" stroke-width="1.5" stroke-miterlimit="10" stroke-linecap="round"/>
<path d="M190.941 29.162H630.659" stroke="#C9C9C9" stroke-width="1.5" stroke-miterlimit="10" stroke-linecap="round"/>
<path d="M190.941 42.7339H630.659" stroke="#C9C9C9" stroke-width="1.5" stroke-miterlimit="10" stroke-linecap="round"/>
<path d="M190.941 56.3049H630.659" stroke="#C9C9C9" stroke-width="1.5" stroke-miterlimit="10" stroke-linecap="round"/>
<path d="M190.941 69.877H630.659" stroke="#C9C9C9" stroke-width="1.5" stroke-miterlimit="10" stroke-linecap="round"/>
<path d="M190.941 83.449H630.659" stroke="#C9C9C9" stroke-width="1.5" stroke-miterlimit="10" stroke-linecap="round"/>
<path d="M190.941 97.02H630.659" stroke="#C9C9C9" stroke-width="1.5" stroke-miterlimit="10" stroke-linecap="round"/>
<path d="M190.941 110.592H630.659" stroke="#C9C9C9" stroke-width="1.5" stroke-miterlimit="10" stroke-linecap="round"/>
<path d="M190.941 124.164H630.659" stroke="#C9C9C9" stroke-width="1.5" stroke-miterlimit="10" stroke-linecap="round"/>
<path d="M190.941 137.736H630.659" stroke="#C9C9C9" stroke-width="1.5" stroke-miterlimit="10" stroke-linecap="round"/>
<path d="M190.941 151.307H630.659" stroke="#C9C9C9" stroke-width="1.5" stroke-miterlimit="10" stroke-linecap="round"/>
<path d="M190.941 164.879H630.659" stroke="#C9C9C9" stroke-width="1.5" stroke-miterlimit="10" stroke-linecap="round"/>
<path d="M190.941 178.451H630.659" stroke="#C9C9C9" stroke-width="1.5" stroke-miterlimit="10" stroke-linecap="round"/>
<path d="M443.789 304.278C469.199 304.278 489.797 283.68 489.797 258.27C489.797 232.861 469.199 212.262 443.789 212.262C418.38 212.262 397.781 232.861 397.781 258.27C397.781 283.68 418.38 304.278 443.789 304.278Z" fill="#474E63"/>
<path d="M463.093 277.58C473.757 266.916 473.757 249.626 463.093 238.961C452.428 228.297 435.138 228.297 424.474 238.961C413.809 249.626 413.809 266.916 424.474 277.58C435.138 288.245 452.428 288.245 463.093 277.58Z" fill="white"/>
<path d="M455.578 268.566C461.272 262.058 460.612 252.167 454.105 246.474C447.597 240.78 437.706 241.439 432.013 247.947C426.319 254.454 426.978 264.345 433.486 270.039C439.993 275.733 449.884 275.073 455.578 268.566Z" fill="#C9C9C9"/>
<path d="M443.791 265.916C448.013 265.916 451.437 262.493 451.437 258.27C451.437 254.047 448.013 250.624 443.791 250.624C439.568 250.624 436.145 254.047 436.145 258.27C436.145 262.493 439.568 265.916 443.791 265.916Z" fill="#474E63"/>
<path d="M443.688 239.266C444.527 239.266 445.208 238.586 445.208 237.746C445.208 236.907 444.527 236.226 443.688 236.226C442.849 236.226 442.168 236.907 442.168 237.746C442.168 238.586 442.849 239.266 443.688 239.266Z" fill="#474E63"/>
<path d="M458.231 245.206C459.07 245.206 459.751 244.526 459.751 243.686C459.751 242.847 459.07 242.166 458.231 242.166C457.391 242.166 456.711 242.847 456.711 243.686C456.711 244.526 457.391 245.206 458.231 245.206Z" fill="#474E63"/>
<path d="M464.313 259.689C465.152 259.689 465.833 259.009 465.833 258.169C465.833 257.33 465.152 256.649 464.313 256.649C463.474 256.649 462.793 257.33 462.793 258.169C462.793 259.009 463.474 259.689 464.313 259.689Z" fill="#474E63"/>
<path d="M458.372 274.231C459.211 274.231 459.892 273.551 459.892 272.711C459.892 271.872 459.211 271.191 458.372 271.191C457.532 271.191 456.852 271.872 456.852 272.711C456.852 273.551 457.532 274.231 458.372 274.231Z" fill="#474E63"/>
<path d="M442.371 278.794C442.371 277.954 443.052 277.274 443.891 277.274C444.73 277.274 445.411 277.955 445.411 278.794C445.411 279.634 444.73 280.314 443.891 280.314C443.052 280.314 442.371 279.633 442.371 278.794Z" fill="#474E63"/>
<path d="M429.348 274.373C430.188 274.373 430.868 273.692 430.868 272.853C430.868 272.014 430.188 271.333 429.348 271.333C428.509 271.333 427.828 272.014 427.828 272.853C427.828 273.692 428.509 274.373 429.348 274.373Z" fill="#474E63"/>
<path d="M423.266 256.85C424.106 256.85 424.786 257.531 424.786 258.37C424.786 259.21 424.105 259.89 423.266 259.89C422.426 259.89 421.746 259.209 421.746 258.37C421.746 257.53 422.426 256.85 423.266 256.85Z" fill="#474E63"/>
<path d="M430.279 242.753C430.873 243.347 430.873 244.309 430.279 244.903C429.685 245.497 428.723 245.497 428.129 244.903C427.535 244.309 427.535 243.347 428.129 242.753C428.723 242.159 429.686 242.159 430.279 242.753Z" fill="#474E63"/>
<path d="M452.008 221.26C464.441 223.816 475.127 233.556 478.822 245.7" stroke="#363C4F" stroke-width="1.5" stroke-miterlimit="10"/>
<path d="M412.453 269.398C415.819 278.999 423.669 286.92 433.238 290.372" stroke="#363C4F" stroke-width="1.5" stroke-miterlimit="10"/>
<path d="M385.434 255.991C385.434 224.153 411.244 198.343 443.082 198.343C474.92 198.343 500.73 224.153 500.73 255.991" stroke="#474E63" stroke-width="10" stroke-miterlimit="10"/>
<path d="M462.125 199.558C473.546 203.933 483.665 211.643 490.914 221.494" stroke="#363C4F" stroke-width="1.5" stroke-miterlimit="10"/>
<path d="M500.738 255.991C500.738 224.153 526.548 198.343 558.386 198.343C590.224 198.343 616.034 224.153 616.034 255.991" stroke="#474E63" stroke-width="10" stroke-miterlimit="10"/>
<path d="M582.754 203.954C597.225 209.202 609.089 221.194 614.182 235.72" stroke="#363C4F" stroke-width="1.5" stroke-miterlimit="10"/>
<path d="M558.637 304.278C584.046 304.278 604.645 283.68 604.645 258.27C604.645 232.861 584.046 212.262 558.637 212.262C533.227 212.262 512.629 232.861 512.629 258.27C512.629 283.68 533.227 304.278 558.637 304.278Z" fill="#474E63"/>
<path d="M566.439 284.481C580.895 280.18 589.126 264.974 584.825 250.518C580.524 236.062 565.318 227.831 550.862 232.132C536.406 236.433 528.174 251.639 532.476 266.095C536.777 280.551 551.983 288.783 566.439 284.481Z" fill="white"/>
<path d="M574.127 260.777C575.519 252.243 569.729 244.196 561.194 242.804C552.659 241.412 544.612 247.202 543.22 255.736C541.828 264.27 547.618 272.317 556.153 273.709C564.687 275.101 572.735 269.312 574.127 260.777Z" fill="#C9C9C9"/>
<path d="M558.638 265.916C562.861 265.916 566.284 262.493 566.284 258.27C566.284 254.047 562.861 250.624 558.638 250.624C554.415 250.624 550.992 254.047 550.992 258.27C550.992 262.493 554.415 265.916 558.638 265.916Z" fill="#474E63"/>
<path d="M558.54 239.266C559.379 239.266 560.06 238.586 560.06 237.746C560.06 236.907 559.379 236.226 558.54 236.226C557.7 236.226 557.02 236.907 557.02 237.746C557.02 238.586 557.7 239.266 558.54 239.266Z" fill="#474E63"/>
<path d="M573.079 245.206C573.918 245.206 574.599 244.526 574.599 243.686C574.599 242.847 573.918 242.166 573.079 242.166C572.239 242.166 571.559 242.847 571.559 243.686C571.559 244.526 572.239 245.206 573.079 245.206Z" fill="#474E63"/>
<path d="M579.161 259.689C580 259.689 580.681 259.009 580.681 258.169C580.681 257.33 580 256.649 579.161 256.649C578.321 256.649 577.641 257.33 577.641 258.169C577.641 259.009 578.321 259.689 579.161 259.689Z" fill="#474E63"/>
<path d="M573.223 274.231C574.063 274.231 574.743 273.551 574.743 272.711C574.743 271.872 574.063 271.191 573.223 271.191C572.384 271.191 571.703 271.872 571.703 272.711C571.703 273.551 572.384 274.231 573.223 274.231Z" fill="#474E63"/>
<path d="M557.219 278.794C557.219 277.954 557.9 277.274 558.739 277.274C559.578 277.274 560.259 277.955 560.259 278.794C560.259 279.634 559.578 280.314 558.739 280.314C557.9 280.314 557.219 279.633 557.219 278.794Z" fill="#474E63"/>
<path d="M543.121 271.778C543.715 271.184 544.677 271.184 545.271 271.778C545.865 272.372 545.865 273.334 545.271 273.928C544.677 274.522 543.715 274.522 543.121 273.928C542.528 273.335 542.528 272.372 543.121 271.778Z" fill="#474E63"/>
<path d="M538.114 259.89C538.953 259.89 539.634 259.209 539.634 258.37C539.634 257.531 538.953 256.85 538.114 256.85C537.274 256.85 536.594 257.531 536.594 258.37C536.594 259.209 537.274 259.89 538.114 259.89Z" fill="#474E63"/>
<path d="M544.055 245.348C544.895 245.348 545.575 244.667 545.575 243.828C545.575 242.989 544.895 242.308 544.055 242.308C543.216 242.308 542.535 242.989 542.535 243.828C542.535 244.667 543.216 245.348 544.055 245.348Z" fill="#474E63"/>
<path d="M571.031 224.207C579.638 227.751 586.954 234.344 591.372 242.537" stroke="#363C4F" stroke-width="1.5" stroke-miterlimit="10"/>
<path d="M530.793 274.163C534.772 280.634 540.695 285.893 547.592 289.078" stroke="#363C4F" stroke-width="1.5" stroke-miterlimit="10"/>
<path d="M136.07 304.278C161.48 304.278 182.078 283.68 182.078 258.27C182.078 232.861 161.48 212.262 136.07 212.262C110.661 212.262 90.0625 232.861 90.0625 258.27C90.0625 283.68 110.661 304.278 136.07 304.278Z" fill="#474E63"/>
<path d="M146.362 283.582C160.336 277.905 167.061 261.976 161.384 248.002C155.708 234.029 139.778 227.304 125.805 232.98C111.831 238.657 105.106 254.587 110.783 268.56C116.459 282.533 132.389 289.259 146.362 283.582Z" fill="white"/>
<path d="M151.545 260.794C152.937 252.26 147.147 244.213 138.612 242.821C130.077 241.429 122.03 247.218 120.638 255.753C119.246 264.287 125.036 272.334 133.571 273.726C142.105 275.118 150.153 269.328 151.545 260.794Z" fill="#C9C9C9"/>
<path d="M136.072 265.916C140.295 265.916 143.718 262.493 143.718 258.27C143.718 254.047 140.295 250.624 136.072 250.624C131.849 250.624 128.426 254.047 128.426 258.27C128.426 262.493 131.849 265.916 136.072 265.916Z" fill="#474E63"/>
<path d="M135.969 239.266C136.809 239.266 137.489 238.586 137.489 237.746C137.489 236.907 136.809 236.226 135.969 236.226C135.13 236.226 134.449 236.907 134.449 237.746C134.449 238.586 135.13 239.266 135.969 239.266Z" fill="#474E63"/>
<path d="M150.512 245.206C151.352 245.206 152.032 244.526 152.032 243.686C152.032 242.847 151.352 242.166 150.512 242.166C149.673 242.166 148.992 242.847 148.992 243.686C148.992 244.526 149.673 245.206 150.512 245.206Z" fill="#474E63"/>
<path d="M156.594 259.689C157.434 259.689 158.114 259.009 158.114 258.169C158.114 257.33 157.434 256.649 156.594 256.649C155.755 256.649 155.074 257.33 155.074 258.169C155.074 259.009 155.755 259.689 156.594 259.689Z" fill="#474E63"/>
<path d="M150.653 274.231C151.492 274.231 152.173 273.551 152.173 272.711C152.173 271.872 151.492 271.191 150.653 271.191C149.813 271.191 149.133 271.872 149.133 272.711C149.133 273.551 149.813 274.231 150.653 274.231Z" fill="#474E63"/>
<path d="M134.652 278.794C134.652 277.954 135.333 277.274 136.172 277.274C137.011 277.274 137.692 277.955 137.692 278.794C137.692 279.634 137.011 280.314 136.172 280.314C135.333 280.314 134.652 279.633 134.652 278.794Z" fill="#474E63"/>
<path d="M120.555 271.778C121.149 271.184 122.111 271.184 122.705 271.778C123.299 272.372 123.299 273.334 122.705 273.928C122.111 274.522 121.149 274.522 120.555 273.928C119.961 273.335 119.961 272.372 120.555 271.778Z" fill="#474E63"/>
<path d="M115.547 259.89C116.387 259.89 117.067 259.209 117.067 258.37C117.067 257.531 116.387 256.85 115.547 256.85C114.708 256.85 114.027 257.531 114.027 258.37C114.027 259.209 114.708 259.89 115.547 259.89Z" fill="#474E63"/>
<path d="M121.489 245.348C122.328 245.348 123.009 244.667 123.009 243.828C123.009 242.989 122.328 242.308 121.489 242.308C120.649 242.308 119.969 242.989 119.969 243.828C119.969 244.667 120.649 245.348 121.489 245.348Z" fill="#474E63"/>
<path d="M156.004 224.746C165.621 229.952 172.498 239.93 173.941 250.77" stroke="#363C4F" stroke-width="1.5" stroke-miterlimit="10"/>
<path d="M103.371 268.229C105.71 276.6 111.752 283.863 119.558 287.685" stroke="#363C4F" stroke-width="1.5" stroke-miterlimit="10"/>
<path d="M126.277 291.897C126.402 291.897 126.527 291.897 126.653 291.897" stroke="#363C4F" stroke-width="1.5" stroke-miterlimit="10"/>
<path d="M73.5117 266.687V251.859C73.5117 218.293 100.723 191.082 134.289 191.082H136.896C170.462 191.082 197.673 218.293 197.673 251.859V266.687" stroke="#474E63" stroke-width="10" stroke-miterlimit="10"/>
<path d="M155.164 192.107C175.063 198.439 191.461 214.855 197.774 234.76" stroke="#363C4F" stroke-width="1.5" stroke-miterlimit="10"/>
<path d="M129.119 179.549H178.084V70.4791C178.084 70.4791 171.601 57.2121 151.872 56.1661C89.3788 52.8521 63.4158 60.3141 54.2228 64.3481C51.6228 65.4891 49.4978 67.4811 48.2178 70.0151L8.17578 149.255V235.746H67.8848C70.6168 203.96 97.2158 179.549 129.119 179.549Z" fill="#C3262C"/>
<path opacity="0.2" d="M114.394 70.919V164.943H111.629C80.3188 164.943 54.9378 190.324 54.9378 221.634H8.17578V235.746H67.8848C70.0018 209.631 90.3238 183.159 124.082 179.549H178.084V70.919H114.394ZM168.244 126.955H126.648V79.452H168.244V126.955Z" fill="#C3262C"/>
<path d="M106.816 165.478V140.437H32.7422V220.903H54.0622L54.2672 219.002C57.2792 191.146 79.0202 169.001 106.816 165.478Z" stroke="#001E49" stroke-width="0.3" stroke-miterlimit="10" stroke-linecap="round"/>
<path d="M47.918 70.478H177.194" stroke="#C3262C" stroke-width="1.5" stroke-miterlimit="10" stroke-linecap="round"/>
<path d="M114.52 70.848V179.937" stroke="#C3262C" stroke-width="1.5" stroke-miterlimit="10" stroke-linecap="round"/>
<path d="M14.8477 147.07L19.6236 139.653" stroke="#C3262C" stroke-width="1.5" stroke-miterlimit="10" stroke-linecap="round"/>
<path d="M106.16 66.459H163.973" stroke="#C3262C" stroke-width="1.5" stroke-miterlimit="10" stroke-linecap="round"/>
<path d="M68.1797 134.432C81.0007 134.432 93.8207 134.432 106.642 134.432" stroke="#C3262C" stroke-width="1.5" stroke-miterlimit="10" stroke-linecap="round"/>
<path d="M129.902 134.432H163.972" stroke="#C3262C" stroke-width="1.5" stroke-miterlimit="10" stroke-linecap="round"/>
<path d="M129.902 163.994H163.972" stroke="#C3262C" stroke-width="1.5" stroke-miterlimit="10" stroke-linecap="round"/>
<path d="M92.3026 146.621C95.0146 146.621 97.7266 146.621 100.439 146.621C101.404 146.621 101.406 145.121 100.439 145.121C97.7266 145.121 95.0146 145.121 92.3026 145.121C91.3376 145.121 91.3356 146.621 92.3026 146.621Z" fill="#363C4F"/>
<path d="M48.5905 69.892L47.8935 69.195C46.8115 68.113 46.8115 66.358 47.8935 65.276L49.8775 63.292C50.9595 62.21 52.7145 62.21 53.7965 63.292L54.4935 63.989L48.5905 69.892Z" fill="#363C4F"/>
<path d="M50.8477 66.04L80.7317 36.155" stroke="#363C4F" stroke-width="1.5" stroke-miterlimit="10" stroke-linecap="round"/>
<path d="M53.1515 76.119H45.1315L14.8555 136.034H16.0335C22.3585 136.034 28.0915 132.313 30.6675 126.537L53.1515 76.119Z" fill="white"/>
<path d="M70.0799 127.835H106.816V76.404H58.7249L35.8129 128.029C34.1799 131.708 36.8729 135.85 40.8979 135.85H62.0649C62.0639 131.424 65.6529 127.835 70.0799 127.835Z" fill="white"/>
<path d="M51.2533 96.44L32.1562 136.104H51.2533V96.44Z" stroke="#363C4F" stroke-width="1.5" stroke-miterlimit="10"/>
<path d="M35.4708 138.414H32.6318C31.0438 138.414 29.7578 137.127 29.7578 135.539V133.495C29.7578 131.907 31.0448 130.62 32.6318 130.62H35.4708C37.0588 130.62 38.3448 131.907 38.3448 133.495V135.539C38.3448 137.127 37.0578 138.414 35.4708 138.414Z" fill="#363C4F"/>
<path d="M56.4743 125.83H53.4573C51.0103 125.83 49.0273 123.846 49.0273 121.399V88.461C49.0273 86.014 51.0113 84.031 53.4573 84.031H56.4743V125.83Z" fill="#363C4F"/>
<path d="M14.7748 150.262H8.17578V206.256H14.7748V150.262Z" fill="white"/>
<path d="M20.6515 206.299H19.7135C18.9855 206.299 18.3945 205.709 18.3945 204.98V151.565C18.3945 150.837 18.9845 150.246 19.7135 150.246H20.6515C21.3795 150.246 21.9705 150.836 21.9705 151.565V204.98C21.9705 205.708 21.3795 206.299 20.6515 206.299Z" fill="#363C4F"/>
<path d="M11.4531 211.414V221.755C11.4531 223.563 12.9191 225.029 14.7271 225.029C17.6441 225.029 20.0081 222.664 20.0081 219.748V213.421C20.0081 210.504 17.6441 208.14 14.7271 208.14C12.9191 208.14 11.4531 209.606 11.4531 211.414Z" fill="white"/>
<path d="M11.4531 210.824V222.344C11.4531 223.827 12.6551 225.029 14.1381 225.029H15.0281V208.14H14.1381C12.6551 208.14 11.4531 209.342 11.4531 210.824Z" fill="#FFC76B"/>
<path d="M8.17578 153.237H14.7748" stroke="#C3262C" stroke-width="1.5" stroke-miterlimit="10"/>
<path d="M8.17578 159.408H14.7748" stroke="#C3262C" stroke-width="1.5" stroke-miterlimit="10"/>
<path d="M8.17578 165.579H14.7748" stroke="#C3262C" stroke-width="1.5" stroke-miterlimit="10"/>
<path d="M8.17578 171.75H14.7748" stroke="#C3262C" stroke-width="1.5" stroke-miterlimit="10"/>
<path d="M8.17578 177.921H14.7748" stroke="#C3262C" stroke-width="1.5" stroke-miterlimit="10"/>
<path d="M8.17578 184.092H14.7748" stroke="#C3262C" stroke-width="1.5" stroke-miterlimit="10"/>
<path d="M8.17578 190.263H14.7748" stroke="#C3262C" stroke-width="1.5" stroke-miterlimit="10"/>
<path d="M8.17578 196.435H14.7748" stroke="#C3262C" stroke-width="1.5" stroke-miterlimit="10"/>
<path d="M8.17578 202.606H14.7748" stroke="#C3262C" stroke-width="1.5" stroke-miterlimit="10"/>
<path d="M215.279 181.17C216.912 175.851 218.658 170.345 220.864 165.089C221.412 163.782 222.717 162.953 224.134 162.964C226.634 162.984 228.332 165.53 227.362 167.833C225.265 172.812 223.629 178.039 222.075 183.1C220.745 187.436 213.94 185.532 215.279 181.17Z" fill="#FF977A"/>
<path d="M227.067 155.841C230.325 155.866 232.429 159.294 230.981 162.213C230.174 163.839 229.433 165.358 229.068 166.166C228.873 166.599 227.381 170.456 227.21 170.846L217.637 170.989C218.46 168.875 221.349 162.238 222.994 158.48C223.701 156.863 225.302 155.827 227.067 155.841Z" fill="#C3262C"/>
<path d="M217.399 171.863L226.704 171.724C227.081 171.718 227.382 171.408 227.377 171.031L227.37 170.545C227.364 170.168 227.054 169.867 226.677 169.872L217.372 170.011C216.995 170.017 216.694 170.327 216.699 170.704L216.706 171.19C216.711 171.568 217.022 171.869 217.399 171.863Z" fill="#001E49"/>
<path d="M227.721 297.129L220.587 296.758L219.152 295.243L221.068 289.113L221.047 250.084L220.545 200.683H236.549L230.871 249.712L227.769 290.381L229.057 294.324L227.721 297.129Z" fill="#001E49"/>
<path d="M222.059 209.417C223.599 209.098 224.94 207.949 225.49 206.476" stroke="#363C4F" stroke-width="0.5" stroke-miterlimit="10" stroke-linecap="round"/>
<path d="M223.141 295.031C224.518 292.853 225.895 290.675 227.272 288.497" stroke="#363C4F" stroke-width="0.5" stroke-miterlimit="10" stroke-linecap="round"/>
<path d="M224.383 277.698C224.496 275.07 224.608 272.443 224.721 269.815" stroke="#363C4F" stroke-width="0.5" stroke-miterlimit="10" stroke-linecap="round"/>
<path d="M223.18 259.327H226.704" stroke="#363C4F" stroke-width="0.5" stroke-miterlimit="10" stroke-linecap="round"/>
<path d="M224.938 258.449H227.07" stroke="#363C4F" stroke-width="0.5" stroke-miterlimit="10" stroke-linecap="round"/>
<path d="M223.976 248.405C224.001 243.627 223.985 238.849 223.934 234.072" stroke="#363C4F" stroke-width="0.5" stroke-miterlimit="10" stroke-linecap="round"/>
<path d="M240.948 297.129L248.083 296.758L249.518 295.243L247.602 289.113L247.623 250.084L248.125 200.683H232.121L237.799 249.712L240.901 290.381L239.612 294.324L240.948 297.129Z" fill="#001E49"/>
<path d="M246.611 209.417C245.072 209.098 243.73 207.949 243.18 206.476" stroke="#363C4F" stroke-width="0.5" stroke-miterlimit="10" stroke-linecap="round"/>
<path d="M245.529 295.031C244.152 292.853 242.775 290.675 241.398 288.497" stroke="#363C4F" stroke-width="0.5" stroke-miterlimit="10" stroke-linecap="round"/>
<path d="M244.282 277.698C244.17 275.07 244.057 272.443 243.945 269.815" stroke="#363C4F" stroke-width="0.5" stroke-miterlimit="10" stroke-linecap="round"/>
<path d="M245.489 259.327H241.965" stroke="#363C4F" stroke-width="0.5" stroke-miterlimit="10" stroke-linecap="round"/>
<path d="M243.732 258.449H241.598" stroke="#363C4F" stroke-width="0.5" stroke-miterlimit="10" stroke-linecap="round"/>
<path d="M244.695 248.405C244.67 243.627 244.686 238.849 244.737 234.072" stroke="#363C4F" stroke-width="0.5" stroke-miterlimit="10" stroke-linecap="round"/>
<path d="M231.643 215.745H229.574V207.53" stroke="#363C4F" stroke-width="0.5" stroke-miterlimit="10" stroke-linecap="round"/>
<path d="M231.445 212.95V207.356" stroke="#363C4F" stroke-width="0.5" stroke-miterlimit="10" stroke-linecap="round"/>
<path d="M248.022 200.683H220.359V204.872H248.022V200.683Z" fill="#363C4F"/>
<path d="M248.022 202.242H220.359V204.423H248.022V202.242Z" fill="#FCB33A"/>
<path d="M240.66 202.242H239.703V204.736H240.66V202.242Z" fill="#363C4F"/>
<path d="M236.504 202.242H235.547V204.736H236.504V202.242Z" fill="#363C4F"/>
<path d="M226.195 202.242H225.238V204.736H226.195V202.242Z" fill="#363C4F"/>
<path d="M222.242 202.242H221.285V204.736H222.242V202.242Z" fill="#363C4F"/>
<path d="M228.895 204.85H231.988V201.932H228.895V204.85Z" stroke="#FFDDA6" stroke-width="0.6229" stroke-miterlimit="10"/>
<path d="M252.047 304.277H241.099C240.773 304.277 240.508 304.012 240.508 303.686V302.487C240.508 302.161 240.773 301.896 241.099 301.896H252.047C252.373 301.896 252.638 302.161 252.638 302.487V303.686C252.637 304.013 252.373 304.277 252.047 304.277Z" fill="#001E49"/>
<path d="M252.454 300.538L247.247 296.328H241.583L240.048 299.83C239.354 301.412 240.514 303.186 242.241 303.186H251.517C252.922 303.186 253.546 301.421 252.454 300.538Z" fill="#363C4F"/>
<path d="M247.865 299.597H241.516" stroke="#001E49" stroke-width="0.5" stroke-miterlimit="10" stroke-linecap="round"/>
<path d="M227.609 304.277H216.661C216.335 304.277 216.07 304.012 216.07 303.686V302.487C216.07 302.161 216.335 301.896 216.661 301.896H227.609C227.935 301.896 228.2 302.161 228.2 302.487V303.686C228.199 304.013 227.935 304.277 227.609 304.277Z" fill="#001E49"/>
<path d="M216.212 300.538L221.419 296.328H227.084L228.619 299.83C229.313 301.412 228.153 303.186 226.425 303.186H217.149C215.744 303.186 215.12 301.421 216.212 300.538Z" fill="#363C4F"/>
<path d="M220.801 299.597H227.15" stroke="#001E49" stroke-width="0.5" stroke-miterlimit="10" stroke-linecap="round"/>
<path d="M240.607 137.329C240.607 137.329 236.326 134.159 230.023 133.815C223.72 133.471 218.129 136.693 224.078 138.678L227.935 139.454C227.935 139.454 228.649 134.707 229.523 134.618C229.523 134.618 231.793 134.825 234.674 137.272C237.044 138.941 240.607 137.329 240.607 137.329Z" fill="#001E49"/>
<path d="M222.001 185.554L223.303 162.527C223.27 159.807 224.431 156.048 226.905 155.294L230.291 154.11L235.811 154.387L237.178 154.456L242.698 154.733L247.359 156.321C249.745 157.318 251.249 159.705 251.12 162.288L247.798 186.849L248.919 200.362C249.015 201.513 248.074 202.485 246.92 202.427L234.801 201.819L233.434 201.75L221.315 201.142C220.161 201.084 219.322 200.023 219.533 198.887L222.001 185.554Z" fill="#C3262C"/>
<path d="M244.906 172.225C241.163 182.959 233.815 192.4 224.328 198.664" stroke="#474E63" stroke-width="0.5" stroke-miterlimit="10" stroke-linecap="round"/>
<path d="M232.432 188.707C230.071 190.081 227.709 191.455 225.348 192.829" stroke="#474E63" stroke-width="0.5" stroke-miterlimit="10" stroke-linecap="round"/>
<path d="M230.703 157.24L235.09 160.557L239.737 157.693L240.424 143.997L231.39 143.544L230.703 157.24Z" fill="#FFCBB5"/>
<path d="M235.73 153.176C234.101 154.227 232.437 154.385 230.871 153.885L231.39 143.543L240.424 143.996L240.21 148.254C239.02 150.145 237.599 151.97 235.73 153.176Z" fill="#FFAB94"/>
<path d="M235.09 160.557L239.85 155.428L240.03 151.86L242.174 153.884L240.6 159.459L239.737 157.693L235.09 160.557Z" fill="#001E49"/>
<path d="M235.089 160.557L230.802 154.974L230.981 151.406L228.645 153.205L229.652 158.91L230.688 157.24L235.089 160.557Z" fill="#001E49"/>
<path d="M228.056 132.968C228.056 132.968 226.693 139.041 227.036 143.909C227.238 146.771 229.481 151.344 232.23 151.323C236.513 151.291 240.235 147.656 241.31 146.23C242.585 144.54 242.439 143.325 243.485 140.791C244.39 138.599 244.228 135.785 243.318 133.596C242.377 131.334 241.355 129.239 236.885 129.099C230.269 128.891 228.056 132.968 228.056 132.968Z" fill="#FFCBB5"/>
<path d="M240.993 137.004C240.041 137.791 238.958 138.73 237.697 138.911C235.481 139.23 233.668 137.562 231.624 137.029C230.11 136.635 228.673 136.727 227.344 137.167C227.656 134.755 228.057 132.967 228.057 132.967C228.057 132.967 230.269 128.89 236.887 129.097C241.357 129.237 242.379 131.333 243.319 133.594C243.424 133.846 243.517 134.107 243.602 134.373C242.827 135.342 241.947 136.214 240.993 137.004Z" fill="#FFAB94"/>
<path d="M229.64 132.167C229.518 132.14 229.396 132.143 229.279 132.166L228.406 132.122C229.201 130.821 231.617 128.232 236.729 128.392C241.199 128.532 243.109 131.286 244.05 133.547C244.961 135.736 244.86 138.214 243.954 140.405C243.378 141.8 242.736 143.464 242.078 144.972L240.877 144.702C240.877 144.702 239.562 140.462 240.539 136.692C241.051 134.717 241.517 133.82 240.897 133.377C238.204 131.452 236.275 133.622 233.338 133.492C231.231 133.399 231.293 132.504 229.649 132.17C229.647 132.169 229.644 132.168 229.64 132.167Z" fill="#474E63"/>
<path d="M232.428 140.623L230.588 144.043C230.489 144.228 230.595 144.456 230.801 144.499C231.34 144.613 231.919 144.717 231.919 144.717" fill="url(#paint0_linear_2478_1147)"/>
<path d="M232.428 140.623L230.588 144.043C230.489 144.228 230.595 144.456 230.801 144.499C231.34 144.613 231.919 144.717 231.919 144.717" stroke="#FF977A" stroke-width="0.5" stroke-miterlimit="10" stroke-linecap="round"/>
<path d="M233.733 146.542C232.735 146.774 231.696 146.829 230.68 146.704" stroke="#474E63" stroke-width="0.5682" stroke-miterlimit="10" stroke-linecap="round"/>
<path d="M232.899 147.984C232.488 148.009 232.076 148.034 231.664 148.059" stroke="#FF977A" stroke-width="0.5" stroke-miterlimit="10" stroke-linecap="round"/>
<path d="M236.95 142.613L234.582 142.494" stroke="#FF977A" stroke-width="0.5" stroke-miterlimit="10" stroke-linecap="round"/>
<path d="M234.852 141.014C234.928 140.572 235.346 140.275 235.793 140.35C236.235 140.426 236.532 140.848 236.456 141.29C236.385 141.699 236.019 141.985 235.614 141.964C235.582 141.962 235.549 141.959 235.516 141.953C235.302 141.916 235.115 141.798 234.99 141.62C234.864 141.443 234.815 141.227 234.852 141.014Z" fill="#474E63"/>
<path d="M238.007 138.696C237.298 138.327 235.492 138.085 234.699 138.189" stroke="#474E63" stroke-width="0.5682" stroke-miterlimit="10" stroke-linecap="round"/>
<path d="M228.262 142.177L230.63 142.296" stroke="#FF977A" stroke-width="0.5" stroke-miterlimit="10" stroke-linecap="round"/>
<path d="M230.508 140.796C230.476 140.349 230.09 140.011 229.639 140.042C229.192 140.074 228.853 140.463 228.885 140.911C228.914 141.325 229.251 141.646 229.655 141.666C229.687 141.668 229.72 141.667 229.754 141.665C229.971 141.65 230.169 141.551 230.311 141.387C230.453 141.222 230.523 141.012 230.508 140.796Z" fill="#474E63"/>
<path d="M227.891 138.012C228.633 137.716 230.03 137.59 230.693 137.909" stroke="#474E63" stroke-width="0.5682" stroke-miterlimit="10" stroke-linecap="round"/>
<path d="M241.225 140.95C241.697 140.304 242.518 139.843 243.295 140.035C243.999 140.209 244.495 140.873 244.693 141.571C244.932 142.413 244.807 143.352 244.357 144.103C243.907 144.854 243.138 145.407 242.283 145.594C241.645 145.733 240.881 145.626 240.508 145.09C240.103 144.508 240.359 143.751 240.438 143.111C240.532 142.352 240.766 141.577 241.225 140.95Z" fill="#FFCBB5"/>
<path d="M241.648 143.994C241.854 144.134 242.161 144.098 242.328 143.914C242.496 143.73 242.503 143.421 242.344 143.229C242.185 143.037 241.88 142.987 241.668 143.117C241.788 142.096 242.449 141.176 243.603 141.297" stroke="#FF977A" stroke-width="0.5" stroke-miterlimit="10" stroke-linecap="round" stroke-linejoin="round"/>
<path d="M229.265 133.211C229.34 131.708 230.62 130.551 232.123 130.627C233.626 130.702 234.783 131.982 234.708 133.484C234.668 134.282 234.287 134.979 233.715 135.45L231.968 134.483L229.422 134.266C229.303 133.938 229.246 133.581 229.265 133.211Z" fill="#731418"/>
<path d="M238.599 137.237L244.698 137.543C244.698 137.543 245.851 131.28 241.26 128.739C235.363 125.307 227.893 127.043 227.062 134.048L232.314 134.501L235.961 136.57L238.599 137.237Z" fill="#C3262C"/>
<path d="M227.219 134.061C227.216 133.929 227.212 133.796 227.219 133.662C227.363 130.795 229.804 128.588 232.67 128.732C235.537 128.876 237.744 131.317 237.601 134.183C237.553 135.141 237.244 136.023 236.752 136.77L235.958 136.569L232.311 134.5L227.219 134.061Z" fill="#731418"/>
<path d="M244.82 136.264C244.792 137.041 244.699 137.543 244.699 137.543L238.6 137.237L235.961 136.57L235.164 135.78L244.82 136.264Z" fill="#001E49"/>
<path d="M241.255 136.736C241.481 133.9 240.551 127.879 237.082 127.097" stroke="#001E49" stroke-width="0.4016" stroke-miterlimit="10" stroke-linecap="round"/>
<path d="M230.688 134.907C229.554 134.443 228.235 134.063 226.789 133.944C227.805 133.806 228.902 133.753 230.024 133.814C236.327 134.158 240.608 137.328 240.608 137.328C240.608 137.328 237.045 138.94 234.675 137.272C234.675 137.272 234.559 137.172 234.363 137.018C232.872 135.816 231.566 135.207 230.688 134.907Z" fill="#C3262C"/>
<path d="M230.234 134.275C227.918 133.818 225.323 133.901 223.095 135.074C222.412 135.433 221.772 136.01 221.699 136.809" stroke="#C3262C" stroke-width="0.419" stroke-miterlimit="10" stroke-linecap="round"/>
<path d="M222.718 173.18L218.817 175.28L217.215 179.236L222.448 177.509L222.718 173.18Z" fill="#FFCBB5"/>
<path d="M235.703 173.787L241.932 179.715L236.622 180.619L233.875 175.919L235.703 173.787Z" fill="#FFAB94"/>
<path d="M220.754 185.448C225.731 182.382 237.373 176.556 237.373 176.556L235.67 173.765C235.67 173.765 221.85 177.332 217.938 178.386C216.029 179.342 214.272 181.982 215.386 183.809C216.645 185.872 218.84 186.406 220.754 185.448Z" fill="#FFAB94"/>
<path d="M237.537 186.796C232.543 183.098 220.785 175.816 220.785 175.816L222.72 173.18C222.72 173.18 236.878 178.424 240.882 179.953C242.81 181.148 244.481 184.036 243.214 185.76C241.784 187.709 239.471 187.994 237.537 186.796Z" fill="#FFCBB5"/>
<path d="M236.938 182.696C238.584 178.432 240.252 174.01 241.573 169.515C242.03 167.96 243.463 166.901 245.082 166.982C247.324 167.094 248.884 169.284 248.227 171.43C247.746 173.001 247.239 174.56 246.734 176.104C245.689 179.3 244.582 182.481 243.371 185.618C241.731 189.868 235.308 186.92 236.938 182.696Z" fill="#FFCBB5"/>
<path d="M247.483 173.806C247.235 174.575 246.985 175.341 246.736 176.103C246.366 177.235 245.985 178.365 245.596 179.491L239.902 174.74C240.563 172.85 241.185 170.939 241.743 169.016L247.483 173.806Z" fill="#FFAB94"/>
<path d="M246.587 160.391C249.33 160.529 251.281 163.112 250.659 165.787C249.733 169.766 248.461 174.144 247.554 176.981L240.203 170.847C240.315 170.436 241.425 166.39 241.545 165.931C241.728 165.234 241.905 164.534 242.071 163.831C242.564 161.742 244.445 160.283 246.587 160.391Z" fill="#C3262C"/>
<path d="M239.625 171.523L246.77 177.485C247.06 177.727 247.49 177.688 247.732 177.398L248.043 177.025C248.285 176.735 248.246 176.305 247.956 176.063L240.811 170.101C240.521 169.859 240.091 169.898 239.849 170.188L239.538 170.561C239.296 170.851 239.335 171.281 239.625 171.523Z" fill="#001E49"/>
<path d="M224.603 164.948L230.215 165.23L230.279 163.95L224.667 163.668L224.603 164.948Z" fill="#731418"/>
<defs>
<linearGradient id="paint0_linear_2478_1147" x1="230.998" y1="150.024" x2="231.971" y2="134.929" gradientUnits="userSpaceOnUse">
<stop stop-color="#FFDEC9"/>
<stop offset="0.2949" stop-color="#FFD3BE"/>
<stop offset="0.814" stop-color="#FFB7A0"/>
<stop offset="1" stop-color="#FFAB94"/>
</linearGradient>
</defs>
</svg>
